<?xml version="1.0" standalone="no"?>
<!DOCTYPE svg PUBLIC "-//W3C//DTD SVG 1.1//EN" "http://www.w3.org/Graphics/SVG/1.1/DTD/svg11.dtd" >
<svg xmlns="http://www.w3.org/2000/svg" xmlns:xlink="http://www.w3.org/1999/xlink" version="1.1">
<metadata>
Created by FontForge 20170731 at Wed Sep 11 16:34:54 2019
 By Aleksey,,,
Copyright 2019 The Big Shoulders Project Authors (https://github.com/xotypeco/big_shoulders)
</metadata>
<defs>
<font id="BigShouldersText-Medium" horiz-adv-x="0" >
  <font-face 
    font-family="Big Shoulders Text Medium"
    font-weight="500"
    font-stretch="normal"
    units-per-em="1000"
    panose-1="0 0 0 0 0 0 0 0 0 0"
    ascent="800"
    descent="-200"
    x-height="600"
    cap-height="800"
    bbox="-210 -308 851 1052"
    underline-thickness="20"
    underline-position="-70"
    unicode-range="U+000D-FB02"
  />
<missing-glyph horiz-adv-x="364" 
d="M33 0v666h265v-666h-265zM66 33h199v600h-199v-600z" />
    <glyph glyph-name="fi" unicode="fi" horiz-adv-x="495" 
d="M86 0l-1 531h-55v69h55v72q0 73 37 105t118 32q15 0 34.5 -2t35.5 -5v-66q-15 1 -32.5 1.5t-36.5 0.5q-34 0 -50.5 -12.5t-16.5 -46.5v-79h117v-69h-117l1 -531h-89zM344 716v84h111v-84h-111zM355 0v600h88v-600h-88z" />
    <glyph glyph-name="fl" unicode="fl" horiz-adv-x="511" 
d="M86 0l-1 531h-55v69h55v72q0 73 37 105t118 32q15 0 34.5 -2t35.5 -5v-66q-15 1 -32.5 1.5t-36.5 0.5q-34 0 -50.5 -12.5t-16.5 -46.5v-79h117v-69h-117l1 -531h-89zM371 0v800h88v-800h-88z" />
    <glyph glyph-name="f_f" unicode="ff" horiz-adv-x="586" 
d="M86 0l-1 531h-55v69h55v72q0 73 37 105t118 32q15 0 34.5 -2t35.5 -5v-66q-15 1 -32.5 1.5t-36.5 0.5q-34 0 -50.5 -12.5t-16.5 -46.5v-79h176v72q0 73 37 105t118 32q15 0 35 -2t36 -5v-66q-15 1 -32.5 1.5t-37.5 0.5q-33 0 -49.5 -12.5t-16.5 -46.5v-79h108v-69h-108
l1 -531h-90l-1 531h-176l1 -531h-89z" />
    <glyph glyph-name="f_f_i" unicode="ffi" horiz-adv-x="761" 
d="M86 0l-1 531h-55v69h55v72q0 73 37 105t118 32q15 0 34.5 -2t35.5 -5v-66q-15 1 -32.5 1.5t-36.5 0.5q-34 0 -50.5 -12.5t-16.5 -46.5v-79h176v72q0 73 37 105t118 32q15 0 35 -2t36 -5v-66q-15 1 -32.5 1.5t-37.5 0.5q-33 0 -49.5 -12.5t-16.5 -46.5v-79h108v-69h-108
l1 -531h-90l-1 531h-176l1 -531h-89zM610 716v84h111v-84h-111zM621 0v600h88v-600h-88z" />
    <glyph glyph-name="f_f_l" unicode="ffl" horiz-adv-x="776" 
d="M86 0l-1 531h-55v69h55v72q0 73 37 105t118 32q15 0 34.5 -2t35.5 -5v-66q-15 1 -32.5 1.5t-36.5 0.5q-34 0 -50.5 -12.5t-16.5 -46.5v-79h176v72q0 73 37 105t118 32q15 0 35 -2t36 -5v-66q-15 1 -32.5 1.5t-37.5 0.5q-33 0 -49.5 -12.5t-16.5 -46.5v-79h108v-69h-108
l1 -531h-90l-1 531h-176l1 -531h-89zM637 0v800h88v-800h-88z" />
    <glyph glyph-name=".notdef" horiz-adv-x="364" 
d="M33 0v666h265v-666h-265zM66 33h199v600h-199v-600z" />
    <glyph glyph-name=".null" 
 />
    <glyph glyph-name="nonmarkingreturn" horiz-adv-x="333" 
 />
    <glyph glyph-name="NULL" 
 />
    <glyph glyph-name="NULL" 
 />
    <glyph glyph-name="CR" unicode="&#xd;" horiz-adv-x="209" 
 />
    <glyph glyph-name="space" unicode=" " horiz-adv-x="209" 
 />
    <glyph glyph-name="exclam" unicode="!" horiz-adv-x="239" 
d="M86 166l-12 297v337h91v-337l-12 -297h-67zM46 0v102h147v-102h-147z" />
    <glyph glyph-name="quotedbl" unicode="&#x22;" horiz-adv-x="326" 
d="M63 574l-17 117v109h80v-109l-17 -117h-46zM199 691v109h81v-109l-17 -117h-46z" />
    <glyph glyph-name="numbersign" unicode="#" horiz-adv-x="624" 
d="M62 0l60 217h-92l19 73h90l58 202h-92l19 74h91l66 234h88l-65 -234h108l66 234h87l-65 -234h94l-17 -74h-95l-58 -202h93l-19 -73h-92l-59 -217h-88l60 217h-109l-60 -217h-88zM228 290h108l58 202h-109z" />
    <glyph glyph-name="dollar" unicode="$" horiz-adv-x="442" 
d="M181 901h80v-96q61 -7 89.5 -41t30.5 -102q1 -30 0.5 -66.5t-1.5 -75.5h-85q1 44 1.5 81t-1.5 73q-1 32 -18 45t-56 13q-38 0 -55 -13t-19 -45q-3 -37 -2.5 -71t2.5 -71q1 -41 12 -60.5t38 -26.5l56 -12q72 -17 100.5 -55.5t30.5 -112.5q2 -30 1.5 -63.5t-1.5 -62.5
q-3 -69 -31.5 -103t-91.5 -41v-89h-80v89q-62 7 -90.5 41.5t-30.5 102.5q-2 40 -1.5 75t2.5 76h85q-2 -43 -2.5 -83t2.5 -81q1 -32 18.5 -45t57.5 -13q38 0 54.5 13t19.5 45q2 32 2 69.5t-2 69.5q-2 38 -16.5 57.5t-47.5 27.5l-61 15q-63 15 -87 53.5t-26 113.5
q-1 31 -0.5 63.5t0.5 66.5q3 68 31.5 102t91.5 41v96z" />
    <glyph glyph-name="percent" unicode="%" horiz-adv-x="569" 
d="M154 435q-47 0 -73 22t-29 66q-1 40 -1 94t1 99q2 43 28.5 65t73.5 22q48 0 74.5 -23t27.5 -64q2 -45 1.5 -99t-1.5 -93q-2 -43 -28.5 -66t-73.5 -23zM73 0l359 800h63l-360 -800h-62zM154 487q34 0 35 27q3 47 3 103t-3 107q-1 27 -35 27t-35 -26q-3 -52 -3 -108t3 -104
q0 -10 9.5 -18t25.5 -8zM414 -4q-46 0 -72.5 22t-28.5 66q-2 40 -1.5 94t1.5 99q1 43 27.5 65t73.5 22q48 0 74.5 -23t28.5 -64q1 -45 1 -99t-1 -93q-3 -43 -29 -66t-74 -23zM414 48q34 0 36 27q2 47 2.5 103t-2.5 107q-2 27 -36 27t-35 -26q-2 -52 -2 -108t2 -104
q1 -10 10 -18t25 -8z" />
    <glyph glyph-name="ampersand" unicode="&#x26;" horiz-adv-x="528" 
d="M215 -8q-86 0 -123 35.5t-40 113.5q-1 36 -0.5 61.5t2 47t4.5 46.5q4 48 23.5 79t45.5 56q-25 59 -40.5 116t-17.5 106q-5 75 30 115t111 40q80 0 114 -38.5t30 -111.5q-3 -49 -16.5 -87t-39.5 -75t-67 -84q19 -39 40.5 -77.5t43.5 -74.5q-1 34 -5 70.5t-9 73.5l74 1
q4 -32 8 -73.5t5.5 -85t-0.5 -80.5q25 -34 48 -63t41 -51l-60 -53q-14 16 -28 34.5t-29 38.5q-15 -41 -49 -60.5t-96 -19.5zM193 483q44 50 61.5 90.5t19.5 83.5q5 43 -9 66.5t-55 23.5q-33 0 -47 -21.5t-14 -59.5q0 -40 12 -86.5t32 -96.5zM217 64q44 0 61 19t21 64
q-34 48 -67 100t-61 105q-9 -13 -16.5 -27.5t-9.5 -32.5q-5 -27 -7 -59.5t0 -93.5q2 -35 20 -55t59 -20z" />
    <glyph glyph-name="quotesingle" unicode="'" horiz-adv-x="177" 
d="M46 691v109h85v-109l-19 -117h-47z" />
    <glyph glyph-name="parenleft" unicode="(" horiz-adv-x="268" 
d="M30 303q0 87 15.5 176.5t46.5 172t79 148.5h67q-57 -115 -87 -243.5t-30 -256.5q0 -127 30 -258.5t87 -241.5h-67q-45 63 -76.5 144t-48 172.5t-16.5 186.5z" />
    <glyph glyph-name="parenright" unicode=")" horiz-adv-x="259" 
d="M229 303q0 87 -15.5 176.5t-46.5 172t-79 148.5h-67q57 -115 87 -243.5t30 -256.5q0 -127 -30 -258.5t-87 -241.5h67q45 63 76.5 144t48 172.5t16.5 186.5z" />
    <glyph glyph-name="asterisk" unicode="*" horiz-adv-x="310" 
d="M46 660l77 36l-77 36l21 36l71 -44l-4 80h42l-5 -80l72 44l21 -36l-76 -36l76 -36l-21 -36l-72 45l5 -81h-42l4 80l-71 -44z" />
    <glyph glyph-name="plus" unicode="+" horiz-adv-x="477" 
d="M202 197v148h-146v70h146v148h73v-148h146v-70h-146v-148h-73z" />
    <glyph glyph-name="comma" unicode="," horiz-adv-x="239" 
d="M46 0v104h147v-94l-63 -123h-58l51 113h-77z" />
    <glyph glyph-name="hyphen" unicode="-" horiz-adv-x="371" 
d="M30 336v80h311v-80h-311z" />
    <glyph glyph-name="period" unicode="." horiz-adv-x="239" 
d="M46 0v102h147v-102h-147z" />
    <glyph glyph-name="slash" unicode="/" horiz-adv-x="368" 
d="M30 -200l219 1000h89l-219 -1000h-89z" />
    <glyph glyph-name="zero" unicode="0" horiz-adv-x="431" 
d="M215 -8q-76 0 -118.5 38t-43.5 110q-3 152 -2.5 277t2.5 243q1 71 43 109.5t119 38.5q76 0 118.5 -38.5t43.5 -109.5q2 -80 2.5 -168.5t0 -178t-2.5 -173.5q-2 -73 -44.5 -110.5t-117.5 -37.5zM215 66q70 0 72 59q5 149 4.5 285.5t-4.5 264.5q-1 59 -72 59t-72 -59
q-2 -86 -3 -155t-1 -131t1 -125.5t3 -137.5q1 -60 72 -60z" />
    <glyph glyph-name="one" unicode="1" horiz-adv-x="236" 
d="M93 0v711h-48l-4 34l69 55h75v-800h-92z" />
    <glyph glyph-name="two" unicode="2" horiz-adv-x="438" 
d="M54 0q0 23 -0.5 35.5t-0.5 24v32.5v61q2 96 35.5 150.5t90.5 86.5l58 35q37 21 46 50t11 58q2 33 2 69.5t-2 69.5q-3 62 -79 62q-38 0 -55.5 -16t-17.5 -43q-1 -36 -1.5 -76.5t1.5 -81.5h-88q-1 44 -2 75.5t0 65.5q3 80 42 115t122 35q87 0 125.5 -35t42.5 -115
q1 -16 1 -40.5v-49t-1 -37.5q-4 -73 -33.5 -115.5t-82.5 -72.5l-62 -36q-34 -21 -48 -64.5t-14 -89.5v-74h237v-79h-327z" />
    <glyph glyph-name="three" unicode="3" horiz-adv-x="431" 
d="M212 -8q-87 0 -128.5 35t-44.5 115q-2 56 0 131h90v-141q0 -66 80 -66q73 0 75 65q1 51 1 94t-2 86q-1 34 -19.5 53.5t-65.5 18.5h-74l-3 75l152 263h-232v79h335l-1 -74l-155 -265q78 -3 114 -37.5t39 -115.5q1 -28 1.5 -60t0 -60.5t-1.5 -44.5q-4 -81 -41.5 -116
t-119.5 -35z" />
    <glyph glyph-name="four" unicode="4" horiz-adv-x="451" 
d="M235 0v234h-205v72l161 494h128v-488h81v-78h-81v-234h-84zM116 312h119l11 207l10 202h-23l-55 -202z" />
    <glyph glyph-name="five" unicode="5" horiz-adv-x="442" 
d="M223 -8q-89 0 -129 35.5t-42 114.5q-1 40 -1 70t1 61h90q-2 -19 -2.5 -45.5t0 -52.5t1.5 -42q2 -36 22.5 -51.5t56.5 -15.5q74 0 78 67q4 57 4.5 114.5t-3.5 107.5q-4 64 -71 64q-35 0 -57 -20t-23 -43h-85v444h318v-79h-229v-274h18q10 19 36 32.5t59 13.5
q61 0 90.5 -35.5t32.5 -98.5q3 -47 2.5 -106t-3.5 -109q-5 -81 -43 -116.5t-121 -35.5z" />
    <glyph glyph-name="six" unicode="6" horiz-adv-x="438" 
d="M216 -8q-86 0 -123.5 35t-39.5 115q-2 145 -2 276t2 240q3 77 44 113t118 36q78 0 120 -37t44 -108q2 -28 1.5 -57t-1.5 -60h-89q2 31 2 62.5t-2 65.5q-2 61 -75 61q-70 0 -72 -61q-1 -50 -2 -109t-2 -124h21q12 20 40 33t61 13q65 0 93.5 -30.5t30.5 -103.5
q1 -44 1.5 -75.5t0 -62.5t-2.5 -72q-3 -81 -42.5 -115.5t-125.5 -34.5zM216 65q38 0 58 14.5t20 47.5q1 45 2 78.5t1 66.5t-1 77q-1 33 -20.5 48t-50.5 15q-36 0 -60 -16t-26 -45q0 -104 3 -221q1 -35 20.5 -50t53.5 -15z" />
    <glyph glyph-name="seven" unicode="7" horiz-adv-x="393" 
d="M75 0l199 721h-243v79h332v-79l-196 -721h-92z" />
    <glyph glyph-name="eight" unicode="8" horiz-adv-x="429" 
d="M214 -8q-85 0 -122 36t-40 114q-1 38 -1 71t2 79q3 45 20.5 71.5t52.5 41.5v16q-58 20 -67 88q-4 40 -4.5 75.5t0.5 73.5q4 80 40.5 115t118.5 35q81 0 118.5 -35t41.5 -116q1 -37 0 -72t-4 -75q-4 -35 -22 -57.5t-46 -31.5v-17q33 -14 51 -40t22 -71q3 -44 3 -80t-2 -71
q-4 -80 -41 -115t-121 -35zM214 454q72 0 73 68q0 41 0.5 74t-0.5 72q-1 34 -18 50t-55 16q-36 0 -53 -15.5t-19 -49.5q-1 -40 -1 -73.5t1 -74.5q1 -36 19 -51.5t53 -15.5zM214 66q38 0 55 15.5t18 50.5q0 40 0.5 81t-0.5 89q-2 68 -73 68q-37 0 -54 -16.5t-18 -51.5
q-1 -48 -1 -89t1 -81q1 -32 17.5 -49t54.5 -17z" />
    <glyph glyph-name="nine" unicode="9" horiz-adv-x="437" 
d="M225 -8q-84 0 -123 34.5t-40 114.5q-1 13 -1 33.5t0.5 42.5t0.5 37h90q-1 -30 -1.5 -63.5t0.5 -62.5q2 -63 73 -63q33 0 51 15t19 47q2 48 3 106t1 122h-17q-11 -20 -37.5 -33.5t-59.5 -13.5q-56 0 -93.5 32.5t-38.5 106.5q-1 36 -1 77v76.5t1 56.5q3 81 43 115.5
t126 34.5t123 -35t39 -115q2 -98 2.5 -180t0 -162.5t-2.5 -173.5q-1 -80 -39.5 -114.5t-118.5 -34.5zM215 383q78 0 83 56q-1 61 -1.5 120.5t-2.5 113.5q-1 32 -20.5 46.5t-53.5 14.5q-77 0 -78 -62q0 -12 -0.5 -42.5t-0.5 -67.5v-69.5v-47.5q1 -33 21.5 -47.5t52.5 -14.5z
" />
    <glyph glyph-name="colon" unicode=":" horiz-adv-x="239" 
d="M46 300v102h147v-102h-147zM46 0v102h147v-102h-147z" />
    <glyph glyph-name="semicolon" unicode=";" horiz-adv-x="239" 
d="M46 0v104h147v-94l-63 -123h-58l51 113h-77zM46 302v102h147v-102h-147z" />
    <glyph glyph-name="less" unicode="&#x3c;" horiz-adv-x="513" 
d="M454 265v73l-203 25l-123 9v22l123 9l203 27v73l-394 -63v-115z" />
    <glyph glyph-name="equal" unicode="=" horiz-adv-x="468" 
d="M51 414v71h366v-71h-366zM51 276v70h366v-70h-366z" />
    <glyph glyph-name="greater" unicode="&#x3e;" horiz-adv-x="496" 
d="M51 265v73l203 25l123 9v22l-123 9l-203 27v73l394 -63v-115z" />
    <glyph glyph-name="question" unicode="?" horiz-adv-x="422" 
d="M158 181l-3 107q-2 46 10.5 74.5t57.5 53.5l22 10q24 11 29.5 34.5t5.5 63.5v146q0 28 -17 43.5t-54 15.5q-64 0 -67 -60q-2 -33 -2 -71t1 -74h-94q-1 44 -1 70.5t1 59.5q3 82 40.5 118.5t120.5 36.5q90 0 129 -36.5t39 -118.5q0 -39 0.5 -63t0.5 -39v-29q-1 -62 -12 -94
t-30.5 -46.5t-45.5 -25.5l-22 -10q-22 -10 -26.5 -26.5t-6.5 -32.5l-4 -107h-72zM119 0v102h148v-102h-148z" />
    <glyph glyph-name="at" unicode="@" horiz-adv-x="574" 
d="M287 -129q-120 0 -176 38t-57 127q-2 92 -3 171.5t0 162.5t3 186q2 90 56.5 130.5t176.5 40.5q119 0 175.5 -40t58.5 -132q1 -80 1 -144.5t-0.5 -121.5t-1.5 -117q-1 -39 -26.5 -58t-72.5 -19q-50 0 -71 13.5t-26 31.5h-14q-11 -21 -24.5 -33.5t-39.5 -12.5
q-33 0 -51 21.5t-21 72.5q-2 31 -2.5 72t0 82.5t2.5 74.5q3 51 21 72.5t53 21.5q24 0 37 -11t24 -34h11v40h71v-332q0 -32 30 -32q26 0 28 32q1 78 2 171.5t-1 213.5q-2 57 -40 82.5t-123 25.5q-81 0 -120 -24.5t-41 -83.5q-3 -103 -3.5 -188t0.5 -166t3 -173
q2 -54 40 -77.5t121 -23.5q81 0 120 23.5t39 77.5q1 11 1 15.5t-1 18.5h71q0 -11 0.5 -16t-0.5 -16q-1 -88 -55.5 -125.5t-174.5 -37.5zM275 146q13 0 26 9.5t19 24.5v244q-6 17 -19 26t-26 9q-28 0 -29 -36q-3 -68 -3.5 -124t3.5 -115q1 -22 7.5 -30t21.5 -8z" />
    <glyph glyph-name="A" unicode="A" horiz-adv-x="416" 
d="M31 0l89 800h175l89 -800h-90l-20 219h-132l-20 -219h-91zM149 298h117l-15 170l-21 253h-44l-21 -253z" />
    <glyph glyph-name="B" unicode="B" horiz-adv-x="419" 
d="M57 0v800h157q83 0 120.5 -32.5t38.5 -107.5q0 -46 0.5 -79t-1.5 -65q-2 -44 -19 -69.5t-54 -35.5v-16q39 -11 56.5 -37t19.5 -70q2 -41 1.5 -74t-1.5 -74q-3 -75 -39.5 -107.5t-119.5 -32.5h-159zM145 443h75q35 0 49.5 17.5t15.5 57.5q1 39 1 72.5t-1 72.5
q-1 31 -17 44.5t-54 13.5h-69v-278zM145 80h71q38 0 54 14t17 47q1 39 1 72t-1 72q-1 44 -16 61t-53 17h-73v-283z" />
    <glyph glyph-name="C" unicode="C" horiz-adv-x="435" 
d="M223 -8q-85 0 -124 34t-40 112q-2 95 -2.5 178.5t0 166.5t2.5 179q1 76 40.5 110.5t122.5 34.5t122.5 -35t42.5 -111q2 -37 1.5 -70.5t-1.5 -71.5h-88q1 39 1 73t-1 73q-1 38 -18.5 52.5t-58.5 14.5q-40 0 -57 -14.5t-18 -52.5q-2 -76 -2.5 -140.5t-0.5 -125t0.5 -125
t2.5 -139.5q1 -39 18 -53.5t58 -14.5q42 0 60 14.5t20 53.5q1 33 1 67t-2 88h89q1 -45 1.5 -81t-1.5 -71q-3 -78 -42.5 -112t-125.5 -34z" />
    <glyph glyph-name="D" unicode="D" horiz-adv-x="434" 
d="M57 0v800h158q84 0 121 -33t39 -109q1 -92 1.5 -175t0 -166t-1.5 -175q-2 -76 -38 -109t-117 -33h-163zM145 79h75q36 0 51 13t16 43q2 98 2.5 181.5t0 167t-2.5 182.5q-1 29 -17 42t-55 13h-70v-642z" />
    <glyph glyph-name="E" unicode="E" horiz-adv-x="371" 
d="M57 0v800h278v-79h-190v-278h180v-79h-180v-285h190v-79h-278z" />
    <glyph glyph-name="F" unicode="F" horiz-adv-x="377" 
d="M57 0v800h283v-79h-195v-278h185v-79h-185v-364h-88z" />
    <glyph glyph-name="G" unicode="G" horiz-adv-x="429" 
d="M225 -7q-89 0 -126.5 33.5t-39.5 112.5q-5 261 0 519q3 80 40.5 114.5t124.5 34.5q85 0 122.5 -33.5t41.5 -111.5q2 -71 0 -142h-89q2 41 2 75t-2 75q-1 35 -16.5 48.5t-58.5 13.5q-44 0 -59.5 -13.5t-17.5 -48.5q-2 -98 -3 -184t0 -172t3 -183q2 -36 18 -49.5t60 -13.5
q45 0 61.5 13.5t18.5 49.5q2 67 0 133h-77v80h163q1 -61 1 -110.5t-1 -94.5q-3 -79 -41 -112.5t-125 -33.5z" />
    <glyph glyph-name="H" unicode="H" horiz-adv-x="435" 
d="M57 0v800h88v-357h145v357h88v-800h-88v364h-145v-364h-88z" />
    <glyph glyph-name="I" unicode="I" horiz-adv-x="202" 
d="M57 0v800h88v-800h-88z" />
    <glyph glyph-name="J" unicode="J" horiz-adv-x="368" 
d="M173 -7q-79 0 -114.5 33.5t-37.5 112.5q-2 76 0 151h84q-1 -39 -1 -79.5t1 -79.5q1 -35 16 -49t52 -14q41 0 56 14t15 49v669h89v-661q0 -79 -37 -112.5t-123 -33.5z" />
    <glyph glyph-name="K" unicode="K" horiz-adv-x="432" 
d="M57 0v800h92v-175l-8 -242h26l69 243l58 174h96l-121 -354l132 -446h-91l-98 342l-66 -162v-180h-89z" />
    <glyph glyph-name="L" unicode="L" horiz-adv-x="363" 
d="M57 0v800h88v-721h187v-79h-275z" />
    <glyph glyph-name="M" unicode="M" horiz-adv-x="683" 
d="M57 0v800h191l46 -325l33 -393h29l33 393l46 325h187l3 -800h-89v233l9 488h-44l-50 -491l-38 -227h-144l-36 227l-55 491h-42l12 -485v-236h-91z" />
    <glyph glyph-name="N" unicode="N" horiz-adv-x="521" 
d="M57 0v800h177l47 -254l69 -467h43l-12 431l-6 290h89v-800h-183l-50 284l-59 437h-44l11 -417l6 -304h-88z" />
    <glyph glyph-name="O" unicode="O" horiz-adv-x="444" 
d="M223 -7q-86 0 -124 34.5t-40 115.5q-1 97 -1.5 178t0 161.5t1.5 174.5q2 81 40 115.5t124 34.5q84 0 122 -34.5t40 -115.5q2 -95 3 -175t0 -161t-3 -178q-2 -81 -40 -115.5t-122 -34.5zM223 68q41 0 57 15t17 56q2 74 3 137.5t1 123.5t-1 123t-3 138q-1 40 -17 55.5
t-57 15.5q-42 0 -58.5 -15.5t-16.5 -55.5q-2 -73 -3 -136t-1 -122.5t1 -123.5t3 -140q0 -41 16.5 -56t58.5 -15z" />
    <glyph glyph-name="P" unicode="P" horiz-adv-x="401" 
d="M57 0v800h156q80 0 115.5 -32t38.5 -106q2 -64 2 -114.5t-2 -104.5q-3 -74 -39 -106t-115 -32h-68v-305h-88zM145 384h68q35 0 49.5 13t16.5 42q2 56 2 108.5t-2 118.5q-1 30 -16 42.5t-50 12.5h-68v-337z" />
    <glyph glyph-name="Q" unicode="Q" horiz-adv-x="445" 
d="M341 -121q-64 -4 -95.5 22.5t-36.5 91.5q-79 3 -113.5 37.5t-36.5 112.5q-1 97 -1.5 178t0 161.5t1.5 174.5q2 81 40 115.5t124 34.5q84 0 122 -34.5t40 -115.5q2 -95 3 -175t0 -161t-3 -178q-1 -61 -23 -94.5t-68 -45.5q-1 -31 10 -42.5t37 -8.5v-73zM223 68q41 0 57 15
t17 56q2 74 3 137.5t1 123.5t-1 123t-3 138q-1 40 -17 55.5t-57 15.5q-42 0 -58.5 -15.5t-16.5 -55.5q-2 -73 -3 -136t-1 -122.5t1 -123.5t3 -140q0 -41 16.5 -56t58.5 -15z" />
    <glyph glyph-name="R" unicode="R" horiz-adv-x="414" 
d="M57 0v800h157q79 0 115 -32t38 -106q3 -67 3 -117t-3 -106q-3 -96 -67 -123l82 -316h-93l-74 302h-70v-302h-88zM145 381h68q35 0 50 12.5t16 41.5q3 64 3 115.5t-3 115.5q-1 30 -15.5 42.5t-49.5 12.5h-69v-340z" />
    <glyph glyph-name="S" unicode="S" horiz-adv-x="442" 
d="M223 -7q-85 0 -123 33.5t-40 112.5q-2 40 -1.5 75t2.5 76h85q-2 -43 -2.5 -83t2.5 -81q1 -32 18.5 -45t57.5 -13q38 0 54.5 13t19.5 45q2 32 2 69.5t-2 69.5q-2 38 -16.5 57.5t-47.5 27.5l-61 15q-63 15 -87 53.5t-26 113.5q-1 31 -0.5 63.5t0.5 66.5q3 78 40.5 111.5
t123.5 33.5q82 0 119 -33.5t40 -111.5q1 -30 0.5 -66.5t-1.5 -75.5h-85q1 44 1.5 81t-1.5 73q-1 32 -18 45t-56 13q-38 0 -55 -13t-19 -45q-3 -37 -2.5 -71t2.5 -71q1 -41 12 -60.5t38 -26.5l56 -12q72 -17 100.5 -55.5t30.5 -112.5q2 -30 1.5 -63.5t-1.5 -62.5
q-3 -79 -40.5 -112.5t-120.5 -33.5z" />
    <glyph glyph-name="T" unicode="T" horiz-adv-x="398" 
d="M155 0v721h-124v79h336v-79h-124v-721h-88z" />
    <glyph glyph-name="U" unicode="U" horiz-adv-x="440" 
d="M220 -7q-86 0 -123.5 33.5t-38.5 110.5q-2 167 -2 331.5t2 331.5h88q-2 -167 -1.5 -335.5t1.5 -335.5q0 -32 17 -46t57 -14t57 14t17 46q0 167 1 335.5t-1 335.5h88q2 -167 2 -331.5t-2 -331.5q-1 -77 -38.5 -110.5t-123.5 -33.5z" />
    <glyph glyph-name="V" unicode="V" horiz-adv-x="421" 
d="M123 0l-92 800h92l47 -439l21 -282h40l21 282l47 439h91l-92 -800h-175z" />
    <glyph glyph-name="W" unicode="W" horiz-adv-x="689" 
d="M94 0l-57 800h89l18 -309l20 -412h40l23 412l38 304h158l38 -304l22 -412h40l21 412l19 309h89l-58 -800h-179l-25 257l-26 461h-39l-27 -461l-26 -257h-178z" />
    <glyph glyph-name="X" unicode="X" horiz-adv-x="409" 
d="M31 0l98 409l-94 391h87l43 -195l23 -160h34l23 158l42 197h87l-92 -393l96 -407h-86l-44 198l-26 168h-34l-26 -168l-44 -198h-87z" />
    <glyph glyph-name="Y" unicode="Y" horiz-adv-x="403" 
d="M157 0v275h-26l-100 525h91l36 -222l28 -229h30l28 229l37 222h90l-100 -525h-26v-275h-88z" />
    <glyph glyph-name="Z" unicode="Z" horiz-adv-x="362" 
d="M31 0v73l206 648h-194v79h288v-76l-210 -645h192v-79h-282z" />
    <glyph glyph-name="bracketleft" unicode="[" horiz-adv-x="298" 
d="M51 -200v1000h217v-46h-126v-908h126v-46h-217z" />
    <glyph glyph-name="backslash" unicode="\" horiz-adv-x="337" 
d="M307 -200l-219 1000h-89l219 -1000h89z" />
    <glyph glyph-name="bracketright" unicode="]" horiz-adv-x="298" 
d="M247 -200v1000h-217v-46h126v-908h-126v-46h217z" />
    <glyph glyph-name="asciicircum" unicode="^" horiz-adv-x="401" 
d="M51 458l115 232h68l116 -232h-65l-85 171l-84 -171h-65z" />
    <glyph glyph-name="underscore" unicode="_" horiz-adv-x="676" 
d="M30 -60v20h616v-20h-616z" />
    <glyph glyph-name="grave" unicode="`" horiz-adv-x="257" 
d="M51 773h65l90 -120h-65z" />
    <glyph glyph-name="a" unicode="a" horiz-adv-x="401" 
d="M153 -7q-58 0 -87 29.5t-34 92.5q-1 12 -1 24.5v24.5q4 55 30.5 92t94.5 68q24 12 51 22.5t55 19.5v113q0 32 -15.5 46t-49.5 14q-30 0 -47 -12t-19 -43q0 -13 -0.5 -32.5t0 -37t0.5 -25.5h-85q-2 39 -1 84q3 70 37 102.5t118 32.5q85 0 117 -34.5t32 -112.5l-1 -461h-88
v57h-13q-14 -31 -34.5 -47.5t-59.5 -16.5zM182 59q56 0 78 54l1 185q-21 -7 -41.5 -15.5t-45.5 -23.5q-33 -18 -43 -42t-11 -54v-23t1 -19q2 -29 18 -45.5t43 -16.5z" />
    <glyph glyph-name="b" unicode="b" horiz-adv-x="418" 
d="M375 476q1 -47 2 -110t0.5 -127t-2.5 -115q-3 -70 -32.5 -101t-85.5 -31q-41 0 -63 16t-40 49h-13v-57h-90v800h90v-257h18q18 33 40 49t64 16q54 0 82 -30.5t30 -101.5zM285 117q4 91 4 177t-3 188q-1 30 -14 44.5t-43 14.5q-32 0 -54.5 -14.5t-33.5 -42.5v-368
q11 -30 35 -43.5t53 -13.5q30 0 42.5 14t13.5 44z" />
    <glyph glyph-name="c" unicode="c" horiz-adv-x="406" 
d="M53 129q-1 45 -2 106.5t-0.5 124t2.5 110.5q4 74 40.5 106t116.5 32t116.5 -31.5t38.5 -103.5v-43.5t-1 -40.5h-88q1 22 1 48v45q-1 32 -16 45t-51 13t-51.5 -13t-15.5 -45q-3 -93 -3 -180.5t3 -181.5q0 -33 16 -46.5t52 -13.5q35 0 50 13.5t16 46.5v41.5t-1 51.5h88
q1 -17 1 -42v-42q-4 -73 -39.5 -105t-114.5 -32q-83 0 -118.5 32t-39.5 105z" />
    <glyph glyph-name="d" unicode="d" horiz-adv-x="418" 
d="M277 800h90v-800h-90v57h-16q-18 -32 -41 -48.5t-63 -16.5q-57 0 -84 31t-30 101q-2 52 -2.5 115.5t0 126t2.5 110.5q2 72 31.5 102t84.5 30q40 0 62.5 -16t40.5 -49h15v257zM189 59q29 0 53 13.5t35 43.5v368q-11 30 -34.5 43.5t-52.5 13.5q-30 0 -43 -13.5t-14 -43.5
q-2 -60 -3 -125.5t-0.5 -127t2.5 -111.5q1 -34 15 -47.5t42 -13.5z" />
    <glyph glyph-name="e" unicode="e" horiz-adv-x="407" 
d="M276 213h88q1 -16 1.5 -42t-0.5 -42q-4 -73 -38.5 -105t-114.5 -32q-84 0 -119.5 32.5t-39.5 104.5q-1 46 -2 107.5t-0.5 123.5t2.5 110q4 74 41 106t117 32t115 -32t39 -103q0 -11 0.5 -42.5t0 -71.5t-1.5 -76h-224q0 -40 1 -81l2 -82q0 -34 16 -46.5t52 -12.5
q35 0 49.5 13t16.5 46v40t-1 53zM211 539q-38 0 -53 -14t-15 -43q-1 -33 -1.5 -65.5t-0.5 -67.5h136q1 42 1 80.5t-1 52.5q-3 32 -18.5 44.5t-47.5 12.5z" />
    <glyph glyph-name="f" unicode="f" horiz-adv-x="320" 
d="M86 0l-1 531h-55v69h55v72q0 73 37 105t118 32q15 0 34.5 -2t35.5 -5v-66q-15 1 -32.5 1.5t-36.5 0.5q-34 0 -50.5 -12.5t-16.5 -46.5v-79h117v-69h-117l1 -531h-89z" />
    <glyph glyph-name="g" unicode="g" horiz-adv-x="436" 
d="M216 -173q-75 0 -119 22t-49 64q-1 6 -1.5 13t0.5 13q2 28 22 43.5t47 19.5v14q-54 13 -57 54q-1 6 -1 11t1 10q1 20 17 35.5t40 18.5v15q-32 14 -47 44t-18 77q-2 50 -2 94t2 95q5 74 41 106t117 32q107 0 137 -61h15q2 25 20.5 39t48.5 14v-69h-11q-25 0 -39.5 -16.5
t-14.5 -51.5q1 -53 1 -97t-2 -85q-4 -73 -39.5 -105.5t-115.5 -32.5q-4 0 -7.5 0.5t-6.5 0.5q-36 0 -50 -10t-14 -27v-5q0 -19 22 -25t68 -7q83 -3 125.5 -27t48.5 -79q2 -16 0 -32q-6 -60 -56 -82.5t-123 -22.5zM209 212q32 0 49.5 13t19.5 47q2 49 1.5 99t-2.5 109
q-1 32 -17 45.5t-51 13.5q-37 0 -54 -14t-18 -47q-1 -59 -1.5 -107t1.5 -98q2 -34 20 -47.5t52 -13.5zM218 -106q89 0 98 44q4 12 0 25q-8 37 -99 41q-46 2 -67 -9t-22 -35q-2 -11 0 -24q2 -22 23 -32t67 -10z" />
    <glyph glyph-name="h" unicode="h" horiz-adv-x="419" 
d="M51 0v800h90v-257h18q18 33 40 49t64 16q57 0 84 -31.5t28 -100.5l1 -476h-89l-1 483q-1 30 -14 44t-43 14q-66 0 -88 -57v-484h-90z" />
    <glyph glyph-name="i" unicode="i" horiz-adv-x="191" 
d="M40 716v84h111v-84h-111zM51 0v600h88v-600h-88z" />
    <glyph glyph-name="j" unicode="j" horiz-adv-x="195" 
d="M61 716v84h111v-84h-111zM-68 -201v67q13 -1 32.5 -1.5t38.5 -0.5q37 0 52.5 13t15.5 44v679h91v-670q-1 -73 -38.5 -105t-119.5 -32q-15 0 -35.5 1.5t-36.5 4.5z" />
    <glyph glyph-name="k" unicode="k" horiz-adv-x="404" 
d="M51 0v800h84v-155l-9 -303l11 -1l29 55l90 204h92l-118 -243l144 -357h-93l-106 266l-37 -66v-200h-87z" />
    <glyph glyph-name="l" unicode="l" horiz-adv-x="191" 
d="M51 0v800h88v-800h-88z" />
    <glyph glyph-name="m" unicode="m" horiz-adv-x="642" 
d="M51 0v600h89v-57h17q17 32 38 48.5t62 16.5q39 0 65 -16.5t37 -52.5h15q17 31 41.5 50t65.5 19q53 0 80.5 -31t28.5 -101v-476h-89v483q0 31 -14 44.5t-41 13.5q-55 0 -79 -55v-486h-89v483q-1 58 -55 58q-62 0 -83 -57v-484h-89z" />
    <glyph glyph-name="n" unicode="n" horiz-adv-x="429" 
d="M51 0v600h89v-57h19q17 32 41 48.5t63 16.5q57 0 85 -31.5t28 -100.5v-476h-88l-1 483q0 30 -14 44t-44 14q-28 0 -53.5 -15t-35.5 -42v-484h-89z" />
    <glyph glyph-name="o" unicode="o" horiz-adv-x="427" 
d="M214 -8q-86 0 -121 34.5t-39 113.5q-2 39 -2.5 96t0 117t2.5 107q4 80 39.5 114t120.5 34q86 0 120.5 -34.5t38.5 -113.5q2 -44 2.5 -100.5t0 -114t-2.5 -105.5q-4 -79 -39 -113.5t-120 -34.5zM214 60q39 0 54 15t16 46q4 90 4 178t-4 181q-1 32 -17 46t-53 14
q-38 0 -54.5 -15t-17.5 -47q-3 -78 -3 -171.5t3 -184.5q2 -33 18 -47.5t54 -14.5z" />
    <glyph glyph-name="p" unicode="p" horiz-adv-x="428" 
d="M51 -200v800h90v-57h15q18 33 40 49t64 16q55 0 83.5 -31t31.5 -101q1 -30 1.5 -77t0.5 -99t-0.5 -99t-1.5 -77q-3 -70 -33.5 -101t-85.5 -31q-35 0 -58 15t-42 50h-15v-257h-90zM224 59q59 0 61 58q3 78 4 138t-0.5 114t-3.5 115q-1 30 -14 43.5t-42 13.5
q-32 0 -54.5 -14.5t-33.5 -42.5v-368q12 -32 32 -44.5t51 -12.5z" />
    <glyph glyph-name="q" unicode="q" horiz-adv-x="429" 
d="M287 -200v257h-14q-19 -35 -42 -50t-57 -15q-57 0 -87.5 31t-33.5 101q-1 35 -1.5 81.5t-0.5 96.5t0.5 95.5t1.5 78.5q3 70 31 101t85 31q41 0 63 -16t39 -49h16v57h90v-800h-90zM204 59q32 0 52 12.5t31 44.5v368q-11 30 -34.5 43.5t-52.5 13.5q-28 0 -42.5 -13.5
t-15.5 -45.5q-2 -84 -2.5 -182t3.5 -183q1 -30 16.5 -44t44.5 -14z" />
    <glyph glyph-name="r" unicode="r" horiz-adv-x="308" 
d="M51 0v600h91v-61h18q9 35 30.5 49t58.5 14q10 0 20 -0.5t19 -1.5v-69h-38q-46 0 -72.5 -14.5t-35.5 -50.5v-466h-91z" />
    <glyph glyph-name="s" unicode="s" horiz-adv-x="395" 
d="M194 -8q-79 0 -111 32t-35 105q-1 23 -0.5 43.5t1.5 40.5h80q-2 -32 -1.5 -54.5t0.5 -38.5q1 -34 16.5 -47t49.5 -13q37 0 53.5 13.5t17.5 46.5q1 34 0 63q-1 32 -10 48.5t-36 24.5l-57 16q-61 17 -87.5 49t-27.5 98q-1 29 0 51q1 74 34.5 106t117.5 32q78 0 111 -31.5
t35 -104.5v-23.5t-0.5 -32t-1.5 -27.5h-82q1 23 1 50v43q-1 32 -14.5 45t-48.5 13q-36 0 -49.5 -12.5t-15.5 -45.5q0 -9 -0.5 -22.5t-0.5 -31.5q1 -34 9 -54.5t39 -28.5l54 -14q58 -15 86 -47.5t28 -97.5v-29.5t-1 -30.5q-2 -71 -36 -102.5t-118 -31.5z" />
    <glyph glyph-name="t" unicode="t" horiz-adv-x="333" 
d="M251 -8q-86 0 -121 31.5t-35 106.5l-1 401h-48v69h51v170h92l-3 -170h105v-69h-108l1 -411q0 -35 13.5 -47.5t54.5 -12.5q15 0 25.5 0.5t25.5 2.5v-66q-23 -5 -52 -5z" />
    <glyph glyph-name="u" unicode="u" horiz-adv-x="429" 
d="M169 -8q-56 0 -85.5 31t-29.5 102v475h89l1 -483q0 -30 13 -44t43 -14q28 0 53 15t35 42v484h90v-600h-90v57h-15q-18 -34 -44 -49.5t-60 -15.5z" />
    <glyph glyph-name="v" unicode="v" horiz-adv-x="392" 
d="M120 0l-90 600h92l40 -303l22 -230h22l23 230l41 303h92l-92 -600h-150z" />
    <glyph glyph-name="w" unicode="w" horiz-adv-x="621" 
d="M105 0l-74 600h90l31 -303l17 -230h20l18 230l31 301h146l30 -301l16 -230h21l18 230l31 303h89l-74 -600h-150l-23 231l-22 300h-20l-22 -299l-23 -232h-150z" />
    <glyph glyph-name="x" unicode="x" horiz-adv-x="379" 
d="M29 0l88 310l-86 290h88l34 -128l26 -125h22l28 125l33 128h89l-88 -291l90 -309h-89l-38 156l-25 123h-21l-24 -123l-39 -156h-88z" />
    <glyph glyph-name="y" unicode="y" horiz-adv-x="377" 
d="M113 0l-91 600h92l35 -287l26 -246h22l30 246l33 287h92l-101 -669q-7 -46 -23.5 -76t-50 -45t-91.5 -15q-32 0 -68 5v69q12 -2 31.5 -3.5t35.5 -1.5q42 0 57 13.5t20 47.5l10 75h-59z" />
    <glyph glyph-name="z" unicode="z" horiz-adv-x="346" 
d="M26 0v57l198 476l-194 -1v67l290 1v-59l-201 -474h196v-67h-289z" />
    <glyph glyph-name="braceleft" unicode="{" horiz-adv-x="334" 
d="M304 -201q-58 0 -103 17t-71 53.5t-26 94.5q0 15 1.5 47.5t3.5 69.5t3 67t1 39q0 41 -15.5 54t-42.5 13h-25v90h25q27 0 42.5 13t15.5 54q0 9 -1 39t-3 67t-3 70t-1 48q0 58 26 94.5t70.5 53.5t102.5 17v-47q-48 0 -79.5 -33.5t-31.5 -84.5q0 -13 1 -40.5t2.5 -59.5
t2.5 -59.5t1 -40.5q0 -51 -20 -85.5t-61 -41.5v-17q41 -7 61 -42t20 -85q0 -13 -1 -40.5t-2.5 -59t-2.5 -59.5t-1 -41q0 -51 31.5 -84.5t79.5 -33.5v-47z" />
    <glyph glyph-name="bar" unicode="|" horiz-adv-x="195" 
d="M51 -200v1000h93v-1000h-93z" />
    <glyph glyph-name="braceright" unicode="}" horiz-adv-x="334" 
d="M30 -201q58 0 103 17t71 53.5t26 94.5q0 15 -1.5 47.5t-3.5 69.5t-3 67t-1 39q0 41 15.5 54t42.5 13h25v90h-25q-27 0 -42.5 13t-15.5 54q0 9 1 39t3 67t3 70t1 48q0 58 -26 94.5t-70.5 53.5t-102.5 17v-47q48 0 79.5 -33.5t31.5 -84.5q0 -13 -1 -40.5t-2.5 -59.5
t-2.5 -59.5t-1 -40.5q0 -51 20 -85.5t61 -41.5v-17q-41 -7 -61 -42t-20 -85q0 -13 1 -40.5t2.5 -59t2.5 -59.5t1 -41q0 -51 -31.5 -84.5t-79.5 -33.5v-47z" />
    <glyph glyph-name="asciitilde" unicode="~" horiz-adv-x="488" 
d="M51 327q4 68 40 100.5t89 27.5q28 -3 47 -12.5t33 -21t28 -20.5t31 -11q27 -2 43.5 13t16.5 43h57q-1 -65 -34.5 -97t-85.5 -29q-35 3 -57 18t-41 30t-44 18q-28 4 -45.5 -12t-19.5 -47h-58z" />
    <glyph glyph-name="uni00A0" unicode="&#xa0;" horiz-adv-x="209" 
 />
    <glyph glyph-name="exclamdown" unicode="&#xa1;" horiz-adv-x="239" 
d="M86 434l-12 -297v-337h91v337l-12 297h-67zM46 600v-102h147v102h-147z" />
    <glyph glyph-name="cent" unicode="&#xa2;" horiz-adv-x="414" 
d="M175 0v95q-59 7 -86 39t-30 95q-1 34 -1.5 82.5t-0.5 99t0.5 93.5t1.5 66q3 64 30.5 96t85.5 39v95h79v-95q60 -6 87.5 -37.5t29.5 -94.5v-42t-1 -42h-88q1 22 1 49v44q-1 32 -16 45t-51 13t-51 -13t-16 -45q-3 -93 -3 -180.5t3 -181.5q1 -33 16.5 -46.5t51.5 -13.5
q35 0 50 13.5t16 46.5v40t-1 53h88q1 -17 1 -42v-42q-3 -64 -30 -96t-87 -38v-95h-79z" />
    <glyph glyph-name="sterling" unicode="&#xa3;" horiz-adv-x="444" 
d="M64 0v76q32 22 44.5 76.5t12.5 131.5q0 27 -2 50.5t-6 44.5h-62v51h50q-13 49 -25 100.5t-12 128.5q1 71 38.5 109.5t120.5 38.5q84 0 121 -34.5t39 -114.5q1 -34 1 -65t-1 -77h-89q0 22 0.5 51.5t0.5 58t-1 47.5q0 32 -17.5 46.5t-53.5 14.5t-53 -14.5t-17 -46.5
q0 -70 15 -126t27 -117h99v-51h-91q2 -19 4 -39t2 -43q0 -76 -16 -126t-42 -77v-15h241v-79h-328z" />
    <glyph glyph-name="currency" unicode="&#xa4;" horiz-adv-x="510" 
d="M96 25l-43 34l65 83q-21 33 -24 94q-1 39 -2 96t-0.5 116.5t2.5 106.5q4 62 24 95l-67 83l42 34l64 -81q35 17 97 17t96 -17l65 80l41 -35l-66 -80q11 -18 16.5 -41.5t6.5 -54.5q2 -43 3 -99.5t0.5 -114.5t-3.5 -105q-3 -62 -23 -95l64 -82l-42 -34l-62 80
q-34 -17 -96 -17t-97 18zM254 156q39 0 54.5 14.5t16.5 46.5q3 90 3.5 177.5t-3.5 180.5q-1 32 -17 46t-54 14t-54 -14.5t-17 -47.5q-4 -77 -4 -170.5t4 -184.5q1 -33 17 -47.5t54 -14.5z" />
    <glyph glyph-name="yen" unicode="&#xa5;" horiz-adv-x="402" 
d="M245 275v-37h76v-51h-76v-43h76v-51h-76v-93h-88v93h-75v51h75v43h-75v51h75v37h-24l-102 525h91l39 -222l25 -229h30l25 229l39 222h91l-102 -525h-24z" />
    <glyph glyph-name="brokenbar" unicode="&#xa6;" horiz-adv-x="195" 
d="M51 800h93v-372h-93v372zM51 -200v388h93v-388h-93z" />
    <glyph glyph-name="section" unicode="&#xa7;" horiz-adv-x="409" 
d="M201 -208q-80 0 -111.5 27.5t-34.5 100.5q-1 20 -1 46.5t2 46.5h80q-1 -21 -1.5 -35t-0.5 -27.5t1 -33.5q2 -32 17 -44.5t49 -12.5q38 0 53.5 13t16.5 47q1 22 1 41.5v40.5q-1 33 -9 50.5t-37 23.5l-48 12q-53 12 -88 39t-37 85q-3 73 0 154q1 40 18 64.5t43 36.5v19
q-29 11 -44 32t-18 68q-1 21 -0.5 44t1.5 46q4 50 18 77t45.5 38t88.5 11q79 0 111.5 -31t34.5 -103q0 -18 0.5 -41.5t-1.5 -48.5h-83q2 24 2 53.5t-1 44.5q-1 34 -15 43.5t-48 9.5q-37 0 -49 -10t-15 -42q-1 -19 -2 -46t1 -46q1 -33 8 -50.5t39 -24.5l54 -12
q52 -11 81.5 -44.5t32.5 -89.5q3 -44 2.5 -76.5t-2.5 -75.5q-5 -70 -61 -92v-15q31 -12 46.5 -39t15.5 -66q1 -18 0.5 -40.5t-1.5 -39.5q-4 -47 -19 -75t-47.5 -40.5t-87.5 -12.5zM208 154q37 0 50 18t15 41q2 21 3 49.5t0.5 56.5t-2.5 47q-2 23 -15.5 41t-50.5 18
t-53 -17.5t-17 -40.5q-3 -37 -2.5 -77.5t2.5 -76.5q3 -25 18 -42t52 -17z" />
    <glyph glyph-name="dieresis" unicode="&#xa8;" horiz-adv-x="320" 
d="M180 663v81h89v-81h-89zM51 663v81h89v-81h-89z" />
    <glyph glyph-name="copyright" unicode="&#xa9;" horiz-adv-x="646" 
d="M323 -5q-137 0 -204.5 75t-67.5 230t67.5 230t204.5 75t204.5 -75t67.5 -230t-67 -230t-205 -75zM323 41q111 0 165.5 63.5t54.5 195.5q0 131 -54.5 195t-165.5 64q-112 0 -165.5 -63.5t-53.5 -195.5t53.5 -195.5t165.5 -63.5zM215 196q-1 27 -1 63.5t0.5 73.5t0.5 67
q2 54 27.5 78t82.5 24t81.5 -23.5t26.5 -76.5q1 -18 -1 -37h-57q1 11 1 22v20q0 28 -12 38.5t-39 10.5t-39 -10.5t-13 -38.5q-1 -34 -1 -73.5t0.5 -77.5t0.5 -66q1 -28 13.5 -38.5t38.5 -10.5q27 0 38.5 10.5t12.5 38.5v19.5t-1 26.5h57q1 -14 1.5 -22t-0.5 -19
q-3 -53 -27 -76.5t-81 -23.5q-55 0 -81 22.5t-29 78.5z" />
    <glyph glyph-name="ordfeminine" unicode="&#xaa;" horiz-adv-x="361" 
d="M148 377q-47 0 -69 21t-27 67q-1 7 -1 16v18q3 39 24.5 65t77.5 48q17 6 39 13.5t46 13.5q0 19 -0.5 37.5t-1.5 37.5q0 20 -10 30t-42 10q-24 0 -36.5 -8.5t-15.5 -29.5v-18.5t0.5 -27t0.5 -19.5h-70q-1 8 -1.5 29.5t0.5 30.5q2 48 30 72.5t96 24.5q69 0 94 -25.5
t27 -83.5q0 -25 0.5 -67t0 -89t-0.5 -90.5v-70.5h-73q0 10 0.5 20.5t0.5 20.5h-12q-11 -22 -28.5 -34t-48.5 -12zM174 429q20 0 37.5 9t26.5 28q0 34 0.5 63.5t0.5 59.5q-18 -5 -35.5 -11t-35.5 -16q-27 -11 -35.5 -27t-9.5 -36v-14v-15q3 -21 16.5 -31t34.5 -10z" />
    <glyph glyph-name="guillemotleft" unicode="&#xab;" horiz-adv-x="373" 
d="M176 114l-155 154v87l155 155v-88l-110 -110l110 -111v-87zM321 114l-155 154v87l155 155v-88l-110 -110l110 -111v-87z" />
    <glyph glyph-name="logicalnot" unicode="&#xac;" horiz-adv-x="468" 
d="M345 254v159h-294v71h366v-230h-72z" />
    <glyph glyph-name="uni00AD" unicode="&#xad;" horiz-adv-x="362" 
d="M30 336v80h311v-80h-311z" />
    <glyph glyph-name="registered" unicode="&#xae;" horiz-adv-x="436" 
d="M219 510q-168 0 -168 178q0 180 168 180q165 0 165 -180q0 -178 -165 -178zM219 539q70 0 102.5 35.5t32.5 113.5q0 79 -32.5 114.5t-102.5 35.5q-72 0 -104.5 -35.5t-32.5 -114.5q0 -78 33 -113.5t104 -35.5zM170 588v212h51q25 0 39.5 -10t15.5 -37q1 -13 0 -29
q-1 -29 -28 -34v-6q26 -6 27 -35q1 -10 1.5 -31t-0.5 -30h-34q0 16 -0.5 34.5t-0.5 30.5q-1 20 -20 20h-17v-85h-34zM204 703h17q19 0 20 17t0 36q-1 15 -20 15h-17v-68z" />
    <glyph glyph-name="macron" unicode="&#xaf;" horiz-adv-x="413" 
d="M51 659v51h311v-51h-311z" />
    <glyph glyph-name="degree" unicode="&#xb0;" horiz-adv-x="342" 
d="M171 591q-30 0 -55 15t-40 40t-15 54q0 30 15 55t40 40t55 15t54.5 -15t39.5 -40t15 -55q0 -29 -15 -54t-39.5 -40t-54.5 -15zM100 700q0 -28 21 -48.5t50 -20.5t50 20.5t21 48.5q0 29 -21 49.5t-50 20.5t-50 -20.5t-21 -49.5z" />
    <glyph glyph-name="plusminus" unicode="&#xb1;" horiz-adv-x="488" 
d="M209 273v73h-158v68h158v89h70v-89h158v-68h-158v-73h-70zM51 169v57h386v-57h-386z" />
    <glyph glyph-name="uni00B2" unicode="&#xb2;" horiz-adv-x="295" 
d="M47 440q-1 27 -1 43t1 31q0 40 21.5 64.5t52.5 40.5l33 17q15 8 21 17.5t7 24.5q1 16 0.5 26t-0.5 24q-1 10 -8.5 17t-26.5 7q-34 0 -34 -24q-1 -16 -0.5 -33.5t1.5 -29.5h-66q-1 17 -1.5 27t0.5 28q4 84 100 84q100 0 102 -84q0 -11 0.5 -19.5t-0.5 -22.5
q-1 -36 -19.5 -56.5t-50.5 -35.5l-37 -17q-26 -14 -26 -48v-24h128v-57h-197z" />
    <glyph glyph-name="uni00B3" unicode="&#xb3;" horiz-adv-x="291" 
d="M142 436q-105 0 -106 80v19.5t1 24.5h66q-1 -11 -1 -23.5t1 -20.5q1 -28 36 -28q36 0 37 26v31v28q-2 29 -40 29h-45l-3 49l72 92h-120v57h201v-55l-77 -92q36 -3 57.5 -21.5t22.5 -57.5v-30v-28q-1 -39 -26 -59.5t-76 -20.5z" />
    <glyph glyph-name="acute" unicode="&#xb4;" horiz-adv-x="258" 
d="M52 643l86 120h69l-89 -120h-66z" />
    <glyph glyph-name="mu" unicode="&#xb5;" horiz-adv-x="440" 
d="M52 -200l-1 800h89l2 -483q0 -30 13.5 -44t42.5 -14q28 0 51.5 15t33.5 42v484h90v-496q0 -35 4 -62t12 -42h-90q-10 19 -14 57h-17q-17 -31 -39 -48t-55 -17q-20 0 -32 6v-198h-90z" />
    <glyph glyph-name="paragraph" unicode="&#xb6;" horiz-adv-x="509" 
d="M247 -100v498h-38q-77 0 -114.5 30.5t-42.5 117.5q-1 27 -1 59.5t1 46.5q5 84 41 116t116 32h249v-51h-50v-849h-62v849h-36v-849h-63z" />
    <glyph glyph-name="periodcentered" unicode="&#xb7;" horiz-adv-x="239" 
d="M46 354v99h147v-99h-147z" />
    <glyph glyph-name="cedilla" unicode="&#xb8;" horiz-adv-x="241" 
d="M117 -138q-13 0 -30 1t-31 4l9 34q21 -3 52 -2q28 0 28 16q0 11 -8 15.5t-20 4.5h-62l-4 4v68h47v-38h19q30 0 51 -12t21 -42q0 -52 -72 -53z" />
    <glyph glyph-name="uni00B9" unicode="&#xb9;" horiz-adv-x="205" 
d="M71 440v303h-48l-2 23l65 34h55v-360h-70z" />
    <glyph glyph-name="ordmasculine" unicode="&#xba;" horiz-adv-x="366" 
d="M182 377q-68 0 -96.5 24.5t-31.5 85.5q-1 15 -2 43t-1 61t0.5 62t2.5 45q5 58 31 84t96 26q73 0 101 -27t31 -83q1 -17 1.5 -46.5t0.5 -62.5t-0.5 -61t-1.5 -41q-3 -38 -15 -62.5t-39 -36t-77 -11.5zM184 430q30 0 43 9.5t13 31.5q3 52 3.5 89t-0.5 72.5t-3 81.5
q0 21 -13 30.5t-43 9.5q-29 0 -43 -9t-15 -31q-2 -47 -2.5 -84t0 -74t2.5 -85q1 -22 15 -31.5t43 -9.5z" />
    <glyph glyph-name="guillemotright" unicode="&#xbb;" horiz-adv-x="360" 
d="M184 114l155 154v87l-155 155v-88l110 -110l-110 -111v-87zM39 114l155 154v87l-155 155v-88l110 -110l-110 -111v-87z" />
    <glyph glyph-name="onequarter" unicode="&#xbc;" horiz-adv-x="573" 
d="M71 440v303h-48l-2 23l65 34h55v-360h-70zM13 0l419 800h64l-420 -800h-63zM437 0v93h-120v53l94 214h89v-211h43v-56h-43v-93h-63zM383 149h54l8 83l8 71h-14l-26 -71z" />
    <glyph glyph-name="onehalf" unicode="&#xbd;" horiz-adv-x="591" 
d="M71 440v303h-48l-2 23l65 34h55v-360h-70zM13 0l419 800h64l-420 -800h-63zM343 0q-1 27 -1 43t1 31q0 40 21.5 64.5t52.5 40.5l33 17q15 8 21 17.5t7 24.5q1 16 0.5 26t-0.5 24q-1 10 -8.5 17t-26.5 7q-34 0 -34 -24q-1 -16 -0.5 -33.5t1.5 -29.5h-66q-1 17 -1.5 27
t0.5 28q4 84 100 84q100 0 102 -84q0 -11 0.5 -19.5t-0.5 -22.5q-1 -36 -19.5 -56.5t-50.5 -35.5l-37 -17q-26 -14 -26 -48v-24h128v-57h-197z" />
    <glyph glyph-name="threequarters" unicode="&#xbe;" horiz-adv-x="658" 
d="M142 436q-105 0 -106 80v19.5t1 24.5h66q-1 -11 -1 -23.5t1 -20.5q1 -28 36 -28q36 0 37 26v31v28q-2 29 -40 29h-45l-3 49l72 92h-120v57h201v-55l-77 -92q36 -3 57.5 -21.5t22.5 -57.5v-30v-28q-1 -39 -26 -59.5t-76 -20.5zM99 0l419 800h64l-420 -800h-63zM522 0v93
h-120v53l94 214h89v-211h43v-56h-43v-93h-63zM468 149h54l8 83l8 71h-14l-26 -71z" />
    <glyph glyph-name="questiondown" unicode="&#xbf;" horiz-adv-x="422" 
d="M264 419l3 -107q2 -46 -10.5 -74.5t-57.5 -53.5l-22 -10q-24 -11 -29.5 -34.5t-5.5 -63.5v-146q0 -28 17 -43.5t54 -15.5q64 0 67 60q2 33 2 71t-1 74h94q1 -44 1 -70.5t-1 -59.5q-3 -82 -40.5 -118.5t-120.5 -36.5q-90 0 -129 36.5t-39 118.5q0 39 -0.5 63t-0.5 39v29
q1 62 12 94t30.5 46.5t45.5 25.5l22 10q22 10 26.5 26.5t6.5 32.5l4 107h72zM303 600v-102h-148v102h148z" />
    <glyph glyph-name="Agrave" unicode="&#xc0;" horiz-adv-x="416" 
d="M31 0l89 800h175l89 -800h-90l-20 219h-132l-20 -219h-91zM149 298h117l-15 170l-21 253h-44l-21 -253zM64 909v2h75l102 -68v-3h-64z" />
    <glyph glyph-name="Aacute" unicode="&#xc1;" horiz-adv-x="416" 
d="M31 0l89 800h175l89 -800h-90l-20 219h-132l-20 -219h-91zM149 298h117l-15 170l-21 253h-44l-21 -253zM184 840v3l102 68h75v-2l-113 -69h-64z" />
    <glyph glyph-name="Acircumflex" unicode="&#xc2;" horiz-adv-x="416" 
d="M31 0l89 800h175l89 -800h-90l-20 219h-132l-20 -219h-91zM149 298h117l-15 170l-21 253h-44l-21 -253zM78 835l93 76h67l93 -76h-70l-56 47l-56 -47h-71z" />
    <glyph glyph-name="Atilde" unicode="&#xc3;" horiz-adv-x="416" 
d="M31 0l89 800h175l89 -800h-90l-20 219h-132l-20 -219h-91zM149 298h117l-15 170l-21 253h-44l-21 -253zM76 843q3 38 26.5 56t61.5 13q24 -2 38 -9.5t26.5 -14.5t29.5 -7q39 -3 39 31h41q-1 -80 -81 -74q-24 1 -39.5 8t-28.5 14.5t-29 9.5q-39 7 -42 -27h-42z" />
    <glyph glyph-name="Adieresis" unicode="&#xc4;" horiz-adv-x="416" 
d="M31 0l89 800h175l89 -800h-90l-20 219h-132l-20 -219h-91zM149 298h117l-15 170l-21 253h-44l-21 -253zM228 849v65h89v-65h-89zM99 849v65h89v-65h-89z" />
    <glyph glyph-name="Aring" unicode="&#xc5;" horiz-adv-x="416" 
d="M31 0l89 800h175l89 -800h-90l-20 219h-132l-20 -219h-91zM149 298h117l-15 170l-21 253h-44l-21 -253zM208 760q-35 0 -61 24t-26 58t25.5 58.5t61.5 24.5q35 0 60.5 -24.5t25.5 -58.5t-26 -58t-60 -24zM165 842q0 -16 12.5 -27.5t30.5 -11.5q17 0 29.5 11.5t12.5 27.5
q0 17 -13 28.5t-29 11.5q-17 0 -30 -11.5t-13 -28.5z" />
    <glyph glyph-name="AE" unicode="&#xc6;" horiz-adv-x="604" 
d="M567 721h-190v-278h180v-79h-180v-285h190v-79h-278v215h-123l-39 -215h-96l148 800h388v-79zM182 294h107v427h-41l-37 -273z" />
    <glyph glyph-name="Ccedilla" unicode="&#xc7;" horiz-adv-x="435" 
d="M223 -8q-85 0 -124 34t-40 112q-2 95 -2.5 178.5t0 166.5t2.5 179q1 76 40.5 110.5t122.5 34.5t122.5 -35t42.5 -111q2 -37 1.5 -70.5t-1.5 -71.5h-88q1 39 1 73t-1 73q-1 38 -18.5 52.5t-58.5 14.5q-40 0 -57 -14.5t-18 -52.5q-2 -76 -2.5 -140.5t-0.5 -125t0.5 -125
t2.5 -139.5q1 -39 18 -53.5t58 -14.5q42 0 60 14.5t20 53.5q1 33 1 67t-2 88h89q1 -45 1.5 -81t-1.5 -71q-3 -78 -42.5 -112t-125.5 -34zM265 -132q-13 0 -30 1t-31 4l9 34q21 -3 52 -2q28 0 28 16q0 11 -8 15.5t-20 4.5h-62l-4 4v68h47v-38h19q30 0 51 -12t21 -42
q0 -52 -72 -53z" />
    <glyph glyph-name="Egrave" unicode="&#xc8;" horiz-adv-x="371" 
d="M57 0v800h278v-79h-190v-278h180v-79h-180v-285h190v-79h-278zM51 908v2h75l102 -68v-3h-64z" />
    <glyph glyph-name="Eacute" unicode="&#xc9;" horiz-adv-x="371" 
d="M57 0v800h278v-79h-190v-278h180v-79h-180v-285h190v-79h-278zM170 839v3l102 68h75v-2l-113 -69h-64z" />
    <glyph glyph-name="Ecircumflex" unicode="&#xca;" horiz-adv-x="371" 
d="M57 0v800h278v-79h-190v-278h180v-79h-180v-285h190v-79h-278zM65 834l93 76h67l93 -76h-70l-56 47l-56 -47h-71z" />
    <glyph glyph-name="Edieresis" unicode="&#xcb;" horiz-adv-x="371" 
d="M57 0v800h278v-79h-190v-278h180v-79h-180v-285h190v-79h-278zM214 848v65h89v-65h-89zM85 848v65h89v-65h-89z" />
    <glyph glyph-name="Igrave" unicode="&#xcc;" horiz-adv-x="202" 
d="M57 0v800h88v-800h-88zM-42 909v2h75l102 -68v-3h-64z" />
    <glyph glyph-name="Iacute" unicode="&#xcd;" horiz-adv-x="202" 
d="M57 0v800h88v-800h-88zM77 840v3l102 68h75v-2l-113 -69h-64z" />
    <glyph glyph-name="Icircumflex" unicode="&#xce;" horiz-adv-x="202" 
d="M57 0v800h88v-800h-88zM-28 835l93 76h67l93 -76h-70l-56 47l-56 -47h-71z" />
    <glyph glyph-name="Idieresis" unicode="&#xcf;" horiz-adv-x="202" 
d="M57 0v800h88v-800h-88zM121 849v65h89v-65h-89zM-8 849v65h89v-65h-89z" />
    <glyph glyph-name="Eth" unicode="&#xd0;" horiz-adv-x="466" 
d="M89 0v425h-39v48h39v327h158q84 0 121 -33t39 -109q1 -92 1.5 -175t0 -166t-1.5 -175q-2 -76 -38 -109t-116 -33h-164zM177 79h76q35 0 50 13t16 43q2 98 2.5 181.5t0 167t-2.5 182.5q-1 29 -17 42t-55 13h-70v-248h53v-48h-53v-346z" />
    <glyph glyph-name="Ntilde" unicode="&#xd1;" horiz-adv-x="521" 
d="M57 0v800h177l47 -254l69 -467h43l-12 431l-6 290h89v-800h-183l-50 284l-59 437h-44l11 -417l6 -304h-88zM136 843q3 38 26.5 56t61.5 13q24 -2 38 -9.5t26.5 -14.5t29.5 -7q39 -3 39 31h41q-1 -80 -81 -74q-24 1 -39.5 8t-28.5 14.5t-29 9.5q-39 7 -42 -27h-42z" />
    <glyph glyph-name="Ograve" unicode="&#xd2;" horiz-adv-x="444" 
d="M223 -7q-86 0 -124 34.5t-40 115.5q-1 97 -1.5 178t0 161.5t1.5 174.5q2 81 40 115.5t124 34.5q84 0 122 -34.5t40 -115.5q2 -95 3 -175t0 -161t-3 -178q-2 -81 -40 -115.5t-122 -34.5zM223 68q41 0 57 15t17 56q2 74 3 137.5t1 123.5t-1 123t-3 138q-1 40 -17 55.5
t-57 15.5q-42 0 -58.5 -15.5t-16.5 -55.5q-2 -73 -3 -136t-1 -122.5t1 -123.5t3 -140q0 -41 16.5 -56t58.5 -15zM80 909v2h75l102 -68v-3h-64z" />
    <glyph glyph-name="Oacute" unicode="&#xd3;" horiz-adv-x="444" 
d="M223 -7q-86 0 -124 34.5t-40 115.5q-1 97 -1.5 178t0 161.5t1.5 174.5q2 81 40 115.5t124 34.5q84 0 122 -34.5t40 -115.5q2 -95 3 -175t0 -161t-3 -178q-2 -81 -40 -115.5t-122 -34.5zM223 68q41 0 57 15t17 56q2 74 3 137.5t1 123.5t-1 123t-3 138q-1 40 -17 55.5
t-57 15.5q-42 0 -58.5 -15.5t-16.5 -55.5q-2 -73 -3 -136t-1 -122.5t1 -123.5t3 -140q0 -41 16.5 -56t58.5 -15zM199 840v3l102 68h75v-2l-113 -69h-64z" />
    <glyph glyph-name="Ocircumflex" unicode="&#xd4;" horiz-adv-x="444" 
d="M223 -7q-86 0 -124 34.5t-40 115.5q-1 97 -1.5 178t0 161.5t1.5 174.5q2 81 40 115.5t124 34.5q84 0 122 -34.5t40 -115.5q2 -95 3 -175t0 -161t-3 -178q-2 -81 -40 -115.5t-122 -34.5zM223 68q41 0 57 15t17 56q2 74 3 137.5t1 123.5t-1 123t-3 138q-1 40 -17 55.5
t-57 15.5q-42 0 -58.5 -15.5t-16.5 -55.5q-2 -73 -3 -136t-1 -122.5t1 -123.5t3 -140q0 -41 16.5 -56t58.5 -15zM94 835l93 76h67l93 -76h-70l-56 47l-56 -47h-71z" />
    <glyph glyph-name="Otilde" unicode="&#xd5;" horiz-adv-x="444" 
d="M223 -7q-86 0 -124 34.5t-40 115.5q-1 97 -1.5 178t0 161.5t1.5 174.5q2 81 40 115.5t124 34.5q84 0 122 -34.5t40 -115.5q2 -95 3 -175t0 -161t-3 -178q-2 -81 -40 -115.5t-122 -34.5zM223 68q41 0 57 15t17 56q2 74 3 137.5t1 123.5t-1 123t-3 138q-1 40 -17 55.5
t-57 15.5q-42 0 -58.5 -15.5t-16.5 -55.5q-2 -73 -3 -136t-1 -122.5t1 -123.5t3 -140q0 -41 16.5 -56t58.5 -15zM91 843q3 38 26.5 56t61.5 13q24 -2 38 -9.5t26.5 -14.5t29.5 -7q39 -3 39 31h41q-1 -80 -81 -74q-24 1 -39.5 8t-28.5 14.5t-29 9.5q-39 7 -42 -27h-42z" />
    <glyph glyph-name="Odieresis" unicode="&#xd6;" horiz-adv-x="444" 
d="M223 -7q-86 0 -124 34.5t-40 115.5q-1 97 -1.5 178t0 161.5t1.5 174.5q2 81 40 115.5t124 34.5q84 0 122 -34.5t40 -115.5q2 -95 3 -175t0 -161t-3 -178q-2 -81 -40 -115.5t-122 -34.5zM223 68q41 0 57 15t17 56q2 74 3 137.5t1 123.5t-1 123t-3 138q-1 40 -17 55.5
t-57 15.5q-42 0 -58.5 -15.5t-16.5 -55.5q-2 -73 -3 -136t-1 -122.5t1 -123.5t3 -140q0 -41 16.5 -56t58.5 -15zM243 849v65h89v-65h-89zM114 849v65h89v-65h-89z" />
    <glyph glyph-name="multiply" unicode="&#xd7;" horiz-adv-x="429" 
d="M51 274l113 106l-113 105l50 48l114 -106l114 106l49 -48l-113 -105l113 -106l-49 -48l-114 107l-114 -107z" />
    <glyph glyph-name="Oslash" unicode="&#xd8;" horiz-adv-x="444" 
d="M223 -7q-86 0 -124 34.5t-40 115.5q-1 97 -1.5 178t0 161.5t1.5 174.5q2 81 40 115.5t124 34.5q84 0 122 -34.5t40 -115.5q2 -95 3 -175t0 -161t-3 -178q-2 -81 -40 -115.5t-122 -34.5zM148 661q-3 -81 -4 -149.5t-0.5 -135t1.5 -141.5l124 490q-16 7 -46 7
q-42 0 -58.5 -15.5t-16.5 -55.5zM223 68q41 0 57 15t17 56q2 82 3 151t1 135t-2 140l-123 -490q16 -7 47 -7z" />
    <glyph glyph-name="Ugrave" unicode="&#xd9;" horiz-adv-x="440" 
d="M220 -7q-86 0 -123.5 33.5t-38.5 110.5q-2 167 -2 331.5t2 331.5h88q-2 -167 -1.5 -335.5t1.5 -335.5q0 -32 17 -46t57 -14t57 14t17 46q0 167 1 335.5t-1 335.5h88q2 -167 2 -331.5t-2 -331.5q-1 -77 -38.5 -110.5t-123.5 -33.5zM77 909v2h75l102 -68v-3h-64z" />
    <glyph glyph-name="Uacute" unicode="&#xda;" horiz-adv-x="440" 
d="M220 -7q-86 0 -123.5 33.5t-38.5 110.5q-2 167 -2 331.5t2 331.5h88q-2 -167 -1.5 -335.5t1.5 -335.5q0 -32 17 -46t57 -14t57 14t17 46q0 167 1 335.5t-1 335.5h88q2 -167 2 -331.5t-2 -331.5q-1 -77 -38.5 -110.5t-123.5 -33.5zM196 840v3l102 68h75v-2l-113 -69h-64z
" />
    <glyph glyph-name="Ucircumflex" unicode="&#xdb;" horiz-adv-x="440" 
d="M220 -7q-86 0 -123.5 33.5t-38.5 110.5q-2 167 -2 331.5t2 331.5h88q-2 -167 -1.5 -335.5t1.5 -335.5q0 -32 17 -46t57 -14t57 14t17 46q0 167 1 335.5t-1 335.5h88q2 -167 2 -331.5t-2 -331.5q-1 -77 -38.5 -110.5t-123.5 -33.5zM91 835l93 76h67l93 -76h-70l-56 47
l-56 -47h-71z" />
    <glyph glyph-name="Udieresis" unicode="&#xdc;" horiz-adv-x="440" 
d="M220 -7q-86 0 -123.5 33.5t-38.5 110.5q-2 167 -2 331.5t2 331.5h88q-2 -167 -1.5 -335.5t1.5 -335.5q0 -32 17 -46t57 -14t57 14t17 46q0 167 1 335.5t-1 335.5h88q2 -167 2 -331.5t-2 -331.5q-1 -77 -38.5 -110.5t-123.5 -33.5zM240 849v65h89v-65h-89zM111 849v65h89
v-65h-89z" />
    <glyph glyph-name="Yacute" unicode="&#xdd;" horiz-adv-x="403" 
d="M157 0v275h-26l-100 525h91l36 -222l28 -229h30l28 229l37 222h90l-100 -525h-26v-275h-88zM178 840v3l102 68h75v-2l-113 -69h-64z" />
    <glyph glyph-name="Thorn" unicode="&#xde;" horiz-adv-x="384" 
d="M51 0v800h88v-142h63q80 0 115.5 -32.5t38.5 -105.5q1 -64 1.5 -115t-1.5 -105q-3 -73 -39 -105t-116 -32h-62v-163h-88zM139 242h62q36 0 50.5 13t15.5 42q3 61 3 113.5t-3 112.5q-1 30 -15.5 42.5t-49.5 12.5h-63v-336z" />
    <glyph glyph-name="germandbls" unicode="&#xdf;" horiz-adv-x="407" 
d="M376 283q1 -30 1 -68.5t-1 -67.5q-1 -84 -42.5 -115.5t-120.5 -31.5h-24v79h24q34 0 53 15.5t20 53.5q4 68 0 132q-1 50 -21 67t-56 17h-17v79h14q35 0 54.5 18.5t20.5 60.5q1 28 1 49v42.5t-2 49.5q-1 34 -17.5 48.5t-51.5 14.5q-40 0 -54.5 -16t-14.5 -46v-664h-91v652
q0 46 13.5 79t48.5 51t100 18q83 0 120 -34t37 -112q1 -37 1 -67.5t-1 -64.5q-2 -48 -20.5 -73.5t-52.5 -36.5v-17q39 -10 59 -36.5t20 -75.5z" />
    <glyph glyph-name="agrave" unicode="&#xe0;" horiz-adv-x="401" 
d="M153 -7q-58 0 -87 29.5t-34 92.5q-1 12 -1 24.5v24.5q4 55 30.5 92t94.5 68q24 12 51 22.5t55 19.5v113q0 32 -15.5 46t-49.5 14q-30 0 -47 -12t-19 -43q0 -13 -0.5 -32.5t0 -37t0.5 -25.5h-85q-2 39 -1 84q3 70 37 102.5t118 32.5q85 0 117 -34.5t32 -112.5l-1 -461h-88
v57h-13q-14 -31 -34.5 -47.5t-59.5 -16.5zM182 59q56 0 78 54l1 185q-21 -7 -41.5 -15.5t-45.5 -23.5q-33 -18 -43 -42t-11 -54v-23t1 -19q2 -29 18 -45.5t43 -16.5zM79 773h65l90 -120h-65z" />
    <glyph glyph-name="aacute" unicode="&#xe1;" horiz-adv-x="401" 
d="M153 -7q-58 0 -87 29.5t-34 92.5q-1 12 -1 24.5v24.5q4 55 30.5 92t94.5 68q24 12 51 22.5t55 19.5v113q0 32 -15.5 46t-49.5 14q-30 0 -47 -12t-19 -43q0 -13 -0.5 -32.5t0 -37t0.5 -25.5h-85q-2 39 -1 84q3 70 37 102.5t118 32.5q85 0 117 -34.5t32 -112.5l-1 -461h-88
v57h-13q-14 -31 -34.5 -47.5t-59.5 -16.5zM182 59q56 0 78 54l1 185q-21 -7 -41.5 -15.5t-45.5 -23.5q-33 -18 -43 -42t-11 -54v-23t1 -19q2 -29 18 -45.5t43 -16.5zM171 653l86 120h69l-89 -120h-66z" />
    <glyph glyph-name="acircumflex" unicode="&#xe2;" horiz-adv-x="401" 
d="M153 -7q-58 0 -87 29.5t-34 92.5q-1 12 -1 24.5v24.5q4 55 30.5 92t94.5 68q24 12 51 22.5t55 19.5v113q0 32 -15.5 46t-49.5 14q-30 0 -47 -12t-19 -43q0 -13 -0.5 -32.5t0 -37t0.5 -25.5h-85q-2 39 -1 84q3 70 37 102.5t118 32.5q85 0 117 -34.5t32 -112.5l-1 -461h-88
v57h-13q-14 -31 -34.5 -47.5t-59.5 -16.5zM182 59q56 0 78 54l1 185q-21 -7 -41.5 -15.5t-45.5 -23.5q-33 -18 -43 -42t-11 -54v-23t1 -19q2 -29 18 -45.5t43 -16.5zM91 643l78 120h58l77 -120h-62l-44 72l-44 -72h-63z" />
    <glyph glyph-name="atilde" unicode="&#xe3;" horiz-adv-x="401" 
d="M153 -7q-58 0 -87 29.5t-34 92.5q-1 12 -1 24.5v24.5q4 55 30.5 92t94.5 68q24 12 51 22.5t55 19.5v113q0 32 -15.5 46t-49.5 14q-30 0 -47 -12t-19 -43q0 -13 -0.5 -32.5t0 -37t0.5 -25.5h-85q-2 39 -1 84q3 70 37 102.5t118 32.5q85 0 117 -34.5t32 -112.5l-1 -461h-88
v57h-13q-14 -31 -34.5 -47.5t-59.5 -16.5zM182 59q56 0 78 54l1 185q-21 -7 -41.5 -15.5t-45.5 -23.5q-33 -18 -43 -42t-11 -54v-23t1 -19q2 -29 18 -45.5t43 -16.5zM64 657q4 47 29 67.5t61 17.5q25 -1 40.5 -11t29 -20t30.5 -11q18 -1 29.5 9t11.5 26h41
q-1 -43 -24.5 -63.5t-59.5 -19.5q-24 1 -40 10.5t-30 19.5t-31 12q-17 1 -30.5 -7.5t-16.5 -29.5h-40z" />
    <glyph glyph-name="adieresis" unicode="&#xe4;" horiz-adv-x="401" 
d="M153 -7q-58 0 -87 29.5t-34 92.5q-1 12 -1 24.5v24.5q4 55 30.5 92t94.5 68q24 12 51 22.5t55 19.5v113q0 32 -15.5 46t-49.5 14q-30 0 -47 -12t-19 -43q0 -13 -0.5 -32.5t0 -37t0.5 -25.5h-85q-2 39 -1 84q3 70 37 102.5t118 32.5q85 0 117 -34.5t32 -112.5l-1 -461h-88
v57h-13q-14 -31 -34.5 -47.5t-59.5 -16.5zM182 59q56 0 78 54l1 185q-21 -7 -41.5 -15.5t-45.5 -23.5q-33 -18 -43 -42t-11 -54v-23t1 -19q2 -29 18 -45.5t43 -16.5zM221 663v81h89v-81h-89zM92 663v81h89v-81h-89z" />
    <glyph glyph-name="aring" unicode="&#xe5;" horiz-adv-x="401" 
d="M153 -7q-58 0 -87 29.5t-34 92.5q-1 12 -1 24.5v24.5q4 55 30.5 92t94.5 68q24 12 51 22.5t55 19.5v113q0 32 -15.5 46t-49.5 14q-30 0 -47 -12t-19 -43q0 -13 -0.5 -32.5t0 -37t0.5 -25.5h-85q-2 39 -1 84q3 70 37 102.5t118 32.5q85 0 117 -34.5t32 -112.5l-1 -461h-88
v57h-13q-14 -31 -34.5 -47.5t-59.5 -16.5zM182 59q56 0 78 54l1 185q-21 -7 -41.5 -15.5t-45.5 -23.5q-33 -18 -43 -42t-11 -54v-23t1 -19q2 -29 18 -45.5t43 -16.5zM201 556q-32 0 -58.5 15t-42 40.5t-15.5 55.5t16 55.5t42 40.5t58 15q31 0 57 -15t42 -40.5t16 -55.5
t-16 -55.5t-42 -40.5t-57 -15zM139 667q0 -24 18.5 -41t43.5 -17q24 0 42.5 17t18.5 41t-18.5 40t-42.5 16q-25 0 -43.5 -16t-18.5 -40z" />
    <glyph glyph-name="ae" unicode="&#xe6;" horiz-adv-x="596" 
d="M145 -7q-105 0 -113 121q-1 13 -1 25v25q4 48 33 83t87 63q23 11 48.5 21.5t51.5 19.5v128q0 27 -11.5 43.5t-49.5 16.5q-29 0 -43 -12t-15 -45q-1 -15 -1.5 -45t1.5 -48h-87q-1 18 -1.5 41t0.5 45q3 69 37 101t113 32q36 0 61.5 -7.5t41.5 -20.5q36 28 108 28
q74 0 109.5 -31t39.5 -104q0 -11 0.5 -39.5t0 -66.5t-1.5 -78h-214v-169q0 -34 16 -46.5t50 -12.5t47 13.5t14 45.5q1 24 1 45.5t-1 47.5h87q1 -15 1 -41.5v-42.5q-4 -73 -38 -105t-110 -32q-110 0 -140 65h-9q-14 -32 -44 -48t-68 -16zM339 356h127q1 42 1 76t-1 50
q-2 31 -16 44t-45 13q-34 0 -50 -13t-16 -44v-126zM178 59q17 0 34 8t28.5 29t11.5 61q-1 26 -1 57.5v70.5q-18 -6 -38 -14.5t-42 -23.5q-49 -30 -51 -84q-1 -8 -1 -18.5t2 -24.5q6 -61 57 -61z" />
    <glyph glyph-name="ccedilla" unicode="&#xe7;" horiz-adv-x="406" 
d="M53 129q-1 45 -2 106.5t-0.5 124t2.5 110.5q4 74 40.5 106t116.5 32t116.5 -31.5t38.5 -103.5v-43.5t-1 -40.5h-88q1 22 1 48v45q-1 32 -16 45t-51 13t-51.5 -13t-15.5 -45q-3 -93 -3 -180.5t3 -181.5q0 -33 16 -46.5t52 -13.5q35 0 50 13.5t16 46.5v41.5t-1 51.5h88
q1 -17 1 -42v-42q-4 -73 -39.5 -105t-114.5 -32q-83 0 -118.5 32t-39.5 105zM250 -132q-13 0 -30 1t-31 4l9 34q21 -3 52 -2q28 0 28 16q0 11 -8 15.5t-20 4.5h-62l-4 4v68h47v-38h19q30 0 51 -12t21 -42q0 -52 -72 -53z" />
    <glyph glyph-name="egrave" unicode="&#xe8;" horiz-adv-x="407" 
d="M276 213h88q1 -16 1.5 -42t-0.5 -42q-4 -73 -38.5 -105t-114.5 -32q-84 0 -119.5 32.5t-39.5 104.5q-1 46 -2 107.5t-0.5 123.5t2.5 110q4 74 41 106t117 32t115 -32t39 -103q0 -11 0.5 -42.5t0 -71.5t-1.5 -76h-224q0 -40 1 -81l2 -82q0 -34 16 -46.5t52 -12.5
q35 0 49.5 13t16.5 46v40t-1 53zM211 539q-38 0 -53 -14t-15 -43q-1 -33 -1.5 -65.5t-0.5 -67.5h136q1 42 1 80.5t-1 52.5q-3 32 -18.5 44.5t-47.5 12.5zM87 773h65l90 -120h-65z" />
    <glyph glyph-name="eacute" unicode="&#xe9;" horiz-adv-x="407" 
d="M276 213h88q1 -16 1.5 -42t-0.5 -42q-4 -73 -38.5 -105t-114.5 -32q-84 0 -119.5 32.5t-39.5 104.5q-1 46 -2 107.5t-0.5 123.5t2.5 110q4 74 41 106t117 32t115 -32t39 -103q0 -11 0.5 -42.5t0 -71.5t-1.5 -76h-224q0 -40 1 -81l2 -82q0 -34 16 -46.5t52 -12.5
q35 0 49.5 13t16.5 46v40t-1 53zM211 539q-38 0 -53 -14t-15 -43q-1 -33 -1.5 -65.5t-0.5 -67.5h136q1 42 1 80.5t-1 52.5q-3 32 -18.5 44.5t-47.5 12.5zM179 653l86 120h69l-89 -120h-66z" />
    <glyph glyph-name="ecircumflex" unicode="&#xea;" horiz-adv-x="407" 
d="M276 213h88q1 -16 1.5 -42t-0.5 -42q-4 -73 -38.5 -105t-114.5 -32q-84 0 -119.5 32.5t-39.5 104.5q-1 46 -2 107.5t-0.5 123.5t2.5 110q4 74 41 106t117 32t115 -32t39 -103q0 -11 0.5 -42.5t0 -71.5t-1.5 -76h-224q0 -40 1 -81l2 -82q0 -34 16 -46.5t52 -12.5
q35 0 49.5 13t16.5 46v40t-1 53zM211 539q-38 0 -53 -14t-15 -43q-1 -33 -1.5 -65.5t-0.5 -67.5h136q1 42 1 80.5t-1 52.5q-3 32 -18.5 44.5t-47.5 12.5zM99 643l78 120h58l77 -120h-62l-44 72l-44 -72h-63z" />
    <glyph glyph-name="edieresis" unicode="&#xeb;" horiz-adv-x="407" 
d="M276 213h88q1 -16 1.5 -42t-0.5 -42q-4 -73 -38.5 -105t-114.5 -32q-84 0 -119.5 32.5t-39.5 104.5q-1 46 -2 107.5t-0.5 123.5t2.5 110q4 74 41 106t117 32t115 -32t39 -103q0 -11 0.5 -42.5t0 -71.5t-1.5 -76h-224q0 -40 1 -81l2 -82q0 -34 16 -46.5t52 -12.5
q35 0 49.5 13t16.5 46v40t-1 53zM211 539q-38 0 -53 -14t-15 -43q-1 -33 -1.5 -65.5t-0.5 -67.5h136q1 42 1 80.5t-1 52.5q-3 32 -18.5 44.5t-47.5 12.5zM229 663v81h89v-81h-89zM100 663v81h89v-81h-89z" />
    <glyph glyph-name="igrave" unicode="&#xec;" horiz-adv-x="191" 
d="M51 0v600h88v-600h-88zM-26 773h65l90 -120h-65z" />
    <glyph glyph-name="iacute" unicode="&#xed;" horiz-adv-x="191" 
d="M51 0v600h88v-600h-88zM66 653l86 120h69l-89 -120h-66z" />
    <glyph glyph-name="icircumflex" unicode="&#xee;" horiz-adv-x="191" 
d="M51 0v600h88v-600h-88zM-14 643l78 120h58l77 -120h-62l-44 72l-44 -72h-63z" />
    <glyph glyph-name="idieresis" unicode="&#xef;" horiz-adv-x="191" 
d="M51 0v600h88v-600h-88zM116 663v81h89v-81h-89zM-13 663v81h89v-81h-89z" />
    <glyph glyph-name="eth" unicode="&#xf0;" horiz-adv-x="418" 
d="M212 -8q-85 0 -123 34.5t-41 115.5q-3 52 -2.5 120t1.5 148q1 64 33.5 98.5t87.5 34.5q33 0 58 -12.5t36 -31.5h11q-14 62 -42 109l-73 -32l-23 45l64 28q-20 25 -43.5 45t-51.5 38l48 75q39 -25 71 -53t57 -61l78 35l23 -45l-71 -32q59 -103 63 -270v-120v-120
q-3 -80 -39.5 -114.5t-121.5 -34.5zM212 65q70 0 71 61q1 133 0.5 199.5t-0.5 90.5q-4 26 -25 40t-54 14q-66 0 -68 -63q-1 -47 -1 -97.5t1 -98t2 -84.5q0 -34 19 -48t55 -14z" />
    <glyph glyph-name="ntilde" unicode="&#xf1;" horiz-adv-x="429" 
d="M51 0v600h89v-57h19q17 32 41 48.5t63 16.5q57 0 85 -31.5t28 -100.5v-476h-88l-1 483q0 30 -14 44t-44 14q-28 0 -53.5 -15t-35.5 -42v-484h-89zM79 657q4 47 29 67.5t61 17.5q25 -1 40.5 -11t29 -20t30.5 -11q18 -1 29.5 9t11.5 26h41q-1 -43 -24.5 -63.5t-59.5 -19.5
q-24 1 -40 10.5t-30 19.5t-31 12q-17 1 -30.5 -7.5t-16.5 -29.5h-40z" />
    <glyph glyph-name="ograve" unicode="&#xf2;" horiz-adv-x="427" 
d="M214 -8q-86 0 -121 34.5t-39 113.5q-2 39 -2.5 96t0 117t2.5 107q4 80 39.5 114t120.5 34q86 0 120.5 -34.5t38.5 -113.5q2 -44 2.5 -100.5t0 -114t-2.5 -105.5q-4 -79 -39 -113.5t-120 -34.5zM214 60q39 0 54 15t16 46q4 90 4 178t-4 181q-1 32 -17 46t-53 14
q-38 0 -54.5 -15t-17.5 -47q-3 -78 -3 -171.5t3 -184.5q2 -33 18 -47.5t54 -14.5zM92 773h65l90 -120h-65z" />
    <glyph glyph-name="oacute" unicode="&#xf3;" horiz-adv-x="427" 
d="M214 -8q-86 0 -121 34.5t-39 113.5q-2 39 -2.5 96t0 117t2.5 107q4 80 39.5 114t120.5 34q86 0 120.5 -34.5t38.5 -113.5q2 -44 2.5 -100.5t0 -114t-2.5 -105.5q-4 -79 -39 -113.5t-120 -34.5zM214 60q39 0 54 15t16 46q4 90 4 178t-4 181q-1 32 -17 46t-53 14
q-38 0 -54.5 -15t-17.5 -47q-3 -78 -3 -171.5t3 -184.5q2 -33 18 -47.5t54 -14.5zM184 653l86 120h69l-89 -120h-66z" />
    <glyph glyph-name="ocircumflex" unicode="&#xf4;" horiz-adv-x="427" 
d="M214 -8q-86 0 -121 34.5t-39 113.5q-2 39 -2.5 96t0 117t2.5 107q4 80 39.5 114t120.5 34q86 0 120.5 -34.5t38.5 -113.5q2 -44 2.5 -100.5t0 -114t-2.5 -105.5q-4 -79 -39 -113.5t-120 -34.5zM214 60q39 0 54 15t16 46q4 90 4 178t-4 181q-1 32 -17 46t-53 14
q-38 0 -54.5 -15t-17.5 -47q-3 -78 -3 -171.5t3 -184.5q2 -33 18 -47.5t54 -14.5zM104 643l78 120h58l77 -120h-62l-44 72l-44 -72h-63z" />
    <glyph glyph-name="otilde" unicode="&#xf5;" horiz-adv-x="427" 
d="M214 -8q-86 0 -121 34.5t-39 113.5q-2 39 -2.5 96t0 117t2.5 107q4 80 39.5 114t120.5 34q86 0 120.5 -34.5t38.5 -113.5q2 -44 2.5 -100.5t0 -114t-2.5 -105.5q-4 -79 -39 -113.5t-120 -34.5zM214 60q39 0 54 15t16 46q4 90 4 178t-4 181q-1 32 -17 46t-53 14
q-38 0 -54.5 -15t-17.5 -47q-3 -78 -3 -171.5t3 -184.5q2 -33 18 -47.5t54 -14.5zM78 657q4 47 29 67.5t61 17.5q25 -1 40.5 -11t29 -20t30.5 -11q18 -1 29.5 9t11.5 26h41q-1 -43 -24.5 -63.5t-59.5 -19.5q-24 1 -40 10.5t-30 19.5t-31 12q-17 1 -30.5 -7.5t-16.5 -29.5
h-40z" />
    <glyph glyph-name="odieresis" unicode="&#xf6;" horiz-adv-x="427" 
d="M214 -8q-86 0 -121 34.5t-39 113.5q-2 39 -2.5 96t0 117t2.5 107q4 80 39.5 114t120.5 34q86 0 120.5 -34.5t38.5 -113.5q2 -44 2.5 -100.5t0 -114t-2.5 -105.5q-4 -79 -39 -113.5t-120 -34.5zM214 60q39 0 54 15t16 46q4 90 4 178t-4 181q-1 32 -17 46t-53 14
q-38 0 -54.5 -15t-17.5 -47q-3 -78 -3 -171.5t3 -184.5q2 -33 18 -47.5t54 -14.5zM234 663v81h89v-81h-89zM105 663v81h89v-81h-89z" />
    <glyph glyph-name="divide" unicode="&#xf7;" horiz-adv-x="498" 
d="M207 469v81h84v-81h-84zM51 345v70h395v-70h-395zM207 210v81h84v-81h-84z" />
    <glyph glyph-name="oslash" unicode="&#xf8;" horiz-adv-x="427" 
d="M214 -8q-86 0 -121 34.5t-39 113.5q-2 39 -2.5 96t0 117t2.5 107q4 80 39.5 114t120.5 34q86 0 120.5 -34.5t38.5 -113.5q2 -44 2.5 -100.5t0 -114t-2.5 -105.5q-4 -79 -39 -113.5t-120 -34.5zM142 478q-3 -71 -3.5 -156.5t2.5 -169.5l118 379q-16 9 -45 9
q-38 0 -54.5 -15t-17.5 -47zM214 60q39 0 54 15t16 46q3 80 3.5 158t-1.5 159l-116 -370q16 -8 44 -8z" />
    <glyph glyph-name="ugrave" unicode="&#xf9;" horiz-adv-x="429" 
d="M169 -8q-56 0 -85.5 31t-29.5 102v475h89l1 -483q0 -30 13 -44t43 -14q28 0 53 15t35 42v484h90v-600h-90v57h-15q-18 -34 -44 -49.5t-60 -15.5zM93 773h65l90 -120h-65z" />
    <glyph glyph-name="uacute" unicode="&#xfa;" horiz-adv-x="429" 
d="M169 -8q-56 0 -85.5 31t-29.5 102v475h89l1 -483q0 -30 13 -44t43 -14q28 0 53 15t35 42v484h90v-600h-90v57h-15q-18 -34 -44 -49.5t-60 -15.5zM185 653l86 120h69l-89 -120h-66z" />
    <glyph glyph-name="ucircumflex" unicode="&#xfb;" horiz-adv-x="429" 
d="M169 -8q-56 0 -85.5 31t-29.5 102v475h89l1 -483q0 -30 13 -44t43 -14q28 0 53 15t35 42v484h90v-600h-90v57h-15q-18 -34 -44 -49.5t-60 -15.5zM105 643l78 120h58l77 -120h-62l-44 72l-44 -72h-63z" />
    <glyph glyph-name="udieresis" unicode="&#xfc;" horiz-adv-x="429" 
d="M169 -8q-56 0 -85.5 31t-29.5 102v475h89l1 -483q0 -30 13 -44t43 -14q28 0 53 15t35 42v484h90v-600h-90v57h-15q-18 -34 -44 -49.5t-60 -15.5zM235 663v81h89v-81h-89zM106 663v81h89v-81h-89z" />
    <glyph glyph-name="yacute" unicode="&#xfd;" horiz-adv-x="377" 
d="M113 0l-91 600h92l35 -287l26 -246h22l30 246l33 287h92l-101 -669q-7 -46 -23.5 -76t-50 -45t-91.5 -15q-32 0 -68 5v69q12 -2 31.5 -3.5t35.5 -1.5q42 0 57 13.5t20 47.5l10 75h-59zM160 653l86 120h69l-89 -120h-66z" />
    <glyph glyph-name="thorn" unicode="&#xfe;" horiz-adv-x="428" 
d="M51 -200v1000h90v-257h15q18 33 40 49t64 16q55 0 83.5 -31t31.5 -101q1 -30 1.5 -77t0.5 -99t-0.5 -99t-1.5 -77q-3 -70 -33.5 -101t-85.5 -31q-35 0 -58 15t-42 50h-15v-257h-90zM224 59q59 0 61 58q3 75 4 134t0 114.5t-4 118.5q-1 30 -14 43.5t-42 13.5
q-32 0 -54.5 -14.5t-33.5 -42.5v-368q12 -32 32 -44.5t51 -12.5z" />
    <glyph glyph-name="ydieresis" unicode="&#xff;" horiz-adv-x="377" 
d="M113 0l-91 600h92l35 -287l26 -246h22l30 246l33 287h92l-101 -669q-7 -46 -23.5 -76t-50 -45t-91.5 -15q-32 0 -68 5v69q12 -2 31.5 -3.5t35.5 -1.5q42 0 57 13.5t20 47.5l10 75h-59zM210 663v81h89v-81h-89zM81 663v81h89v-81h-89z" />
    <glyph glyph-name="Amacron" unicode="&#x100;" horiz-adv-x="416" 
d="M31 0l89 800h175l89 -800h-90l-20 219h-132l-20 -219h-91zM149 298h117l-15 170l-21 253h-44l-21 -253zM62 842v47h290v-47h-290z" />
    <glyph glyph-name="amacron" unicode="&#x101;" horiz-adv-x="401" 
d="M153 -7q-58 0 -87 29.5t-34 92.5q-1 12 -1 24.5v24.5q4 55 30.5 92t94.5 68q24 12 51 22.5t55 19.5v113q0 32 -15.5 46t-49.5 14q-30 0 -47 -12t-19 -43q0 -13 -0.5 -32.5t0 -37t0.5 -25.5h-85q-2 39 -1 84q3 70 37 102.5t118 32.5q85 0 117 -34.5t32 -112.5l-1 -461h-88
v57h-13q-14 -31 -34.5 -47.5t-59.5 -16.5zM182 59q56 0 78 54l1 185q-21 -7 -41.5 -15.5t-45.5 -23.5q-33 -18 -43 -42t-11 -54v-23t1 -19q2 -29 18 -45.5t43 -16.5zM45 659v51h311v-51h-311z" />
    <glyph glyph-name="Abreve" unicode="&#x102;" horiz-adv-x="416" 
d="M31 0l89 800h175l89 -800h-90l-20 219h-132l-20 -219h-91zM149 298h117l-15 170l-21 253h-44l-21 -253zM83 919h60q0 -19 17.5 -30t47.5 -11t48 11t18 30h59q-2 -40 -36 -63.5t-89 -23.5q-54 0 -88 23.5t-37 63.5z" />
    <glyph glyph-name="abreve" unicode="&#x103;" horiz-adv-x="401" 
d="M153 -7q-58 0 -87 29.5t-34 92.5q-1 12 -1 24.5v24.5q4 55 30.5 92t94.5 68q24 12 51 22.5t55 19.5v113q0 32 -15.5 46t-49.5 14q-30 0 -47 -12t-19 -43q0 -13 -0.5 -32.5t0 -37t0.5 -25.5h-85q-2 39 -1 84q3 70 37 102.5t118 32.5q85 0 117 -34.5t32 -112.5l-1 -461h-88
v57h-13q-14 -31 -34.5 -47.5t-59.5 -16.5zM182 59q56 0 78 54l1 185q-21 -7 -41.5 -15.5t-45.5 -23.5q-33 -18 -43 -42t-11 -54v-23t1 -19q2 -29 18 -45.5t43 -16.5zM73 767h59q0 -37 15.5 -52.5t53.5 -15.5q37 0 52.5 15.5t16.5 52.5h58q-3 -63 -33 -90t-94 -27
q-65 0 -95 27t-33 90z" />
    <glyph glyph-name="Aogonek" unicode="&#x104;" horiz-adv-x="416" 
d="M31 0l89 800h175l89 -800h-90l-20 219h-132l-20 -219h-91zM149 298h117l-15 170l-21 253h-44l-21 -253zM246 -48q1 17 15 27t32 14l1 22h42l6 -12q-51 -20 -51 -45q0 -9 7.5 -15t26.5 -6q9 0 22.5 1.5l22.5 2.5l8 -34q-13 -3 -30 -4.5t-28 -1.5q-36 0 -56 13t-18 38z" />
    <glyph glyph-name="aogonek" unicode="&#x105;" horiz-adv-x="401" 
d="M153 -7q-58 0 -87 29.5t-34 92.5q-1 12 -1 24.5v24.5q4 55 30.5 92t94.5 68q24 12 51 22.5t55 19.5v113q0 32 -15.5 46t-49.5 14q-30 0 -47 -12t-19 -43q0 -13 -0.5 -32.5t0 -37t0.5 -25.5h-85q-2 39 -1 84q3 70 37 102.5t118 32.5q85 0 117 -34.5t32 -112.5l-1 -461h-88
v57h-13q-14 -31 -34.5 -47.5t-59.5 -16.5zM182 59q56 0 78 54l1 185q-21 -7 -41.5 -15.5t-45.5 -23.5q-33 -18 -43 -42t-11 -54v-23t1 -19q2 -29 18 -45.5t43 -16.5zM212 -51q1 17 15 27t32 14l1 22h42l6 -12q-51 -20 -51 -45q0 -9 7.5 -15t26.5 -6q9 0 22.5 1.5l22.5 2.5
l8 -34q-13 -3 -30 -4.5t-28 -1.5q-36 0 -56 13t-18 38z" />
    <glyph glyph-name="Cacute" unicode="&#x106;" horiz-adv-x="435" 
d="M223 -8q-85 0 -124 34t-40 112q-2 95 -2.5 178.5t0 166.5t2.5 179q1 76 40.5 110.5t122.5 34.5t122.5 -35t42.5 -111q2 -37 1.5 -70.5t-1.5 -71.5h-88q1 39 1 73t-1 73q-1 38 -18.5 52.5t-58.5 14.5q-40 0 -57 -14.5t-18 -52.5q-2 -76 -2.5 -140.5t-0.5 -125t0.5 -125
t2.5 -139.5q1 -39 18 -53.5t58 -14.5q42 0 60 14.5t20 53.5q1 33 1 67t-2 88h89q1 -45 1.5 -81t-1.5 -71q-3 -78 -42.5 -112t-125.5 -34zM197 840v3l102 68h75v-2l-113 -69h-64z" />
    <glyph glyph-name="cacute" unicode="&#x107;" horiz-adv-x="406" 
d="M53 129q-1 45 -2 106.5t-0.5 124t2.5 110.5q4 74 40.5 106t116.5 32t116.5 -31.5t38.5 -103.5v-43.5t-1 -40.5h-88q1 22 1 48v45q-1 32 -16 45t-51 13t-51.5 -13t-15.5 -45q-3 -93 -3 -180.5t3 -181.5q0 -33 16 -46.5t52 -13.5q35 0 50 13.5t16 46.5v41.5t-1 51.5h88
q1 -17 1 -42v-42q-4 -73 -39.5 -105t-114.5 -32q-83 0 -118.5 32t-39.5 105zM180 653l86 120h69l-89 -120h-66z" />
    <glyph glyph-name="Ccircumflex" unicode="&#x108;" horiz-adv-x="435" 
d="M223 -8q-85 0 -124 34t-40 112q-2 95 -2.5 178.5t0 166.5t2.5 179q1 76 40.5 110.5t122.5 34.5t122.5 -35t42.5 -111q2 -37 1.5 -70.5t-1.5 -71.5h-88q1 39 1 73t-1 73q-1 38 -18.5 52.5t-58.5 14.5q-40 0 -57 -14.5t-18 -52.5q-2 -76 -2.5 -140.5t-0.5 -125t0.5 -125
t2.5 -139.5q1 -39 18 -53.5t58 -14.5q42 0 60 14.5t20 53.5q1 33 1 67t-2 88h89q1 -45 1.5 -81t-1.5 -71q-3 -78 -42.5 -112t-125.5 -34zM91 835l93 76h67l93 -76h-70l-56 47l-56 -47h-71z" />
    <glyph glyph-name="ccircumflex" unicode="&#x109;" horiz-adv-x="406" 
d="M53 129q-1 45 -2 106.5t-0.5 124t2.5 110.5q4 74 40.5 106t116.5 32t116.5 -31.5t38.5 -103.5v-43.5t-1 -40.5h-88q1 22 1 48v45q-1 32 -16 45t-51 13t-51.5 -13t-15.5 -45q-3 -93 -3 -180.5t3 -181.5q0 -33 16 -46.5t52 -13.5q35 0 50 13.5t16 46.5v41.5t-1 51.5h88
q1 -17 1 -42v-42q-4 -73 -39.5 -105t-114.5 -32q-83 0 -118.5 32t-39.5 105zM101 643l78 120h58l77 -120h-62l-44 72l-44 -72h-63z" />
    <glyph glyph-name="Cdotaccent" unicode="&#x10a;" horiz-adv-x="435" 
d="M223 -8q-85 0 -124 34t-40 112q-2 95 -2.5 178.5t0 166.5t2.5 179q1 76 40.5 110.5t122.5 34.5t122.5 -35t42.5 -111q2 -37 1.5 -70.5t-1.5 -71.5h-88q1 39 1 73t-1 73q-1 38 -18.5 52.5t-58.5 14.5q-40 0 -57 -14.5t-18 -52.5q-2 -76 -2.5 -140.5t-0.5 -125t0.5 -125
t2.5 -139.5q1 -39 18 -53.5t58 -14.5q42 0 60 14.5t20 53.5q1 33 1 67t-2 88h89q1 -45 1.5 -81t-1.5 -71q-3 -78 -42.5 -112t-125.5 -34zM171 863v81h99v-81h-99z" />
    <glyph glyph-name="cdotaccent" unicode="&#x10b;" horiz-adv-x="406" 
d="M53 129q-1 45 -2 106.5t-0.5 124t2.5 110.5q4 74 40.5 106t116.5 32t116.5 -31.5t38.5 -103.5v-43.5t-1 -40.5h-88q1 22 1 48v45q-1 32 -16 45t-51 13t-51.5 -13t-15.5 -45q-3 -93 -3 -180.5t3 -181.5q0 -33 16 -46.5t52 -13.5q35 0 50 13.5t16 46.5v41.5t-1 51.5h88
q1 -17 1 -42v-42q-4 -73 -39.5 -105t-114.5 -32q-83 0 -118.5 32t-39.5 105zM160 663v81h99v-81h-99z" />
    <glyph glyph-name="Ccaron" unicode="&#x10c;" horiz-adv-x="435" 
d="M223 -8q-85 0 -124 34t-40 112q-2 95 -2.5 178.5t0 166.5t2.5 179q1 76 40.5 110.5t122.5 34.5t122.5 -35t42.5 -111q2 -37 1.5 -70.5t-1.5 -71.5h-88q1 39 1 73t-1 73q-1 38 -18.5 52.5t-58.5 14.5q-40 0 -57 -14.5t-18 -52.5q-2 -76 -2.5 -140.5t-0.5 -125t0.5 -125
t2.5 -139.5q1 -39 18 -53.5t58 -14.5q42 0 60 14.5t20 53.5q1 33 1 67t-2 88h89q1 -45 1.5 -81t-1.5 -71q-3 -78 -42.5 -112t-125.5 -34zM91 914h71l56 -47l56 47h70l-93 -75h-67z" />
    <glyph glyph-name="ccaron" unicode="&#x10d;" horiz-adv-x="406" 
d="M53 129q-1 45 -2 106.5t-0.5 124t2.5 110.5q4 74 40.5 106t116.5 32t116.5 -31.5t38.5 -103.5v-43.5t-1 -40.5h-88q1 22 1 48v45q-1 32 -16 45t-51 13t-51.5 -13t-15.5 -45q-3 -93 -3 -180.5t3 -181.5q0 -33 16 -46.5t52 -13.5q35 0 50 13.5t16 46.5v41.5t-1 51.5h88
q1 -17 1 -42v-42q-4 -73 -39.5 -105t-114.5 -32q-83 0 -118.5 32t-39.5 105zM103 773h62l45 -73l45 73h62l-77 -120h-59z" />
    <glyph glyph-name="Dcaron" unicode="&#x10e;" horiz-adv-x="434" 
d="M57 0v800h158q84 0 121 -33t39 -109q1 -92 1.5 -175t0 -166t-1.5 -175q-2 -76 -38 -109t-117 -33h-163zM145 79h75q36 0 51 13t16 43q2 98 2.5 181.5t0 167t-2.5 182.5q-1 29 -17 42t-55 13h-70v-642zM79 914h71l56 -47l56 47h70l-93 -75h-67z" />
    <glyph glyph-name="dcaron" unicode="&#x10f;" horiz-adv-x="418" 
d="M277 800h90v-800h-90v57h-16q-18 -32 -41 -48.5t-63 -16.5q-57 0 -84 31t-30 101q-2 52 -2.5 115.5t0 126t2.5 110.5q2 72 31.5 102t84.5 30q40 0 62.5 -16t40.5 -49h15v257zM189 59q29 0 53 13.5t35 43.5v368q-11 30 -34.5 43.5t-52.5 13.5q-30 0 -43 -13.5t-14 -43.5
q-2 -60 -3 -125.5t-0.5 -127t2.5 -111.5q1 -34 15 -47.5t42 -13.5zM47 773h62l45 -73l45 73h62l-77 -120h-59z" />
    <glyph glyph-name="Dcroat" unicode="&#x110;" horiz-adv-x="466" 
d="M89 0v425h-39v48h39v327h158q84 0 121 -33t39 -109q1 -92 1.5 -175t0 -166t-1.5 -175q-2 -76 -38 -109t-116 -33h-164zM177 79h76q35 0 50 13t16 43q2 98 2.5 181.5t0 167t-2.5 182.5q-1 29 -17 42t-55 13h-70v-248h53v-48h-53v-346z" />
    <glyph glyph-name="dcroat" unicode="&#x111;" horiz-adv-x="418" 
d="M213 719h64v81h90v-81h35v-43h-35v-676h-90v57h-16q-18 -32 -41 -48.5t-63 -16.5q-57 0 -84 31t-30 101q-2 52 -2.5 115.5t0 126t2.5 110.5q2 72 31.5 102t84.5 30q40 0 62.5 -16t40.5 -49h15v133h-64v43zM189 59q29 0 53 13.5t35 43.5v368q-11 30 -34.5 43.5t-52.5 13.5
q-30 0 -43 -13.5t-14 -43.5q-2 -60 -3 -125.5t-0.5 -127t2.5 -111.5q1 -34 15 -47.5t42 -13.5z" />
    <glyph glyph-name="Emacron" unicode="&#x112;" horiz-adv-x="371" 
d="M57 0v800h278v-79h-190v-278h180v-79h-180v-285h190v-79h-278zM49 841v47h290v-47h-290z" />
    <glyph glyph-name="emacron" unicode="&#x113;" horiz-adv-x="407" 
d="M276 213h88q1 -16 1.5 -42t-0.5 -42q-4 -73 -38.5 -105t-114.5 -32q-84 0 -119.5 32.5t-39.5 104.5q-1 46 -2 107.5t-0.5 123.5t2.5 110q4 74 41 106t117 32t115 -32t39 -103q0 -11 0.5 -42.5t0 -71.5t-1.5 -76h-224q0 -40 1 -81l2 -82q0 -34 16 -46.5t52 -12.5
q35 0 49.5 13t16.5 46v40t-1 53zM211 539q-38 0 -53 -14t-15 -43q-1 -33 -1.5 -65.5t-0.5 -67.5h136q1 42 1 80.5t-1 52.5q-3 32 -18.5 44.5t-47.5 12.5zM53 659v51h311v-51h-311z" />
    <glyph glyph-name="Ebreve" unicode="&#x114;" horiz-adv-x="371" 
d="M57 0v800h278v-79h-190v-278h180v-79h-180v-285h190v-79h-278zM69 918h60q0 -19 17.5 -30t47.5 -11t48 11t18 30h59q-2 -40 -36 -63.5t-89 -23.5q-54 0 -88 23.5t-37 63.5z" />
    <glyph glyph-name="ebreve" unicode="&#x115;" horiz-adv-x="407" 
d="M276 213h88q1 -16 1.5 -42t-0.5 -42q-4 -73 -38.5 -105t-114.5 -32q-84 0 -119.5 32.5t-39.5 104.5q-1 46 -2 107.5t-0.5 123.5t2.5 110q4 74 41 106t117 32t115 -32t39 -103q0 -11 0.5 -42.5t0 -71.5t-1.5 -76h-224q0 -40 1 -81l2 -82q0 -34 16 -46.5t52 -12.5
q35 0 49.5 13t16.5 46v40t-1 53zM211 539q-38 0 -53 -14t-15 -43q-1 -33 -1.5 -65.5t-0.5 -67.5h136q1 42 1 80.5t-1 52.5q-3 32 -18.5 44.5t-47.5 12.5zM81 767h59q0 -37 15.5 -52.5t53.5 -15.5q37 0 52.5 15.5t16.5 52.5h58q-3 -63 -33 -90t-94 -27q-65 0 -95 27t-33 90z
" />
    <glyph glyph-name="Edotaccent" unicode="&#x116;" horiz-adv-x="371" 
d="M57 0v800h278v-79h-190v-278h180v-79h-180v-285h190v-79h-278zM144 841v66h100v-66h-100z" />
    <glyph glyph-name="edotaccent" unicode="&#x117;" horiz-adv-x="407" 
d="M276 213h88q1 -16 1.5 -42t-0.5 -42q-4 -73 -38.5 -105t-114.5 -32q-84 0 -119.5 32.5t-39.5 104.5q-1 46 -2 107.5t-0.5 123.5t2.5 110q4 74 41 106t117 32t115 -32t39 -103q0 -11 0.5 -42.5t0 -71.5t-1.5 -76h-224q0 -40 1 -81l2 -82q0 -34 16 -46.5t52 -12.5
q35 0 49.5 13t16.5 46v40t-1 53zM211 539q-38 0 -53 -14t-15 -43q-1 -33 -1.5 -65.5t-0.5 -67.5h136q1 42 1 80.5t-1 52.5q-3 32 -18.5 44.5t-47.5 12.5zM159 663v81h99v-81h-99z" />
    <glyph glyph-name="Eogonek" unicode="&#x118;" horiz-adv-x="371" 
d="M57 0v800h278v-79h-190v-278h180v-79h-180v-285h190v-79h-278zM238 -51q1 17 15 27t32 14l1 22h42l6 -12q-51 -20 -51 -45q0 -9 7.5 -15t26.5 -6q9 0 22.5 1.5l22.5 2.5l8 -34q-13 -3 -30 -4.5t-28 -1.5q-36 0 -56 13t-18 38z" />
    <glyph glyph-name="eogonek" unicode="&#x119;" horiz-adv-x="407" 
d="M276 213h88q1 -16 1.5 -42t-0.5 -42q-4 -73 -38.5 -105t-114.5 -32q-84 0 -119.5 32.5t-39.5 104.5q-1 46 -2 107.5t-0.5 123.5t2.5 110q4 74 41 106t117 32t115 -32t39 -103q0 -11 0.5 -42.5t0 -71.5t-1.5 -76h-224q0 -40 1 -81l2 -82q0 -34 16 -46.5t52 -12.5
q35 0 49.5 13t16.5 46v40t-1 53zM211 539q-38 0 -53 -14t-15 -43q-1 -33 -1.5 -65.5t-0.5 -67.5h136q1 42 1 80.5t-1 52.5q-3 32 -18.5 44.5t-47.5 12.5zM234 -51q1 17 15 27t32 14l13 -11l-10 -12t-5 -13q0 -8 7.5 -14t25.5 -6q8 0 22.5 1.5t23.5 2.5l9 -39
q-13 -3 -30 -4.5t-28 -1.5q-37 0 -57 16t-18 40z" />
    <glyph glyph-name="Ecaron" unicode="&#x11a;" horiz-adv-x="371" 
d="M57 0v800h278v-79h-190v-278h180v-79h-180v-285h190v-79h-278zM65 913h71l56 -47l56 47h70l-93 -75h-67z" />
    <glyph glyph-name="ecaron" unicode="&#x11b;" horiz-adv-x="407" 
d="M276 213h88q1 -16 1.5 -42t-0.5 -42q-4 -73 -38.5 -105t-114.5 -32q-84 0 -119.5 32.5t-39.5 104.5q-1 46 -2 107.5t-0.5 123.5t2.5 110q4 74 41 106t117 32t115 -32t39 -103q0 -11 0.5 -42.5t0 -71.5t-1.5 -76h-224q0 -40 1 -81l2 -82q0 -34 16 -46.5t52 -12.5
q35 0 49.5 13t16.5 46v40t-1 53zM211 539q-38 0 -53 -14t-15 -43q-1 -33 -1.5 -65.5t-0.5 -67.5h136q1 42 1 80.5t-1 52.5q-3 32 -18.5 44.5t-47.5 12.5zM102 773h62l45 -73l45 73h62l-77 -120h-59z" />
    <glyph glyph-name="Gcircumflex" unicode="&#x11c;" horiz-adv-x="429" 
d="M225 -7q-89 0 -126.5 33.5t-39.5 112.5q-5 261 0 519q3 80 40.5 114.5t124.5 34.5q85 0 122.5 -33.5t41.5 -111.5q2 -71 0 -142h-89q2 41 2 75t-2 75q-1 35 -16.5 48.5t-58.5 13.5q-44 0 -59.5 -13.5t-17.5 -48.5q-2 -98 -3 -184t0 -172t3 -183q2 -36 18 -49.5t60 -13.5
q45 0 61.5 13.5t18.5 49.5q2 67 0 133h-77v80h163q1 -61 1 -110.5t-1 -94.5q-3 -79 -41 -112.5t-125 -33.5zM93 835l93 76h67l93 -76h-70l-56 47l-56 -47h-71z" />
    <glyph glyph-name="gcircumflex" unicode="&#x11d;" horiz-adv-x="436" 
d="M216 -173q-75 0 -119 22t-49 64q-1 6 -1.5 13t0.5 13q2 28 22 43.5t47 19.5v14q-54 13 -57 54q-1 6 -1 11t1 10q1 20 17 35.5t40 18.5v15q-32 14 -47 44t-18 77q-2 50 -2 94t2 95q5 74 41 106t117 32q107 0 137 -61h15q2 25 20.5 39t48.5 14v-69h-11q-25 0 -39.5 -16.5
t-14.5 -51.5q1 -53 1 -97t-2 -85q-4 -73 -39.5 -105.5t-115.5 -32.5q-4 0 -7.5 0.5t-6.5 0.5q-36 0 -50 -10t-14 -27v-5q0 -19 22 -25t68 -7q83 -3 125.5 -27t48.5 -79q2 -16 0 -32q-6 -60 -56 -82.5t-123 -22.5zM209 212q32 0 49.5 13t19.5 47q2 49 1.5 99t-2.5 109
q-1 32 -17 45.5t-51 13.5q-37 0 -54 -14t-18 -47q-1 -59 -1.5 -107t1.5 -98q2 -34 20 -47.5t52 -13.5zM218 -106q89 0 98 44q4 12 0 25q-8 37 -99 41q-46 2 -67 -9t-22 -35q-2 -11 0 -24q2 -22 23 -32t67 -10zM99 643l78 120h58l77 -120h-62l-44 72l-44 -72h-63z" />
    <glyph glyph-name="Gbreve" unicode="&#x11e;" horiz-adv-x="429" 
d="M225 -7q-89 0 -126.5 33.5t-39.5 112.5q-5 261 0 519q3 80 40.5 114.5t124.5 34.5q85 0 122.5 -33.5t41.5 -111.5q2 -71 0 -142h-89q2 41 2 75t-2 75q-1 35 -16.5 48.5t-58.5 13.5q-44 0 -59.5 -13.5t-17.5 -48.5q-2 -98 -3 -184t0 -172t3 -183q2 -36 18 -49.5t60 -13.5
q45 0 61.5 13.5t18.5 49.5q2 67 0 133h-77v80h163q1 -61 1 -110.5t-1 -94.5q-3 -79 -41 -112.5t-125 -33.5zM98 919h60q0 -19 17.5 -30t47.5 -11t48 11t18 30h59q-2 -40 -36 -63.5t-89 -23.5q-54 0 -88 23.5t-37 63.5z" />
    <glyph glyph-name="gbreve" unicode="&#x11f;" horiz-adv-x="436" 
d="M216 -173q-75 0 -119 22t-49 64q-1 6 -1.5 13t0.5 13q2 28 22 43.5t47 19.5v14q-54 13 -57 54q-1 6 -1 11t1 10q1 20 17 35.5t40 18.5v15q-32 14 -47 44t-18 77q-2 50 -2 94t2 95q5 74 41 106t117 32q107 0 137 -61h15q2 25 20.5 39t48.5 14v-69h-11q-25 0 -39.5 -16.5
t-14.5 -51.5q1 -53 1 -97t-2 -85q-4 -73 -39.5 -105.5t-115.5 -32.5q-4 0 -7.5 0.5t-6.5 0.5q-36 0 -50 -10t-14 -27v-5q0 -19 22 -25t68 -7q83 -3 125.5 -27t48.5 -79q2 -16 0 -32q-6 -60 -56 -82.5t-123 -22.5zM209 212q32 0 49.5 13t19.5 47q2 49 1.5 99t-2.5 109
q-1 32 -17 45.5t-51 13.5q-37 0 -54 -14t-18 -47q-1 -59 -1.5 -107t1.5 -98q2 -34 20 -47.5t52 -13.5zM218 -106q89 0 98 44q4 12 0 25q-8 37 -99 41q-46 2 -67 -9t-22 -35q-2 -11 0 -24q2 -22 23 -32t67 -10zM81 767h59q0 -37 15.5 -52.5t53.5 -15.5q37 0 52.5 15.5
t16.5 52.5h58q-3 -63 -33 -90t-94 -27q-65 0 -95 27t-33 90z" />
    <glyph glyph-name="Gdotaccent" unicode="&#x120;" horiz-adv-x="429" 
d="M225 -7q-89 0 -126.5 33.5t-39.5 112.5q-5 261 0 519q3 80 40.5 114.5t124.5 34.5q85 0 122.5 -33.5t41.5 -111.5q2 -71 0 -142h-89q2 41 2 75t-2 75q-1 35 -16.5 48.5t-58.5 13.5q-44 0 -59.5 -13.5t-17.5 -48.5q-2 -98 -3 -184t0 -172t3 -183q2 -36 18 -49.5t60 -13.5
q45 0 61.5 13.5t18.5 49.5q2 67 0 133h-77v80h163q1 -61 1 -110.5t-1 -94.5q-3 -79 -41 -112.5t-125 -33.5zM172 842v66h100v-66h-100z" />
    <glyph glyph-name="gdotaccent" unicode="&#x121;" horiz-adv-x="436" 
d="M216 -173q-75 0 -119 22t-49 64q-1 6 -1.5 13t0.5 13q2 28 22 43.5t47 19.5v14q-54 13 -57 54q-1 6 -1 11t1 10q1 20 17 35.5t40 18.5v15q-32 14 -47 44t-18 77q-2 50 -2 94t2 95q5 74 41 106t117 32q107 0 137 -61h15q2 25 20.5 39t48.5 14v-69h-11q-25 0 -39.5 -16.5
t-14.5 -51.5q1 -53 1 -97t-2 -85q-4 -73 -39.5 -105.5t-115.5 -32.5q-4 0 -7.5 0.5t-6.5 0.5q-36 0 -50 -10t-14 -27v-5q0 -19 22 -25t68 -7q83 -3 125.5 -27t48.5 -79q2 -16 0 -32q-6 -60 -56 -82.5t-123 -22.5zM209 212q32 0 49.5 13t19.5 47q2 49 1.5 99t-2.5 109
q-1 32 -17 45.5t-51 13.5q-37 0 -54 -14t-18 -47q-1 -59 -1.5 -107t1.5 -98q2 -34 20 -47.5t52 -13.5zM218 -106q89 0 98 44q4 12 0 25q-8 37 -99 41q-46 2 -67 -9t-22 -35q-2 -11 0 -24q2 -22 23 -32t67 -10zM159 663v81h99v-81h-99z" />
    <glyph glyph-name="uni0122" unicode="&#x122;" horiz-adv-x="429" 
d="M225 -7q-89 0 -126.5 33.5t-39.5 112.5q-5 261 0 519q3 80 40.5 114.5t124.5 34.5q85 0 122.5 -33.5t41.5 -111.5q2 -71 0 -142h-89q2 41 2 75t-2 75q-1 35 -16.5 48.5t-58.5 13.5q-44 0 -59.5 -13.5t-17.5 -48.5q-2 -98 -3 -184t0 -172t3 -183q2 -36 18 -49.5t60 -13.5
q45 0 61.5 13.5t18.5 49.5q2 67 0 133h-77v80h163q1 -61 1 -110.5t-1 -94.5q-3 -79 -41 -112.5t-125 -33.5zM171 -111v66h99v-68l-29 -48h-47l26 50h-49z" />
    <glyph glyph-name="uni0123" unicode="&#x123;" horiz-adv-x="436" 
d="M216 -173q-75 0 -119 22t-49 64q-1 6 -1.5 13t0.5 13q2 28 22 43.5t47 19.5v14q-54 13 -57 54q-1 6 -1 11t1 10q1 20 17 35.5t40 18.5v15q-32 14 -47 44t-18 77q-2 50 -2 94t2 95q5 74 41 106t117 32q107 0 137 -61h15q2 25 20.5 39t48.5 14v-69h-11q-25 0 -39.5 -16.5
t-14.5 -51.5q1 -53 1 -97t-2 -85q-4 -73 -39.5 -105.5t-115.5 -32.5q-4 0 -7.5 0.5t-6.5 0.5q-36 0 -50 -10t-14 -27v-5q0 -19 22 -25t68 -7q83 -3 125.5 -27t48.5 -79q2 -16 0 -32q-6 -60 -56 -82.5t-123 -22.5zM209 212q32 0 49.5 13t19.5 47q2 49 1.5 99t-2.5 109
q-1 32 -17 45.5t-51 13.5q-37 0 -54 -14t-18 -47q-1 -59 -1.5 -107t1.5 -98q2 -34 20 -47.5t52 -13.5zM218 -106q89 0 98 44q4 12 0 25q-8 37 -99 41q-46 2 -67 -9t-22 -35q-2 -11 0 -24q2 -22 23 -32t67 -10zM154 662v73l43 75h55l-34 -66h49v-82h-113z" />
    <glyph glyph-name="Hcircumflex" unicode="&#x124;" horiz-adv-x="435" 
d="M57 0v800h88v-357h145v357h88v-800h-88v364h-145v-364h-88zM88 835l93 76h67l93 -76h-70l-56 47l-56 -47h-71z" />
    <glyph glyph-name="hcircumflex" unicode="&#x125;" horiz-adv-x="419" 
d="M51 0v800h90v-257h18q18 33 40 49t64 16q57 0 84 -31.5t28 -100.5l1 -476h-89l-1 483q-1 30 -14 44t-43 14q-66 0 -88 -57v-484h-90zM150 680l78 120h58l77 -120h-62l-44 72l-44 -72h-63z" />
    <glyph glyph-name="Hbar" unicode="&#x126;" horiz-adv-x="443" 
d="M71 0v572h-49v48h49v180h88v-180h144v180h89v-180h30v-48h-30v-572h-89v364h-144v-364h-88zM159 443h144v129h-144v-129z" />
    <glyph glyph-name="hbar" unicode="&#x127;" horiz-adv-x="422" 
d="M55 0v667h-49v43h49v90h90v-90h50v-43h-50v-124h17q18 33 40.5 49t63.5 16q57 0 84.5 -31.5t28.5 -100.5l1 -476h-90l-1 483q0 30 -13 44t-43 14q-67 0 -88 -57v-484h-90z" />
    <glyph glyph-name="Itilde" unicode="&#x128;" horiz-adv-x="202" 
d="M57 0v800h88v-800h-88zM-31 843q3 38 26.5 56t61.5 13q24 -2 38 -9.5t26.5 -14.5t29.5 -7q39 -3 39 31h41q-1 -80 -81 -74q-24 1 -39.5 8t-28.5 14.5t-29 9.5q-39 7 -42 -27h-42z" />
    <glyph glyph-name="itilde" unicode="&#x129;" horiz-adv-x="191" 
d="M51 0v600h88v-600h-88zM-41 657q4 47 29 67.5t61 17.5q25 -1 40.5 -11t29 -20t30.5 -11q18 -1 29.5 9t11.5 26h41q-1 -43 -24.5 -63.5t-59.5 -19.5q-24 1 -40 10.5t-30 19.5t-31 12q-17 1 -30.5 -7.5t-16.5 -29.5h-40z" />
    <glyph glyph-name="Imacron" unicode="&#x12a;" horiz-adv-x="202" 
d="M57 0v800h88v-800h-88zM-45 842v47h290v-47h-290z" />
    <glyph glyph-name="imacron" unicode="&#x12b;" horiz-adv-x="191" 
d="M51 0v600h88v-600h-88zM-60 659v51h311v-51h-311z" />
    <glyph glyph-name="Ibreve" unicode="&#x12c;" horiz-adv-x="202" 
d="M57 0v800h88v-800h-88zM-24 919h60q0 -19 17.5 -30t47.5 -11t48 11t18 30h59q-2 -40 -36 -63.5t-89 -23.5q-54 0 -88 23.5t-37 63.5z" />
    <glyph glyph-name="ibreve" unicode="&#x12d;" horiz-adv-x="191" 
d="M51 0v600h88v-600h-88zM-32 767h59q0 -37 15.5 -52.5t53.5 -15.5q37 0 52.5 15.5t16.5 52.5h58q-3 -63 -33 -90t-94 -27q-65 0 -95 27t-33 90z" />
    <glyph glyph-name="Iogonek" unicode="&#x12e;" horiz-adv-x="202" 
d="M57 0v800h88v-800h-88zM49 -51q1 17 15 27t32 14l1 22h42l6 -12q-51 -20 -51 -45q0 -9 7.5 -15t26.5 -6q9 0 22.5 1.5l22.5 2.5l8 -34q-13 -3 -30 -4.5t-28 -1.5q-36 0 -56 13t-18 38z" />
    <glyph glyph-name="iogonek" unicode="&#x12f;" horiz-adv-x="191" 
d="M51 0v600h88v-600h-88zM45 663v81h99v-81h-99zM43 -51q1 17 15 27t32 14l1 22h42l6 -12q-51 -20 -51 -45q0 -9 7.5 -15t26.5 -6q9 0 22.5 1.5l22.5 2.5l8 -34q-13 -3 -30 -4.5t-28 -1.5q-36 0 -56 13t-18 38z" />
    <glyph glyph-name="Idotaccent" unicode="&#x130;" horiz-adv-x="202" 
d="M57 0v800h88v-800h-88zM51 842v66h100v-66h-100z" />
    <glyph glyph-name="dotlessi" unicode="&#x131;" horiz-adv-x="191" 
d="M51 0v600h88v-600h-88z" />
    <glyph glyph-name="Jcircumflex" unicode="&#x134;" horiz-adv-x="368" 
d="M173 -7q-79 0 -114.5 33.5t-37.5 112.5q-2 76 0 151h84q-1 -39 -1 -79.5t1 -79.5q1 -35 16 -49t52 -14q41 0 56 14t15 49v669h89v-661q0 -79 -37 -112.5t-123 -33.5zM70 835l93 76h67l93 -76h-70l-56 47l-56 -47h-71z" />
    <glyph glyph-name="jcircumflex" unicode="&#x135;" horiz-adv-x="214" 
d="M-68 -201v67q13 -1 32.5 -1.5t38.5 -0.5q37 0 52.5 13t15.5 44v679h91v-670q-1 -73 -38.5 -105t-119.5 -32q-15 0 -35.5 1.5t-36.5 4.5zM7 643l78 120h58l77 -120h-62l-44 72l-44 -72h-63z" />
    <glyph glyph-name="uni0136" unicode="&#x136;" horiz-adv-x="432" 
d="M57 0v800h92v-175l-8 -242h26l69 243l58 174h96l-121 -354l132 -446h-91l-98 342l-66 -162v-180h-89zM168 -111v66h99v-68l-29 -48h-47l26 50h-49z" />
    <glyph glyph-name="uni0137" unicode="&#x137;" horiz-adv-x="404" 
d="M51 0v800h84v-155l-9 -303l11 -1l29 55l90 204h92l-118 -243l144 -357h-93l-106 266l-37 -66v-200h-87zM147 -138v82h113v-72l-43 -76h-55l35 66h-50z" />
    <glyph glyph-name="kgreenlandic" unicode="&#x138;" horiz-adv-x="404" 
d="M281 0l-105 255l-38 -69v-186h-87v600h84v-103l-9 -167h19l47 116l83 154h94l-139 -254l144 -346h-93z" />
    <glyph glyph-name="Lacute" unicode="&#x139;" horiz-adv-x="363" 
d="M57 0v800h88v-721h187v-79h-275zM165 840v3l102 68h75v-2l-113 -69h-64z" />
    <glyph glyph-name="lacute" unicode="&#x13a;" horiz-adv-x="191" 
d="M51 0v800h88v-800h-88zM66 853l86 120h69l-89 -120h-66z" />
    <glyph glyph-name="uni013B" unicode="&#x13b;" horiz-adv-x="363" 
d="M57 0v800h88v-721h187v-79h-275zM134 -111v66h99v-68l-29 -48h-47l26 50h-49z" />
    <glyph glyph-name="uni013C" unicode="&#x13c;" horiz-adv-x="191" 
d="M51 0v800h88v-800h-88zM49 -138v82h113v-72l-43 -76h-55l35 66h-50z" />
    <glyph glyph-name="Lcaron" unicode="&#x13d;" horiz-adv-x="363" 
d="M57 0v800h88v-721h187v-79h-275zM59 914h71l56 -47l56 47h70l-93 -75h-67z" />
    <glyph glyph-name="lcaron" unicode="&#x13e;" horiz-adv-x="191" 
d="M51 0v800h88v-800h-88zM-12 973h62l45 -73l45 73h62l-77 -120h-59z" />
    <glyph glyph-name="Ldot" unicode="&#x13f;" horiz-adv-x="369" 
d="M57 0v800h88v-721h187v-79h-275zM190 354v99h127v-99h-127z" />
    <glyph glyph-name="ldot" unicode="&#x140;" horiz-adv-x="296" 
d="M51 0v800h88v-800h-88zM168 354v99h147v-99h-147z" />
    <glyph glyph-name="Lslash" unicode="&#x141;" horiz-adv-x="374" 
d="M67 0v399l-47 -15v55l47 14v347h89v-320l56 17v-55l-56 -17v-346h186v-79h-275z" />
    <glyph glyph-name="lslash" unicode="&#x142;" horiz-adv-x="191" 
d="M51 0v410l-46 -15v44l46 15v346h88v-318l47 15v-43l-47 -15v-439h-88z" />
    <glyph glyph-name="Nacute" unicode="&#x143;" horiz-adv-x="521" 
d="M57 0v800h177l47 -254l69 -467h43l-12 431l-6 290h89v-800h-183l-50 284l-59 437h-44l11 -417l6 -304h-88zM244 840v3l102 68h75v-2l-113 -69h-64z" />
    <glyph glyph-name="nacute" unicode="&#x144;" horiz-adv-x="429" 
d="M51 0v600h89v-57h19q17 32 41 48.5t63 16.5q57 0 85 -31.5t28 -100.5v-476h-88l-1 483q0 30 -14 44t-44 14q-28 0 -53.5 -15t-35.5 -42v-484h-89zM185 653l86 120h69l-89 -120h-66z" />
    <glyph glyph-name="uni0145" unicode="&#x145;" horiz-adv-x="521" 
d="M57 0v800h177l47 -254l69 -467h43l-12 431l-6 290h89v-800h-183l-50 284l-59 437h-44l11 -417l6 -304h-88zM212 -111v66h99v-68l-29 -48h-47l26 50h-49z" />
    <glyph glyph-name="uni0146" unicode="&#x146;" horiz-adv-x="429" 
d="M51 0v600h89v-57h19q17 32 41 48.5t63 16.5q57 0 85 -31.5t28 -100.5v-476h-88l-1 483q0 30 -14 44t-44 14q-28 0 -53.5 -15t-35.5 -42v-484h-89zM168 -138v82h113v-72l-43 -76h-55l35 66h-50z" />
    <glyph glyph-name="Ncaron" unicode="&#x147;" horiz-adv-x="521" 
d="M57 0v800h177l47 -254l69 -467h43l-12 431l-6 290h89v-800h-183l-50 284l-59 437h-44l11 -417l6 -304h-88zM139 914h71l56 -47l56 47h70l-93 -75h-67z" />
    <glyph glyph-name="ncaron" unicode="&#x148;" horiz-adv-x="429" 
d="M51 0v600h89v-57h19q17 32 41 48.5t63 16.5q57 0 85 -31.5t28 -100.5v-476h-88l-1 483q0 30 -14 44t-44 14q-28 0 -53.5 -15t-35.5 -42v-484h-89zM108 773h62l45 -73l45 73h62l-77 -120h-59z" />
    <glyph glyph-name="Eng" unicode="&#x14a;" horiz-adv-x="521" 
d="M303 -206q-15 0 -34 1.5t-35 4.5v67q13 -2 31.5 -2.5t35.5 -0.5q44 0 64 14t20 45v77h-104l-50 284l-59 437h-44l11 -417l6 -304h-88v800h177l47 -254l69 -467h43l-12 431l-6 290h89v-869q0 -70 -37 -103.5t-124 -33.5z" />
    <glyph glyph-name="eng" unicode="&#x14b;" horiz-adv-x="428" 
d="M210 -206q-14 0 -34 2t-36 5v65q12 -1 31.5 -1.5t36.5 -0.5q44 0 60.5 12.5t16.5 46.5v560q0 30 -13 44t-43 14q-28 0 -53 -15t-35 -42v-484h-90v600h90v-57h18q17 32 41 48.5t63 16.5q56 0 84 -31t28 -101v-546q0 -72 -39.5 -104t-125.5 -32z" />
    <glyph glyph-name="Omacron" unicode="&#x14c;" horiz-adv-x="444" 
d="M223 -7q-86 0 -124 34.5t-40 115.5q-1 97 -1.5 178t0 161.5t1.5 174.5q2 81 40 115.5t124 34.5q84 0 122 -34.5t40 -115.5q2 -95 3 -175t0 -161t-3 -178q-2 -81 -40 -115.5t-122 -34.5zM223 68q41 0 57 15t17 56q2 74 3 137.5t1 123.5t-1 123t-3 138q-1 40 -17 55.5
t-57 15.5q-42 0 -58.5 -15.5t-16.5 -55.5q-2 -73 -3 -136t-1 -122.5t1 -123.5t3 -140q0 -41 16.5 -56t58.5 -15zM77 842v47h290v-47h-290z" />
    <glyph glyph-name="omacron" unicode="&#x14d;" horiz-adv-x="427" 
d="M214 -8q-86 0 -121 34.5t-39 113.5q-2 39 -2.5 96t0 117t2.5 107q4 80 39.5 114t120.5 34q86 0 120.5 -34.5t38.5 -113.5q2 -44 2.5 -100.5t0 -114t-2.5 -105.5q-4 -79 -39 -113.5t-120 -34.5zM214 60q39 0 54 15t16 46q4 90 4 178t-4 181q-1 32 -17 46t-53 14
q-38 0 -54.5 -15t-17.5 -47q-3 -78 -3 -171.5t3 -184.5q2 -33 18 -47.5t54 -14.5zM58 659v51h311v-51h-311z" />
    <glyph glyph-name="Obreve" unicode="&#x14e;" horiz-adv-x="444" 
d="M223 -7q-86 0 -124 34.5t-40 115.5q-1 97 -1.5 178t0 161.5t1.5 174.5q2 81 40 115.5t124 34.5q84 0 122 -34.5t40 -115.5q2 -95 3 -175t0 -161t-3 -178q-2 -81 -40 -115.5t-122 -34.5zM223 68q41 0 57 15t17 56q2 74 3 137.5t1 123.5t-1 123t-3 138q-1 40 -17 55.5
t-57 15.5q-42 0 -58.5 -15.5t-16.5 -55.5q-2 -73 -3 -136t-1 -122.5t1 -123.5t3 -140q0 -41 16.5 -56t58.5 -15zM98 919h60q0 -19 17.5 -30t47.5 -11t48 11t18 30h59q-2 -40 -36 -63.5t-89 -23.5q-54 0 -88 23.5t-37 63.5z" />
    <glyph glyph-name="obreve" unicode="&#x14f;" horiz-adv-x="427" 
d="M214 -8q-86 0 -121 34.5t-39 113.5q-2 39 -2.5 96t0 117t2.5 107q4 80 39.5 114t120.5 34q86 0 120.5 -34.5t38.5 -113.5q2 -44 2.5 -100.5t0 -114t-2.5 -105.5q-4 -79 -39 -113.5t-120 -34.5zM214 60q39 0 54 15t16 46q4 90 4 178t-4 181q-1 32 -17 46t-53 14
q-38 0 -54.5 -15t-17.5 -47q-3 -78 -3 -171.5t3 -184.5q2 -33 18 -47.5t54 -14.5zM86 767h59q0 -37 15.5 -52.5t53.5 -15.5q37 0 52.5 15.5t16.5 52.5h58q-3 -63 -33 -90t-94 -27q-65 0 -95 27t-33 90z" />
    <glyph glyph-name="Ohungarumlaut" unicode="&#x150;" horiz-adv-x="444" 
d="M223 -7q-86 0 -124 34.5t-40 115.5q-1 97 -1.5 178t0 161.5t1.5 174.5q2 81 40 115.5t124 34.5q84 0 122 -34.5t40 -115.5q2 -95 3 -175t0 -161t-3 -178q-2 -81 -40 -115.5t-122 -34.5zM223 68q41 0 57 15t17 56q2 74 3 137.5t1 123.5t-1 123t-3 138q-1 40 -17 55.5
t-57 15.5q-42 0 -58.5 -15.5t-16.5 -55.5q-2 -73 -3 -136t-1 -122.5t1 -123.5t3 -140q0 -41 16.5 -56t58.5 -15zM306 835h-51v2l101 62h51v-2zM148 835v2l101 62h51v-2l-101 -62h-51z" />
    <glyph glyph-name="ohungarumlaut" unicode="&#x151;" horiz-adv-x="427" 
d="M214 -8q-86 0 -121 34.5t-39 113.5q-2 39 -2.5 96t0 117t2.5 107q4 80 39.5 114t120.5 34q86 0 120.5 -34.5t38.5 -113.5q2 -44 2.5 -100.5t0 -114t-2.5 -105.5q-4 -79 -39 -113.5t-120 -34.5zM214 60q39 0 54 15t16 46q4 90 4 178t-4 181q-1 32 -17 46t-53 14
q-38 0 -54.5 -15t-17.5 -47q-3 -78 -3 -171.5t3 -184.5q2 -33 18 -47.5t54 -14.5zM296 643h-47v2l109 127h48v-1zM132 643v2l110 127h47v-1l-109 -128h-48z" />
    <glyph glyph-name="OE" unicode="&#x152;" horiz-adv-x="615" 
d="M223 -7q-86 0 -124 34.5t-40 115.5q-1 97 -1.5 178t0 161.5t1.5 174.5q2 81 40 115.5t124 34.5q84 0 122 -34.5t40 -115.5q2 -95 3 -175t0 -161t-3 -178q-2 -81 -40 -115.5t-122 -34.5zM223 68q41 0 57 15t17 56q2 74 3 137.5t1 123.5t-1 123t-3 138q-1 40 -17 55.5
t-57 15.5q-42 0 -58.5 -15.5t-16.5 -55.5q-2 -73 -3 -136t-1 -122.5t1 -123.5t3 -140q0 -41 16.5 -56t58.5 -15zM300 0v800h278v-79h-190v-278h180v-79h-180v-285h190v-79h-278z" />
    <glyph glyph-name="oe" unicode="&#x153;" horiz-adv-x="644" 
d="M214 -8q-86 0 -121 34.5t-39 113.5q-2 39 -2.5 96t0 117t2.5 107q4 80 39.5 114t120.5 34q86 0 120.5 -34.5t38.5 -113.5q2 -44 2.5 -100.5t0 -114t-2.5 -105.5q-4 -79 -39 -113.5t-120 -34.5zM214 60q39 0 54 15t16 46q4 90 4 178t-4 181q-1 32 -17 46t-53 14
q-38 0 -54.5 -15t-17.5 -47q-3 -78 -3 -171.5t3 -184.5q2 -33 18 -47.5t54 -14.5zM513 213h88q1 -16 1.5 -42t-0.5 -42q-4 -73 -38.5 -105t-114.5 -32q-84 0 -119.5 32.5t-39.5 104.5q-1 46 -2 107.5t-0.5 123.5t2.5 110q4 74 41 106t117 32t115 -32t39 -103
q0 -11 0.5 -42.5t0 -71.5t-1.5 -76h-224q0 -40 1 -81l2 -82q0 -34 16 -46.5t52 -12.5q35 0 49.5 13t16.5 46v40t-1 53zM448 539q-38 0 -53 -14t-15 -43q-1 -33 -1.5 -65.5t-0.5 -67.5h136q1 42 1 80.5t-1 52.5q-3 32 -18.5 44.5t-47.5 12.5z" />
    <glyph glyph-name="Racute" unicode="&#x154;" horiz-adv-x="414" 
d="M57 0v800h157q79 0 115 -32t38 -106q3 -67 3 -117t-3 -106q-3 -96 -67 -123l82 -316h-93l-74 302h-70v-302h-88zM145 381h68q35 0 50 12.5t16 41.5q3 64 3 115.5t-3 115.5q-1 30 -15.5 42.5t-49.5 12.5h-69v-340zM182 840v3l102 68h75v-2l-113 -69h-64z" />
    <glyph glyph-name="racute" unicode="&#x155;" horiz-adv-x="308" 
d="M51 0v600h91v-61h18q9 35 30.5 49t58.5 14q10 0 20 -0.5t19 -1.5v-69h-38q-46 0 -72.5 -14.5t-35.5 -50.5v-466h-91zM132 653l86 120h69l-89 -120h-66z" />
    <glyph glyph-name="uni0156" unicode="&#x156;" horiz-adv-x="414" 
d="M57 0v800h157q79 0 115 -32t38 -106q3 -67 3 -117t-3 -106q-3 -96 -67 -123l82 -316h-93l-74 302h-70v-302h-88zM145 381h68q35 0 50 12.5t16 41.5q3 64 3 115.5t-3 115.5q-1 30 -15.5 42.5t-49.5 12.5h-69v-340zM163 -111v66h99v-68l-29 -48h-47l26 50h-49z" />
    <glyph glyph-name="uni0157" unicode="&#x157;" horiz-adv-x="308" 
d="M51 0v600h91v-61h18q9 35 30.5 49t58.5 14q10 0 20 -0.5t19 -1.5v-69h-38q-46 0 -72.5 -14.5t-35.5 -50.5v-466h-91zM109 -138v82h113v-72l-43 -76h-55l35 66h-50z" />
    <glyph glyph-name="Rcaron" unicode="&#x158;" horiz-adv-x="414" 
d="M57 0v800h157q79 0 115 -32t38 -106q3 -67 3 -117t-3 -106q-3 -96 -67 -123l82 -316h-93l-74 302h-70v-302h-88zM145 381h68q35 0 50 12.5t16 41.5q3 64 3 115.5t-3 115.5q-1 30 -15.5 42.5t-49.5 12.5h-69v-340zM76 914h71l56 -47l56 47h70l-93 -75h-67z" />
    <glyph glyph-name="rcaron" unicode="&#x159;" horiz-adv-x="308" 
d="M51 0v600h91v-61h18q9 35 30.5 49t58.5 14q10 0 20 -0.5t19 -1.5v-69h-38q-46 0 -72.5 -14.5t-35.5 -50.5v-466h-91zM54 773h62l45 -73l45 73h62l-77 -120h-59z" />
    <glyph glyph-name="Sacute" unicode="&#x15a;" horiz-adv-x="442" 
d="M223 -7q-85 0 -123 33.5t-40 112.5q-2 40 -1.5 75t2.5 76h85q-2 -43 -2.5 -83t2.5 -81q1 -32 18.5 -45t57.5 -13q38 0 54.5 13t19.5 45q2 32 2 69.5t-2 69.5q-2 38 -16.5 57.5t-47.5 27.5l-61 15q-63 15 -87 53.5t-26 113.5q-1 31 -0.5 63.5t0.5 66.5q3 78 40.5 111.5
t123.5 33.5q82 0 119 -33.5t40 -111.5q1 -30 0.5 -66.5t-1.5 -75.5h-85q1 44 1.5 81t-1.5 73q-1 32 -18 45t-56 13q-38 0 -55 -13t-19 -45q-3 -37 -2.5 -71t2.5 -71q1 -41 12 -60.5t38 -26.5l56 -12q72 -17 100.5 -55.5t30.5 -112.5q2 -30 1.5 -63.5t-1.5 -62.5
q-3 -79 -40.5 -112.5t-120.5 -33.5zM197 840v3l102 68h75v-2l-113 -69h-64z" />
    <glyph glyph-name="sacute" unicode="&#x15b;" horiz-adv-x="395" 
d="M194 -8q-79 0 -111 32t-35 105q-1 23 -0.5 43.5t1.5 40.5h80q-2 -32 -1.5 -54.5t0.5 -38.5q1 -34 16.5 -47t49.5 -13q37 0 53.5 13.5t17.5 46.5q1 34 0 63q-1 32 -10 48.5t-36 24.5l-57 16q-61 17 -87.5 49t-27.5 98q-1 29 0 51q1 74 34.5 106t117.5 32q78 0 111 -31.5
t35 -104.5v-23.5t-0.5 -32t-1.5 -27.5h-82q1 23 1 50v43q-1 32 -14.5 45t-48.5 13q-36 0 -49.5 -12.5t-15.5 -45.5q0 -9 -0.5 -22.5t-0.5 -31.5q1 -34 9 -54.5t39 -28.5l54 -14q58 -15 86 -47.5t28 -97.5v-29.5t-1 -30.5q-2 -71 -36 -102.5t-118 -31.5zM167 653l86 120h69
l-89 -120h-66z" />
    <glyph glyph-name="Scircumflex" unicode="&#x15c;" horiz-adv-x="442" 
d="M223 -7q-85 0 -123 33.5t-40 112.5q-2 40 -1.5 75t2.5 76h85q-2 -43 -2.5 -83t2.5 -81q1 -32 18.5 -45t57.5 -13q38 0 54.5 13t19.5 45q2 32 2 69.5t-2 69.5q-2 38 -16.5 57.5t-47.5 27.5l-61 15q-63 15 -87 53.5t-26 113.5q-1 31 -0.5 63.5t0.5 66.5q3 78 40.5 111.5
t123.5 33.5q82 0 119 -33.5t40 -111.5q1 -30 0.5 -66.5t-1.5 -75.5h-85q1 44 1.5 81t-1.5 73q-1 32 -18 45t-56 13q-38 0 -55 -13t-19 -45q-3 -37 -2.5 -71t2.5 -71q1 -41 12 -60.5t38 -26.5l56 -12q72 -17 100.5 -55.5t30.5 -112.5q2 -30 1.5 -63.5t-1.5 -62.5
q-3 -79 -40.5 -112.5t-120.5 -33.5zM92 835l93 76h67l93 -76h-70l-56 47l-56 -47h-71z" />
    <glyph glyph-name="scircumflex" unicode="&#x15d;" horiz-adv-x="395" 
d="M194 -8q-79 0 -111 32t-35 105q-1 23 -0.5 43.5t1.5 40.5h80q-2 -32 -1.5 -54.5t0.5 -38.5q1 -34 16.5 -47t49.5 -13q37 0 53.5 13.5t17.5 46.5q1 34 0 63q-1 32 -10 48.5t-36 24.5l-57 16q-61 17 -87.5 49t-27.5 98q-1 29 0 51q1 74 34.5 106t117.5 32q78 0 111 -31.5
t35 -104.5v-23.5t-0.5 -32t-1.5 -27.5h-82q1 23 1 50v43q-1 32 -14.5 45t-48.5 13q-36 0 -49.5 -12.5t-15.5 -45.5q0 -9 -0.5 -22.5t-0.5 -31.5q1 -34 9 -54.5t39 -28.5l54 -14q58 -15 86 -47.5t28 -97.5v-29.5t-1 -30.5q-2 -71 -36 -102.5t-118 -31.5zM87 643l78 120h58
l77 -120h-62l-44 72l-44 -72h-63z" />
    <glyph glyph-name="Scedilla" unicode="&#x15e;" horiz-adv-x="442" 
d="M223 -7q-85 0 -123 33.5t-40 112.5q-2 40 -1.5 75t2.5 76h85q-2 -43 -2.5 -83t2.5 -81q1 -32 18.5 -45t57.5 -13q38 0 54.5 13t19.5 45q2 32 2 69.5t-2 69.5q-2 38 -16.5 57.5t-47.5 27.5l-61 15q-63 15 -87 53.5t-26 113.5q-1 31 -0.5 63.5t0.5 66.5q3 78 40.5 111.5
t123.5 33.5q82 0 119 -33.5t40 -111.5q1 -30 0.5 -66.5t-1.5 -75.5h-85q1 44 1.5 81t-1.5 73q-1 32 -18 45t-56 13q-38 0 -55 -13t-19 -45q-3 -37 -2.5 -71t2.5 -71q1 -41 12 -60.5t38 -26.5l56 -12q72 -17 100.5 -55.5t30.5 -112.5q2 -30 1.5 -63.5t-1.5 -62.5
q-3 -79 -40.5 -112.5t-120.5 -33.5zM266 -132q-13 0 -30 1t-31 4l9 34q21 -3 52 -2q28 0 28 16q0 11 -8 15.5t-20 4.5h-62l-4 4v68h47v-38h19q30 0 51 -12t21 -42q0 -52 -72 -53z" />
    <glyph glyph-name="scedilla" unicode="&#x15f;" horiz-adv-x="395" 
d="M194 -8q-79 0 -111 32t-35 105q-1 23 -0.5 43.5t1.5 40.5h80q-2 -32 -1.5 -54.5t0.5 -38.5q1 -34 16.5 -47t49.5 -13q37 0 53.5 13.5t17.5 46.5q1 34 0 63q-1 32 -10 48.5t-36 24.5l-57 16q-61 17 -87.5 49t-27.5 98q-1 29 0 51q1 74 34.5 106t117.5 32q78 0 111 -31.5
t35 -104.5v-23.5t-0.5 -32t-1.5 -27.5h-82q1 23 1 50v43q-1 32 -14.5 45t-48.5 13q-36 0 -49.5 -12.5t-15.5 -45.5q0 -9 -0.5 -22.5t-0.5 -31.5q1 -34 9 -54.5t39 -28.5l54 -14q58 -15 86 -47.5t28 -97.5v-29.5t-1 -30.5q-2 -71 -36 -102.5t-118 -31.5zM247 -132
q-13 0 -30 1t-31 4l9 34q21 -3 52 -2q28 0 28 16q0 11 -8 15.5t-20 4.5h-62l-4 4v68h47v-38h19q30 0 51 -12t21 -42q0 -52 -72 -53z" />
    <glyph glyph-name="Scaron" unicode="&#x160;" horiz-adv-x="442" 
d="M223 -7q-85 0 -123 33.5t-40 112.5q-2 40 -1.5 75t2.5 76h85q-2 -43 -2.5 -83t2.5 -81q1 -32 18.5 -45t57.5 -13q38 0 54.5 13t19.5 45q2 32 2 69.5t-2 69.5q-2 38 -16.5 57.5t-47.5 27.5l-61 15q-63 15 -87 53.5t-26 113.5q-1 31 -0.5 63.5t0.5 66.5q3 78 40.5 111.5
t123.5 33.5q82 0 119 -33.5t40 -111.5q1 -30 0.5 -66.5t-1.5 -75.5h-85q1 44 1.5 81t-1.5 73q-1 32 -18 45t-56 13q-38 0 -55 -13t-19 -45q-3 -37 -2.5 -71t2.5 -71q1 -41 12 -60.5t38 -26.5l56 -12q72 -17 100.5 -55.5t30.5 -112.5q2 -30 1.5 -63.5t-1.5 -62.5
q-3 -79 -40.5 -112.5t-120.5 -33.5zM92 914h71l56 -47l56 47h70l-93 -75h-67z" />
    <glyph glyph-name="scaron" unicode="&#x161;" horiz-adv-x="395" 
d="M194 -8q-79 0 -111 32t-35 105q-1 23 -0.5 43.5t1.5 40.5h80q-2 -32 -1.5 -54.5t0.5 -38.5q1 -34 16.5 -47t49.5 -13q37 0 53.5 13.5t17.5 46.5q1 34 0 63q-1 32 -10 48.5t-36 24.5l-57 16q-61 17 -87.5 49t-27.5 98q-1 29 0 51q1 74 34.5 106t117.5 32q78 0 111 -31.5
t35 -104.5v-23.5t-0.5 -32t-1.5 -27.5h-82q1 23 1 50v43q-1 32 -14.5 45t-48.5 13q-36 0 -49.5 -12.5t-15.5 -45.5q0 -9 -0.5 -22.5t-0.5 -31.5q1 -34 9 -54.5t39 -28.5l54 -14q58 -15 86 -47.5t28 -97.5v-29.5t-1 -30.5q-2 -71 -36 -102.5t-118 -31.5zM89 773h62l45 -73
l45 73h62l-77 -120h-59z" />
    <glyph glyph-name="uni0162" unicode="&#x162;" horiz-adv-x="398" 
d="M155 0v721h-124v79h336v-79h-124v-721h-88zM244 -132q-13 0 -30 1t-31 4l9 34q21 -3 52 -2q28 0 28 16q0 11 -8 15.5t-20 4.5h-62l-4 4v68h47v-38h19q30 0 51 -12t21 -42q0 -52 -72 -53z" />
    <glyph glyph-name="uni0163" unicode="&#x163;" horiz-adv-x="333" 
d="M251 -8q-86 0 -121 31.5t-35 106.5l-1 401h-48v69h51v170h92l-3 -170h105v-69h-108l1 -411q0 -35 13.5 -47.5t54.5 -12.5q15 0 25.5 0.5t25.5 2.5v-66q-23 -5 -52 -5zM253 -132q-13 0 -30 1t-31 4l9 34q21 -3 52 -2q28 0 28 16q0 11 -8 15.5t-20 4.5h-62l-4 4v68h47v-38
h19q30 0 51 -12t21 -42q0 -52 -72 -53z" />
    <glyph glyph-name="Tcaron" unicode="&#x164;" horiz-adv-x="398" 
d="M155 0v721h-124v79h336v-79h-124v-721h-88zM70 914h71l56 -47l56 47h70l-93 -75h-67z" />
    <glyph glyph-name="tcaron" unicode="&#x165;" horiz-adv-x="333" 
d="M251 -8q-86 0 -121 31.5t-35 106.5l-1 401h-48v69h51v170h92l-3 -170h105v-69h-108l1 -411q0 -35 13.5 -47.5t54.5 -12.5q15 0 25.5 0.5t25.5 2.5v-66q-23 -5 -52 -5zM55 942h62l45 -73l45 73h62l-77 -120h-59z" />
    <glyph glyph-name="Tbar" unicode="&#x166;" horiz-adv-x="398" 
d="M155 0v322h-51v53h51v346h-124v79h336v-79h-124v-346h51v-53h-51v-322h-88z" />
    <glyph glyph-name="tbar" unicode="&#x167;" horiz-adv-x="333" 
d="M251 -8q-86 0 -121 31.5t-35 106.5v189h-46v51h46l-1 161h-48v69h51v170h92l-3 -170h105v-69h-108l1 -161h102v-51h-102v-199q0 -35 13.5 -47.5t54.5 -12.5q15 0 25.5 0.5t25.5 2.5v-66q-23 -5 -52 -5z" />
    <glyph glyph-name="Utilde" unicode="&#x168;" horiz-adv-x="440" 
d="M220 -7q-86 0 -123.5 33.5t-38.5 110.5q-2 167 -2 331.5t2 331.5h88q-2 -167 -1.5 -335.5t1.5 -335.5q0 -32 17 -46t57 -14t57 14t17 46q0 167 1 335.5t-1 335.5h88q2 -167 2 -331.5t-2 -331.5q-1 -77 -38.5 -110.5t-123.5 -33.5zM88 843q3 38 26.5 56t61.5 13
q24 -2 38 -9.5t26.5 -14.5t29.5 -7q39 -3 39 31h41q-1 -80 -81 -74q-24 1 -39.5 8t-28.5 14.5t-29 9.5q-39 7 -42 -27h-42z" />
    <glyph glyph-name="utilde" unicode="&#x169;" horiz-adv-x="429" 
d="M169 -8q-56 0 -85.5 31t-29.5 102v475h89l1 -483q0 -30 13 -44t43 -14q28 0 53 15t35 42v484h90v-600h-90v57h-15q-18 -34 -44 -49.5t-60 -15.5zM79 657q4 47 29 67.5t61 17.5q25 -1 40.5 -11t29 -20t30.5 -11q18 -1 29.5 9t11.5 26h41q-1 -43 -24.5 -63.5t-59.5 -19.5
q-24 1 -40 10.5t-30 19.5t-31 12q-17 1 -30.5 -7.5t-16.5 -29.5h-40z" />
    <glyph glyph-name="Umacron" unicode="&#x16a;" horiz-adv-x="440" 
d="M220 -7q-86 0 -123.5 33.5t-38.5 110.5q-2 167 -2 331.5t2 331.5h88q-2 -167 -1.5 -335.5t1.5 -335.5q0 -32 17 -46t57 -14t57 14t17 46q0 167 1 335.5t-1 335.5h88q2 -167 2 -331.5t-2 -331.5q-1 -77 -38.5 -110.5t-123.5 -33.5zM75 842v47h290v-47h-290z" />
    <glyph glyph-name="umacron" unicode="&#x16b;" horiz-adv-x="429" 
d="M169 -8q-56 0 -85.5 31t-29.5 102v475h89l1 -483q0 -30 13 -44t43 -14q28 0 53 15t35 42v484h90v-600h-90v57h-15q-18 -34 -44 -49.5t-60 -15.5zM59 659v51h311v-51h-311z" />
    <glyph glyph-name="Ubreve" unicode="&#x16c;" horiz-adv-x="440" 
d="M220 -7q-86 0 -123.5 33.5t-38.5 110.5q-2 167 -2 331.5t2 331.5h88q-2 -167 -1.5 -335.5t1.5 -335.5q0 -32 17 -46t57 -14t57 14t17 46q0 167 1 335.5t-1 335.5h88q2 -167 2 -331.5t-2 -331.5q-1 -77 -38.5 -110.5t-123.5 -33.5zM96 919h60q0 -19 17.5 -30t47.5 -11
t48 11t18 30h59q-2 -40 -36 -63.5t-89 -23.5q-54 0 -88 23.5t-37 63.5z" />
    <glyph glyph-name="ubreve" unicode="&#x16d;" horiz-adv-x="429" 
d="M169 -8q-56 0 -85.5 31t-29.5 102v475h89l1 -483q0 -30 13 -44t43 -14q28 0 53 15t35 42v484h90v-600h-90v57h-15q-18 -34 -44 -49.5t-60 -15.5zM87 767h59q0 -37 15.5 -52.5t53.5 -15.5q37 0 52.5 15.5t16.5 52.5h58q-3 -63 -33 -90t-94 -27q-65 0 -95 27t-33 90z" />
    <glyph glyph-name="Uring" unicode="&#x16e;" horiz-adv-x="440" 
d="M220 -7q-86 0 -123.5 33.5t-38.5 110.5q-2 167 -2 331.5t2 331.5h88q-2 -167 -1.5 -335.5t1.5 -335.5q0 -32 17 -46t57 -14t57 14t17 46q0 167 1 335.5t-1 335.5h88q2 -167 2 -331.5t-2 -331.5q-1 -77 -38.5 -110.5t-123.5 -33.5zM221 760q-35 0 -61 24t-26 58t25.5 58.5
t61.5 24.5q35 0 60.5 -24.5t25.5 -58.5t-26 -58t-60 -24zM178 842q0 -16 12.5 -27.5t30.5 -11.5q17 0 29.5 11.5t12.5 27.5q0 17 -13 28.5t-29 11.5q-17 0 -30 -11.5t-13 -28.5z" />
    <glyph glyph-name="uring" unicode="&#x16f;" horiz-adv-x="429" 
d="M169 -8q-56 0 -85.5 31t-29.5 102v475h89l1 -483q0 -30 13 -44t43 -14q28 0 53 15t35 42v484h90v-600h-90v57h-15q-18 -34 -44 -49.5t-60 -15.5zM216 553q-32 0 -58.5 15t-42 40.5t-15.5 55.5t16 55.5t42 40.5t58 15q31 0 57 -15t42 -40.5t16 -55.5t-16 -55.5t-42 -40.5
t-57 -15zM154 664q0 -24 18.5 -41t43.5 -17q24 0 42.5 17t18.5 41t-18.5 40t-42.5 16q-25 0 -43.5 -16t-18.5 -40z" />
    <glyph glyph-name="Uhungarumlaut" unicode="&#x170;" horiz-adv-x="440" 
d="M220 -7q-86 0 -123.5 33.5t-38.5 110.5q-2 167 -2 331.5t2 331.5h88q-2 -167 -1.5 -335.5t1.5 -335.5q0 -32 17 -46t57 -14t57 14t17 46q0 167 1 335.5t-1 335.5h88q2 -167 2 -331.5t-2 -331.5q-1 -77 -38.5 -110.5t-123.5 -33.5zM303 835h-51v2l101 62h51v-2zM145 835v2
l101 62h51v-2l-101 -62h-51z" />
    <glyph glyph-name="uhungarumlaut" unicode="&#x171;" horiz-adv-x="429" 
d="M169 -8q-56 0 -85.5 31t-29.5 102v475h89l1 -483q0 -30 13 -44t43 -14q28 0 53 15t35 42v484h90v-600h-90v57h-15q-18 -34 -44 -49.5t-60 -15.5zM297 643h-47v2l109 127h48v-1zM133 643v2l110 127h47v-1l-109 -128h-48z" />
    <glyph glyph-name="Uogonek" unicode="&#x172;" horiz-adv-x="440" 
d="M220 -7q-86 0 -123.5 33.5t-38.5 110.5q-2 167 -2 331.5t2 331.5h88q-2 -167 -1.5 -335.5t1.5 -335.5q0 -32 17 -46t57 -14t57 14t17 46q0 167 1 335.5t-1 335.5h88q2 -167 2 -331.5t-2 -331.5q-1 -77 -38.5 -110.5t-123.5 -33.5zM220 -67q1 17 15 27t32 14l13 -11
l-10 -12t-5 -13q0 -8 7.5 -14t25.5 -6q8 0 22.5 1.5t23.5 2.5l9 -39q-13 -3 -30 -4.5t-28 -1.5q-37 0 -57 16t-18 40z" />
    <glyph glyph-name="uogonek" unicode="&#x173;" horiz-adv-x="429" 
d="M169 -8q-56 0 -85.5 31t-29.5 102v475h89l1 -483q0 -30 13 -44t43 -14q28 0 53 15t35 42v484h90v-600h-90v57h-15q-18 -34 -44 -49.5t-60 -15.5zM241 -51q1 17 15 27t32 14l1 22h42l6 -12q-51 -20 -51 -45q0 -9 7.5 -15t26.5 -6q9 0 22.5 1.5l22.5 2.5l8 -34
q-13 -3 -30 -4.5t-28 -1.5q-36 0 -56 13t-18 38z" />
    <glyph glyph-name="Wcircumflex" unicode="&#x174;" horiz-adv-x="689" 
d="M94 0l-57 800h89l18 -309l20 -412h40l23 412l38 304h158l38 -304l22 -412h40l21 412l19 309h89l-58 -800h-179l-25 257l-26 461h-39l-27 -461l-26 -257h-178zM207 835l93 76h67l93 -76h-70l-56 47l-56 -47h-71z" />
    <glyph glyph-name="wcircumflex" unicode="&#x175;" horiz-adv-x="621" 
d="M105 0l-74 600h90l31 -303l17 -230h20l18 230l31 301h146l30 -301l16 -230h21l18 230l31 303h89l-74 -600h-150l-23 231l-22 300h-20l-22 -299l-23 -232h-150zM202 643l78 120h58l77 -120h-62l-44 72l-44 -72h-63z" />
    <glyph glyph-name="Ycircumflex" unicode="&#x176;" horiz-adv-x="403" 
d="M157 0v275h-26l-100 525h91l36 -222l28 -229h30l28 229l37 222h90l-100 -525h-26v-275h-88zM73 835l93 76h67l93 -76h-70l-56 47l-56 -47h-71z" />
    <glyph glyph-name="ycircumflex" unicode="&#x177;" horiz-adv-x="377" 
d="M113 0l-91 600h92l35 -287l26 -246h22l30 246l33 287h92l-101 -669q-7 -46 -23.5 -76t-50 -45t-91.5 -15q-32 0 -68 5v69q12 -2 31.5 -3.5t35.5 -1.5q42 0 57 13.5t20 47.5l10 75h-59zM80 643l78 120h58l77 -120h-62l-44 72l-44 -72h-63z" />
    <glyph glyph-name="Ydieresis" unicode="&#x178;" horiz-adv-x="403" 
d="M157 0v275h-26l-100 525h91l36 -222l28 -229h30l28 229l37 222h90l-100 -525h-26v-275h-88zM222 849v65h89v-65h-89zM93 849v65h89v-65h-89z" />
    <glyph glyph-name="Zacute" unicode="&#x179;" horiz-adv-x="362" 
d="M31 0v73l206 648h-194v79h288v-76l-210 -645h192v-79h-282zM161 840v3l102 68h75v-2l-113 -69h-64z" />
    <glyph glyph-name="zacute" unicode="&#x17a;" horiz-adv-x="346" 
d="M26 0v57l198 476l-194 -1v67l290 1v-59l-201 -474h196v-67h-289zM144 653l86 120h69l-89 -120h-66z" />
    <glyph glyph-name="Zdotaccent" unicode="&#x17b;" horiz-adv-x="362" 
d="M31 0v73l206 648h-194v79h288v-76l-210 -645h192v-79h-282zM134 842v66h100v-66h-100z" />
    <glyph glyph-name="zdotaccent" unicode="&#x17c;" horiz-adv-x="346" 
d="M26 0v57l198 476l-194 -1v67l290 1v-59l-201 -474h196v-67h-289zM123 663v81h99v-81h-99z" />
    <glyph glyph-name="Zcaron" unicode="&#x17d;" horiz-adv-x="362" 
d="M31 0v73l206 648h-194v79h288v-76l-210 -645h192v-79h-282zM55 914h71l56 -47l56 47h70l-93 -75h-67z" />
    <glyph glyph-name="zcaron" unicode="&#x17e;" horiz-adv-x="346" 
d="M26 0v57l198 476l-194 -1v67l290 1v-59l-201 -474h196v-67h-289zM66 773h62l45 -73l45 73h62l-77 -120h-59z" />
    <glyph glyph-name="uni018F" unicode="&#x18f;" horiz-adv-x="438" 
d="M222 -7q-84 0 -121 33.5t-39 111.5q-1 74 -0.5 141.5t0.5 144.5h233q0 58 -1 118t-3 131q0 32 -16 45t-54 13q-39 0 -56.5 -13t-17.5 -45q-1 -39 -1 -82t1 -82h-88q-1 42 -1.5 75.5t0.5 76.5q3 78 40.5 111.5t122.5 33.5q84 0 120.5 -33.5t37.5 -111.5q2 -96 2.5 -179
t0 -166t-2.5 -179q-1 -77 -37.5 -110.5t-119.5 -33.5zM222 68q37 0 53 13t16 44q2 65 3 122t1 110h-146v-112.5t2 -119.5q0 -31 16.5 -44t54.5 -13z" />
    <glyph glyph-name="florin" unicode="&#x192;" horiz-adv-x="661" 
d="M118 -8q-18 0 -36 2t-31 5l11 66q13 -1 30.5 -2t29.5 -1q37 0 58 17t29 47l71 253h-111v52h126l69 247q19 69 60 100t119 31q18 0 36 -2.5t31 -4.5l-10 -65q-28 1 -61 1q-37 0 -58 -17t-29 -47l-69 -243h137v-52h-151l-72 -256q-19 -65 -57 -98t-122 -33z" />
    <glyph glyph-name="Ohorn" unicode="&#x1a0;" horiz-adv-x="468" 
d="M223 -7q-86 0 -124 34.5t-40 115.5q-1 97 -1.5 178t0 161.5t1.5 174.5q2 81 40 115.5t124 34.5q84 0 122 -34.5t40 -115.5q2 -95 3 -175t0 -161t-3 -178q-2 -81 -40 -115.5t-122 -34.5zM223 68q41 0 57 15t17 56q2 74 3 137.5t1 123.5t-1 123t-3 138q-1 40 -17 55.5
t-57 15.5q-42 0 -58.5 -15.5t-16.5 -55.5q-2 -73 -3 -136t-1 -122.5t1 -123.5t3 -140q0 -41 16.5 -56t58.5 -15zM364 608q-15 0 -28 2v46q15 -1 28 -1q37 1 51 15.5t16 50.5q1 17 1 40.5t-1 38.5h52q1 -16 1 -39.5t-1 -39.5q-4 -61 -31 -87t-88 -26z" />
    <glyph glyph-name="ohorn" unicode="&#x1a1;" horiz-adv-x="451" 
d="M214 -8q-86 0 -121 34.5t-39 113.5q-2 39 -2.5 96t0 117t2.5 107q4 80 39.5 114t120.5 34q86 0 120.5 -34.5t38.5 -113.5q2 -44 2.5 -100.5t0 -114t-2.5 -105.5q-4 -79 -39 -113.5t-120 -34.5zM214 60q39 0 54 15t16 46q4 90 4 178t-4 181q-1 32 -17 46t-53 14
q-38 0 -54.5 -15t-17.5 -47q-3 -78 -3 -171.5t3 -184.5q2 -33 18 -47.5t54 -14.5zM360 408q-15 0 -28 2v46q15 -1 28 -1q37 1 51 15.5t16 50.5q1 17 1 40.5t-1 38.5h52q1 -16 1 -39.5t-1 -39.5q-4 -61 -31 -87t-88 -26z" />
    <glyph glyph-name="Uhorn" unicode="&#x1af;" horiz-adv-x="467" 
d="M220 -7q-86 0 -123.5 33.5t-38.5 110.5q-2 167 -2 331.5t2 331.5h88q-2 -167 -1.5 -335.5t1.5 -335.5q0 -32 17 -46t57 -14t57 14t17 46q0 167 1 335.5t-1 335.5h88q2 -167 2 -331.5t-2 -331.5q-1 -77 -38.5 -110.5t-123.5 -33.5zM361 608q-15 0 -28 2v46q15 -1 28 -1
q37 1 51 15.5t16 50.5q1 17 1 40.5t-1 38.5h52q1 -16 1 -39.5t-1 -39.5q-4 -61 -31 -87t-88 -26z" />
    <glyph glyph-name="uhorn" unicode="&#x1b0;" horiz-adv-x="455" 
d="M169 -8q-56 0 -85.5 31t-29.5 102v475h89l1 -483q0 -30 13 -44t43 -14q28 0 53 15t35 42v484h90v-600h-90v57h-15q-18 -34 -44 -49.5t-60 -15.5zM363 408q-15 0 -28 2v46q15 -1 28 -1q37 1 51 15.5t16 50.5q1 17 1 40.5t-1 38.5h52q1 -16 1 -39.5t-1 -39.5
q-4 -61 -31 -87t-88 -26z" />
    <glyph glyph-name="uni01C4" unicode="&#x1c4;" horiz-adv-x="787" 
d="M57 0v800h158q84 0 121 -33t39 -109q1 -92 1.5 -175t0 -166t-1.5 -175q-2 -76 -38 -109t-117 -33h-163zM145 79h75q36 0 51 13t16 43q2 98 2.5 181.5t0 167t-2.5 182.5q-1 29 -17 42t-55 13h-70v-642zM456 0v73l206 648h-194v79h288v-76l-210 -645h192v-79h-282zM480 914
h71l56 -47l56 47h70l-93 -75h-67z" />
    <glyph glyph-name="uni01C5" unicode="&#x1c5;" horiz-adv-x="780" 
d="M57 0v800h158q84 0 121 -33t39 -109q1 -92 1.5 -175t0 -166t-1.5 -175q-2 -76 -38 -109t-117 -33h-163zM145 79h75q36 0 51 13t16 43q2 98 2.5 181.5t0 167t-2.5 182.5q-1 29 -17 42t-55 13h-70v-642zM460 0v57l198 476l-194 -1v67l290 1v-59l-201 -474h196v-67h-289z
M500 773h62l45 -73l45 73h62l-77 -120h-59z" />
    <glyph glyph-name="uni01C6" unicode="&#x1c6;" horiz-adv-x="764" 
d="M277 800h90v-800h-90v57h-16q-18 -32 -41 -48.5t-63 -16.5q-57 0 -84 31t-30 101q-2 52 -2.5 115.5t0 126t2.5 110.5q2 72 31.5 102t84.5 30q40 0 62.5 -16t40.5 -49h15v257zM189 59q29 0 53 13.5t35 43.5v368q-11 30 -34.5 43.5t-52.5 13.5q-30 0 -43 -13.5t-14 -43.5
q-2 -60 -3 -125.5t-0.5 -127t2.5 -111.5q1 -34 15 -47.5t42 -13.5zM444 0v57l198 476l-194 -1v67l290 1v-59l-201 -474h196v-67h-289zM484 773h62l45 -73l45 73h62l-77 -120h-59z" />
    <glyph glyph-name="uni01C7" unicode="&#x1c7;" horiz-adv-x="731" 
d="M57 0v800h88v-721h187v-79h-275zM536 -7q-79 0 -114.5 33.5t-37.5 112.5q-2 76 0 151h84q-1 -39 -1 -79.5t1 -79.5q1 -35 16 -49t52 -14q41 0 56 14t15 49v669h89v-661q0 -79 -37 -112.5t-123 -33.5z" />
    <glyph glyph-name="uni01C8" unicode="&#x1c8;" horiz-adv-x="558" 
d="M57 0v800h88v-721h187v-79h-275zM424 716v84h111v-84h-111zM295 -201v67q13 -1 32.5 -1.5t38.5 -0.5q37 0 52.5 13t15.5 44v679h91v-670q-1 -73 -38.5 -105t-119.5 -32q-15 0 -35.5 1.5t-36.5 4.5z" />
    <glyph glyph-name="uni01C9" unicode="&#x1c9;" horiz-adv-x="386" 
d="M51 0v800h88v-800h-88zM252 716v84h111v-84h-111zM123 -201v67q13 -1 32.5 -1.5t38.5 -0.5q37 0 52.5 13t15.5 44v679h91v-670q-1 -73 -38.5 -105t-119.5 -32q-15 0 -35.5 1.5t-36.5 4.5z" />
    <glyph glyph-name="uni01CA" unicode="&#x1ca;" horiz-adv-x="883" 
d="M57 0v800h177l47 -254l69 -467h43l-12 431l-6 290h89v-800h-183l-50 284l-59 437h-44l11 -417l6 -304h-88zM688 -7q-79 0 -114.5 33.5t-37.5 112.5q-2 76 0 151h84q-1 -39 -1 -79.5t1 -79.5q1 -35 16 -49t52 -14q41 0 56 14t15 49v669h89v-661q0 -79 -37 -112.5
t-123 -33.5z" />
    <glyph glyph-name="uni01CB" unicode="&#x1cb;" horiz-adv-x="716" 
d="M57 0v800h177l47 -254l69 -467h43l-12 431l-6 290h89v-800h-183l-50 284l-59 437h-44l11 -417l6 -304h-88zM582 716v84h111v-84h-111zM453 -201v67q13 -1 32.5 -1.5t38.5 -0.5q37 0 52.5 13t15.5 44v679h91v-670q-1 -73 -38.5 -105t-119.5 -32q-15 0 -35.5 1.5t-36.5 4.5
z" />
    <glyph glyph-name="uni01CC" unicode="&#x1cc;" horiz-adv-x="624" 
d="M51 0v600h89v-57h19q17 32 41 48.5t63 16.5q57 0 85 -31.5t28 -100.5v-476h-88l-1 483q0 30 -14 44t-44 14q-28 0 -53.5 -15t-35.5 -42v-484h-89zM490 716v84h111v-84h-111zM361 -201v67q13 -1 32.5 -1.5t38.5 -0.5q37 0 52.5 13t15.5 44v679h91v-670q-1 -73 -38.5 -105
t-119.5 -32q-15 0 -35.5 1.5t-36.5 4.5z" />
    <glyph glyph-name="uni01CD" unicode="&#x1cd;" horiz-adv-x="416" 
d="M31 0l89 800h175l89 -800h-90l-20 219h-132l-20 -219h-91zM149 298h117l-15 170l-21 253h-44l-21 -253zM78 914h71l56 -47l56 47h70l-93 -75h-67z" />
    <glyph glyph-name="uni01CE" unicode="&#x1ce;" horiz-adv-x="401" 
d="M153 -7q-58 0 -87 29.5t-34 92.5q-1 12 -1 24.5v24.5q4 55 30.5 92t94.5 68q24 12 51 22.5t55 19.5v113q0 32 -15.5 46t-49.5 14q-30 0 -47 -12t-19 -43q0 -13 -0.5 -32.5t0 -37t0.5 -25.5h-85q-2 39 -1 84q3 70 37 102.5t118 32.5q85 0 117 -34.5t32 -112.5l-1 -461h-88
v57h-13q-14 -31 -34.5 -47.5t-59.5 -16.5zM182 59q56 0 78 54l1 185q-21 -7 -41.5 -15.5t-45.5 -23.5q-33 -18 -43 -42t-11 -54v-23t1 -19q2 -29 18 -45.5t43 -16.5zM94 773h62l45 -73l45 73h62l-77 -120h-59z" />
    <glyph glyph-name="uni01CF" unicode="&#x1cf;" horiz-adv-x="202" 
d="M57 0v800h88v-800h-88zM-28 914h71l56 -47l56 47h70l-93 -75h-67z" />
    <glyph glyph-name="uni01D0" unicode="&#x1d0;" horiz-adv-x="191" 
d="M51 0v600h88v-600h-88zM-12 773h62l45 -73l45 73h62l-77 -120h-59z" />
    <glyph glyph-name="uni01D1" unicode="&#x1d1;" horiz-adv-x="444" 
d="M223 -7q-86 0 -124 34.5t-40 115.5q-1 97 -1.5 178t0 161.5t1.5 174.5q2 81 40 115.5t124 34.5q84 0 122 -34.5t40 -115.5q2 -95 3 -175t0 -161t-3 -178q-2 -81 -40 -115.5t-122 -34.5zM223 68q41 0 57 15t17 56q2 74 3 137.5t1 123.5t-1 123t-3 138q-1 40 -17 55.5
t-57 15.5q-42 0 -58.5 -15.5t-16.5 -55.5q-2 -73 -3 -136t-1 -122.5t1 -123.5t3 -140q0 -41 16.5 -56t58.5 -15zM94 914h71l56 -47l56 47h70l-93 -75h-67z" />
    <glyph glyph-name="uni01D2" unicode="&#x1d2;" horiz-adv-x="427" 
d="M214 -8q-86 0 -121 34.5t-39 113.5q-2 39 -2.5 96t0 117t2.5 107q4 80 39.5 114t120.5 34q86 0 120.5 -34.5t38.5 -113.5q2 -44 2.5 -100.5t0 -114t-2.5 -105.5q-4 -79 -39 -113.5t-120 -34.5zM214 60q39 0 54 15t16 46q4 90 4 178t-4 181q-1 32 -17 46t-53 14
q-38 0 -54.5 -15t-17.5 -47q-3 -78 -3 -171.5t3 -184.5q2 -33 18 -47.5t54 -14.5zM106 773h62l45 -73l45 73h62l-77 -120h-59z" />
    <glyph glyph-name="uni01D3" unicode="&#x1d3;" horiz-adv-x="440" 
d="M220 -7q-86 0 -123.5 33.5t-38.5 110.5q-2 167 -2 331.5t2 331.5h88q-2 -167 -1.5 -335.5t1.5 -335.5q0 -32 17 -46t57 -14t57 14t17 46q0 167 1 335.5t-1 335.5h88q2 -167 2 -331.5t-2 -331.5q-1 -77 -38.5 -110.5t-123.5 -33.5zM91 914h71l56 -47l56 47h70l-93 -75h-67
z" />
    <glyph glyph-name="uni01D4" unicode="&#x1d4;" horiz-adv-x="429" 
d="M169 -8q-56 0 -85.5 31t-29.5 102v475h89l1 -483q0 -30 13 -44t43 -14q28 0 53 15t35 42v484h90v-600h-90v57h-15q-18 -34 -44 -49.5t-60 -15.5zM108 773h62l45 -73l45 73h62l-77 -120h-59z" />
    <glyph glyph-name="uni01D5" unicode="&#x1d5;" horiz-adv-x="440" 
d="M220 -7q-86 0 -123.5 33.5t-38.5 110.5q-2 167 -2 331.5t2 331.5h88q-2 -167 -1.5 -335.5t1.5 -335.5q0 -32 17 -46t57 -14t57 14t17 46q0 167 1 335.5t-1 335.5h88q2 -167 2 -331.5t-2 -331.5q-1 -77 -38.5 -110.5t-123.5 -33.5zM240 849v65h89v-65h-89zM111 849v65h89
v-65h-89zM75 956v47h290v-47h-290z" />
    <glyph glyph-name="uni01D6" unicode="&#x1d6;" horiz-adv-x="429" 
d="M169 -8q-56 0 -85.5 31t-29.5 102v475h89l1 -483q0 -30 13 -44t43 -14q28 0 53 15t35 42v484h90v-600h-90v57h-15q-18 -34 -44 -49.5t-60 -15.5zM235 663v81h89v-81h-89zM106 663v81h89v-81h-89zM59 793v51h311v-51h-311z" />
    <glyph glyph-name="uni01D7" unicode="&#x1d7;" horiz-adv-x="440" 
d="M220 -7q-86 0 -123.5 33.5t-38.5 110.5q-2 167 -2 331.5t2 331.5h88q-2 -167 -1.5 -335.5t1.5 -335.5q0 -32 17 -46t57 -14t57 14t17 46q0 167 1 335.5t-1 335.5h88q2 -167 2 -331.5t-2 -331.5q-1 -77 -38.5 -110.5t-123.5 -33.5zM240 849v65h89v-65h-89zM111 849v65h89
v-65h-89zM196 954v3l102 68h75v-2l-113 -69h-64z" />
    <glyph glyph-name="uni01D8" unicode="&#x1d8;" horiz-adv-x="429" 
d="M169 -8q-56 0 -85.5 31t-29.5 102v475h89l1 -483q0 -30 13 -44t43 -14q28 0 53 15t35 42v484h90v-600h-90v57h-15q-18 -34 -44 -49.5t-60 -15.5zM235 663v81h89v-81h-89zM106 663v81h89v-81h-89zM185 787l86 120h69l-89 -120h-66z" />
    <glyph glyph-name="uni01D9" unicode="&#x1d9;" horiz-adv-x="440" 
d="M220 -7q-86 0 -123.5 33.5t-38.5 110.5q-2 167 -2 331.5t2 331.5h88q-2 -167 -1.5 -335.5t1.5 -335.5q0 -32 17 -46t57 -14t57 14t17 46q0 167 1 335.5t-1 335.5h88q2 -167 2 -331.5t-2 -331.5q-1 -77 -38.5 -110.5t-123.5 -33.5zM240 849v65h89v-65h-89zM111 849v65h89
v-65h-89zM91 1028h71l56 -47l56 47h70l-93 -75h-67z" />
    <glyph glyph-name="uni01DA" unicode="&#x1da;" horiz-adv-x="429" 
d="M169 -8q-56 0 -85.5 31t-29.5 102v475h89l1 -483q0 -30 13 -44t43 -14q28 0 53 15t35 42v484h90v-600h-90v57h-15q-18 -34 -44 -49.5t-60 -15.5zM235 663v81h89v-81h-89zM106 663v81h89v-81h-89zM108 907h62l45 -73l45 73h62l-77 -120h-59z" />
    <glyph glyph-name="uni01DB" unicode="&#x1db;" horiz-adv-x="440" 
d="M220 -7q-86 0 -123.5 33.5t-38.5 110.5q-2 167 -2 331.5t2 331.5h88q-2 -167 -1.5 -335.5t1.5 -335.5q0 -32 17 -46t57 -14t57 14t17 46q0 167 1 335.5t-1 335.5h88q2 -167 2 -331.5t-2 -331.5q-1 -77 -38.5 -110.5t-123.5 -33.5zM240 849v65h89v-65h-89zM111 849v65h89
v-65h-89zM77 1023v2h75l102 -68v-3h-64z" />
    <glyph glyph-name="uni01DC" unicode="&#x1dc;" horiz-adv-x="429" 
d="M169 -8q-56 0 -85.5 31t-29.5 102v475h89l1 -483q0 -30 13 -44t43 -14q28 0 53 15t35 42v484h90v-600h-90v57h-15q-18 -34 -44 -49.5t-60 -15.5zM235 663v81h89v-81h-89zM106 663v81h89v-81h-89zM93 907h65l90 -120h-65z" />
    <glyph glyph-name="uni01DD" unicode="&#x1dd;" horiz-adv-x="407" 
d="M131 387h-88q-1 16 -1.5 42t0.5 42q4 73 38.5 105t114.5 32q84 0 119.5 -32.5t39.5 -104.5q1 -46 2 -107.5t0.5 -123.5t-2.5 -110q-4 -74 -41 -106t-117 -32t-115 32t-39 103q0 11 -0.5 42.5t0 71.5t1.5 76h224q0 40 -1 81l-2 82q0 34 -16 46.5t-52 12.5q-35 0 -49.5 -13
t-16.5 -46v-40t1 -53zM196 61q38 0 53 14t15 43q1 33 1.5 65.5t0.5 67.5h-136q-1 -42 -1 -80.5t1 -52.5q3 -32 18.5 -44.5t47.5 -12.5z" />
    <glyph glyph-name="Gcaron" unicode="&#x1e6;" horiz-adv-x="429" 
d="M225 -7q-89 0 -126.5 33.5t-39.5 112.5q-5 261 0 519q3 80 40.5 114.5t124.5 34.5q85 0 122.5 -33.5t41.5 -111.5q2 -71 0 -142h-89q2 41 2 75t-2 75q-1 35 -16.5 48.5t-58.5 13.5q-44 0 -59.5 -13.5t-17.5 -48.5q-2 -98 -3 -184t0 -172t3 -183q2 -36 18 -49.5t60 -13.5
q45 0 61.5 13.5t18.5 49.5q2 67 0 133h-77v80h163q1 -61 1 -110.5t-1 -94.5q-3 -79 -41 -112.5t-125 -33.5zM93 914h71l56 -47l56 47h70l-93 -75h-67z" />
    <glyph glyph-name="gcaron" unicode="&#x1e7;" horiz-adv-x="436" 
d="M216 -173q-75 0 -119 22t-49 64q-1 6 -1.5 13t0.5 13q2 28 22 43.5t47 19.5v14q-54 13 -57 54q-1 6 -1 11t1 10q1 20 17 35.5t40 18.5v15q-32 14 -47 44t-18 77q-2 50 -2 94t2 95q5 74 41 106t117 32q107 0 137 -61h15q2 25 20.5 39t48.5 14v-69h-11q-25 0 -39.5 -16.5
t-14.5 -51.5q1 -53 1 -97t-2 -85q-4 -73 -39.5 -105.5t-115.5 -32.5q-4 0 -7.5 0.5t-6.5 0.5q-36 0 -50 -10t-14 -27v-5q0 -19 22 -25t68 -7q83 -3 125.5 -27t48.5 -79q2 -16 0 -32q-6 -60 -56 -82.5t-123 -22.5zM209 212q32 0 49.5 13t19.5 47q2 49 1.5 99t-2.5 109
q-1 32 -17 45.5t-51 13.5q-37 0 -54 -14t-18 -47q-1 -59 -1.5 -107t1.5 -98q2 -34 20 -47.5t52 -13.5zM218 -106q89 0 98 44q4 12 0 25q-8 37 -99 41q-46 2 -67 -9t-22 -35q-2 -11 0 -24q2 -22 23 -32t67 -10zM102 773h62l45 -73l45 73h62l-77 -120h-59z" />
    <glyph glyph-name="uni01EA" unicode="&#x1ea;" horiz-adv-x="444" 
d="M223 -7q-86 0 -124 34.5t-40 115.5q-1 97 -1.5 178t0 161.5t1.5 174.5q2 81 40 115.5t124 34.5q84 0 122 -34.5t40 -115.5q2 -95 3 -175t0 -161t-3 -178q-2 -81 -40 -115.5t-122 -34.5zM223 68q41 0 57 15t17 56q2 74 3 137.5t1 123.5t-1 123t-3 138q-1 40 -17 55.5
t-57 15.5q-42 0 -58.5 -15.5t-16.5 -55.5q-2 -73 -3 -136t-1 -122.5t1 -123.5t3 -140q0 -41 16.5 -56t58.5 -15zM226 -55q1 17 15 27t32 14l13 -11l-10 -12t-5 -13q0 -8 7.5 -14t25.5 -6q8 0 22.5 1.5t23.5 2.5l9 -39q-13 -3 -30 -4.5t-28 -1.5q-37 0 -57 16t-18 40z" />
    <glyph glyph-name="uni01EB" unicode="&#x1eb;" horiz-adv-x="427" 
d="M214 -8q-86 0 -121 34.5t-39 113.5q-2 39 -2.5 96t0 117t2.5 107q4 80 39.5 114t120.5 34q86 0 120.5 -34.5t38.5 -113.5q2 -44 2.5 -100.5t0 -114t-2.5 -105.5q-4 -79 -39 -113.5t-120 -34.5zM214 60q39 0 54 15t16 46q4 90 4 178t-4 181q-1 32 -17 46t-53 14
q-38 0 -54.5 -15t-17.5 -47q-3 -78 -3 -171.5t3 -184.5q2 -33 18 -47.5t54 -14.5zM240 -51q1 17 15 27t32 14l13 -11l-10 -12t-5 -13q0 -8 7.5 -14t25.5 -6q8 0 22.5 1.5t23.5 2.5l9 -39q-13 -3 -30 -4.5t-28 -1.5q-37 0 -57 16t-18 40z" />
    <glyph glyph-name="Aringacute" unicode="&#x1fa;" horiz-adv-x="416" 
d="M31 0l89 800h175l89 -800h-90l-20 219h-132l-20 -219h-91zM149 298h117l-15 170l-21 253h-44l-21 -253zM208 760q-35 0 -61 24t-26 58t25.5 58.5t61.5 24.5q35 0 60.5 -24.5t25.5 -58.5t-26 -58t-60 -24zM165 842q0 -16 12.5 -27.5t30.5 -11.5q17 0 29.5 11.5t12.5 27.5
q0 17 -13 28.5t-29 11.5q-17 0 -30 -11.5t-13 -28.5zM184 967v3l102 68h75v-2l-113 -69h-64z" />
    <glyph glyph-name="aringacute" unicode="&#x1fb;" horiz-adv-x="401" 
d="M153 -7q-58 0 -87 29.5t-34 92.5q-1 12 -1 24.5v24.5q4 55 30.5 92t94.5 68q24 12 51 22.5t55 19.5v113q0 32 -15.5 46t-49.5 14q-30 0 -47 -12t-19 -43q0 -13 -0.5 -32.5t0 -37t0.5 -25.5h-85q-2 39 -1 84q3 70 37 102.5t118 32.5q85 0 117 -34.5t32 -112.5l-1 -461h-88
v57h-13q-14 -31 -34.5 -47.5t-59.5 -16.5zM182 59q56 0 78 54l1 185q-21 -7 -41.5 -15.5t-45.5 -23.5q-33 -18 -43 -42t-11 -54v-23t1 -19q2 -29 18 -45.5t43 -16.5zM199 556q-32 0 -58.5 15t-42 40.5t-15.5 55.5t16 55.5t42 40.5t58 15q31 0 57 -15t42 -40.5t16 -55.5
t-16 -55.5t-42 -40.5t-57 -15zM137 667q0 -24 18.5 -41t43.5 -17q24 0 42.5 17t18.5 41t-18.5 40t-42.5 16q-25 0 -43.5 -16t-18.5 -40zM168 811l86 120h69l-89 -120h-66z" />
    <glyph glyph-name="AEacute" unicode="&#x1fc;" horiz-adv-x="604" 
d="M567 721h-190v-278h180v-79h-180v-285h190v-79h-278v215h-123l-39 -215h-96l148 800h388v-79zM182 294h107v427h-41l-37 -273zM322 840v3l102 68h75v-2l-113 -69h-64z" />
    <glyph glyph-name="aeacute" unicode="&#x1fd;" horiz-adv-x="596" 
d="M145 -7q-105 0 -113 121q-1 13 -1 25v25q4 48 33 83t87 63q23 11 48.5 21.5t51.5 19.5v128q0 27 -11.5 43.5t-49.5 16.5q-29 0 -43 -12t-15 -45q-1 -15 -1.5 -45t1.5 -48h-87q-1 18 -1.5 41t0.5 45q3 69 37 101t113 32q36 0 61.5 -7.5t41.5 -20.5q36 28 108 28
q74 0 109.5 -31t39.5 -104q0 -11 0.5 -39.5t0 -66.5t-1.5 -78h-214v-169q0 -34 16 -46.5t50 -12.5t47 13.5t14 45.5q1 24 1 45.5t-1 47.5h87q1 -15 1 -41.5v-42.5q-4 -73 -38 -105t-110 -32q-110 0 -140 65h-9q-14 -32 -44 -48t-68 -16zM339 356h127q1 42 1 76t-1 50
q-2 31 -16 44t-45 13q-34 0 -50 -13t-16 -44v-126zM178 59q17 0 34 8t28.5 29t11.5 61q-1 26 -1 57.5v70.5q-18 -6 -38 -14.5t-42 -23.5q-49 -30 -51 -84q-1 -8 -1 -18.5t2 -24.5q6 -61 57 -61zM271 653l86 120h69l-89 -120h-66z" />
    <glyph glyph-name="Oslashacute" unicode="&#x1fe;" horiz-adv-x="444" 
d="M223 -7q-86 0 -124 34.5t-40 115.5q-1 97 -1.5 178t0 161.5t1.5 174.5q2 81 40 115.5t124 34.5q84 0 122 -34.5t40 -115.5q2 -95 3 -175t0 -161t-3 -178q-2 -81 -40 -115.5t-122 -34.5zM148 661q-3 -81 -4 -149.5t-0.5 -135t1.5 -141.5l124 490q-16 7 -46 7
q-42 0 -58.5 -15.5t-16.5 -55.5zM223 68q41 0 57 15t17 56q2 82 3 151t1 135t-2 140l-123 -490q16 -7 47 -7zM199 840v3l102 68h75v-2l-113 -69h-64z" />
    <glyph glyph-name="oslashacute" unicode="&#x1ff;" horiz-adv-x="427" 
d="M214 -8q-86 0 -121 34.5t-39 113.5q-2 39 -2.5 96t0 117t2.5 107q4 80 39.5 114t120.5 34q86 0 120.5 -34.5t38.5 -113.5q2 -44 2.5 -100.5t0 -114t-2.5 -105.5q-4 -79 -39 -113.5t-120 -34.5zM142 478q-3 -71 -3.5 -156.5t2.5 -169.5l118 379q-16 9 -45 9
q-38 0 -54.5 -15t-17.5 -47zM214 60q39 0 54 15t16 46q3 80 3.5 158t-1.5 159l-116 -370q16 -8 44 -8zM184 653l86 120h69l-89 -120h-66z" />
    <glyph glyph-name="uni0200" unicode="&#x200;" horiz-adv-x="416" 
d="M31 0l89 800h175l89 -800h-90l-20 219h-132l-20 -219h-91zM149 298h117l-15 170l-21 253h-44l-21 -253zM130 835l-101 62v2h51l101 -62v-2h-51zM135 897v2h51l102 -62v-2h-51z" />
    <glyph glyph-name="uni0201" unicode="&#x201;" horiz-adv-x="401" 
d="M153 -7q-58 0 -87 29.5t-34 92.5q-1 12 -1 24.5v24.5q4 55 30.5 92t94.5 68q24 12 51 22.5t55 19.5v113q0 32 -15.5 46t-49.5 14q-30 0 -47 -12t-19 -43q0 -13 -0.5 -32.5t0 -37t0.5 -25.5h-85q-2 39 -1 84q3 70 37 102.5t118 32.5q85 0 117 -34.5t32 -112.5l-1 -461h-88
v57h-13q-14 -31 -34.5 -47.5t-59.5 -16.5zM182 59q56 0 78 54l1 185q-21 -7 -41.5 -15.5t-45.5 -23.5q-33 -18 -43 -42t-11 -54v-23t1 -19q2 -29 18 -45.5t43 -16.5zM116 643l-93 95v1h48l93 -94v-2h-48zM128 738v1h48l93 -94v-2h-48z" />
    <glyph glyph-name="uni0202" unicode="&#x202;" horiz-adv-x="416" 
d="M31 0l89 800h175l89 -800h-90l-20 219h-132l-20 -219h-91zM149 298h117l-15 170l-21 253h-44l-21 -253zM83 834q3 40 36.5 63.5t88.5 23.5t89 -23.5t36 -63.5h-59q0 19 -18 30t-48 11t-47.5 -11t-17.5 -30h-60z" />
    <glyph glyph-name="uni0203" unicode="&#x203;" horiz-adv-x="401" 
d="M153 -7q-58 0 -87 29.5t-34 92.5q-1 12 -1 24.5v24.5q4 55 30.5 92t94.5 68q24 12 51 22.5t55 19.5v113q0 32 -15.5 46t-49.5 14q-30 0 -47 -12t-19 -43q0 -13 -0.5 -32.5t0 -37t0.5 -25.5h-85q-2 39 -1 84q3 70 37 102.5t118 32.5q85 0 117 -34.5t32 -112.5l-1 -461h-88
v57h-13q-14 -31 -34.5 -47.5t-59.5 -16.5zM182 59q56 0 78 54l1 185q-21 -7 -41.5 -15.5t-45.5 -23.5q-33 -18 -43 -42t-11 -54v-23t1 -19q2 -29 18 -45.5t43 -16.5zM77 658h59q0 37 15.5 52.5t53.5 15.5q37 0 52.5 -15.5t16.5 -52.5h58q-3 63 -33 90t-94 27q-65 0 -95 -27
t-33 -90z" />
    <glyph glyph-name="uni0204" unicode="&#x204;" horiz-adv-x="371" 
d="M57 0v800h278v-79h-190v-278h180v-79h-180v-285h190v-79h-278zM116 834l-101 62v2h51l101 -62v-2h-51zM121 896v2h51l102 -62v-2h-51z" />
    <glyph glyph-name="uni0205" unicode="&#x205;" horiz-adv-x="407" 
d="M276 213h88q1 -16 1.5 -42t-0.5 -42q-4 -73 -38.5 -105t-114.5 -32q-84 0 -119.5 32.5t-39.5 104.5q-1 46 -2 107.5t-0.5 123.5t2.5 110q4 74 41 106t117 32t115 -32t39 -103q0 -11 0.5 -42.5t0 -71.5t-1.5 -76h-224q0 -40 1 -81l2 -82q0 -34 16 -46.5t52 -12.5
q35 0 49.5 13t16.5 46v40t-1 53zM211 539q-38 0 -53 -14t-15 -43q-1 -33 -1.5 -65.5t-0.5 -67.5h136q1 42 1 80.5t-1 52.5q-3 32 -18.5 44.5t-47.5 12.5zM125 643l-93 95v1h48l93 -94v-2h-48zM137 738v1h48l93 -94v-2h-48z" />
    <glyph glyph-name="uni0206" unicode="&#x206;" horiz-adv-x="371" 
d="M57 0v800h278v-79h-190v-278h180v-79h-180v-285h190v-79h-278zM69 833q3 40 36.5 63.5t88.5 23.5t89 -23.5t36 -63.5h-59q0 19 -18 30t-48 11t-47.5 -11t-17.5 -30h-60z" />
    <glyph glyph-name="uni0207" unicode="&#x207;" horiz-adv-x="407" 
d="M276 213h88q1 -16 1.5 -42t-0.5 -42q-4 -73 -38.5 -105t-114.5 -32q-84 0 -119.5 32.5t-39.5 104.5q-1 46 -2 107.5t-0.5 123.5t2.5 110q4 74 41 106t117 32t115 -32t39 -103q0 -11 0.5 -42.5t0 -71.5t-1.5 -76h-224q0 -40 1 -81l2 -82q0 -34 16 -46.5t52 -12.5
q35 0 49.5 13t16.5 46v40t-1 53zM211 539q-38 0 -53 -14t-15 -43q-1 -33 -1.5 -65.5t-0.5 -67.5h136q1 42 1 80.5t-1 52.5q-3 32 -18.5 44.5t-47.5 12.5zM86 658h59q0 37 15.5 52.5t53.5 15.5q37 0 52.5 -15.5t16.5 -52.5h58q-3 63 -33 90t-94 27q-65 0 -95 -27t-33 -90z
" />
    <glyph glyph-name="uni0208" unicode="&#x208;" horiz-adv-x="202" 
d="M57 0v800h88v-800h-88zM23 835l-101 62v2h51l101 -62v-2h-51zM28 897v2h51l102 -62v-2h-51z" />
    <glyph glyph-name="uni0209" unicode="&#x209;" horiz-adv-x="191" 
d="M51 0v600h88v-600h-88zM11 643l-93 95v1h48l93 -94v-2h-48zM23 738v1h48l93 -94v-2h-48z" />
    <glyph glyph-name="uni020A" unicode="&#x20a;" horiz-adv-x="202" 
d="M57 0v800h88v-800h-88zM-24 834q3 40 36.5 63.5t88.5 23.5t89 -23.5t36 -63.5h-59q0 19 -18 30t-48 11t-47.5 -11t-17.5 -30h-60z" />
    <glyph glyph-name="uni020B" unicode="&#x20b;" horiz-adv-x="191" 
d="M51 0v600h88v-600h-88zM-28 658h59q0 37 15.5 52.5t53.5 15.5q37 0 52.5 -15.5t16.5 -52.5h58q-3 63 -33 90t-94 27q-65 0 -95 -27t-33 -90z" />
    <glyph glyph-name="uni020C" unicode="&#x20c;" horiz-adv-x="444" 
d="M223 -7q-86 0 -124 34.5t-40 115.5q-1 97 -1.5 178t0 161.5t1.5 174.5q2 81 40 115.5t124 34.5q84 0 122 -34.5t40 -115.5q2 -95 3 -175t0 -161t-3 -178q-2 -81 -40 -115.5t-122 -34.5zM223 68q41 0 57 15t17 56q2 74 3 137.5t1 123.5t-1 123t-3 138q-1 40 -17 55.5
t-57 15.5q-42 0 -58.5 -15.5t-16.5 -55.5q-2 -73 -3 -136t-1 -122.5t1 -123.5t3 -140q0 -41 16.5 -56t58.5 -15zM145 835l-101 62v2h51l101 -62v-2h-51zM150 897v2h51l102 -62v-2h-51z" />
    <glyph glyph-name="uni020D" unicode="&#x20d;" horiz-adv-x="427" 
d="M214 -8q-86 0 -121 34.5t-39 113.5q-2 39 -2.5 96t0 117t2.5 107q4 80 39.5 114t120.5 34q86 0 120.5 -34.5t38.5 -113.5q2 -44 2.5 -100.5t0 -114t-2.5 -105.5q-4 -79 -39 -113.5t-120 -34.5zM214 60q39 0 54 15t16 46q4 90 4 178t-4 181q-1 32 -17 46t-53 14
q-38 0 -54.5 -15t-17.5 -47q-3 -78 -3 -171.5t3 -184.5q2 -33 18 -47.5t54 -14.5zM130 643l-93 95v1h48l93 -94v-2h-48zM142 738v1h48l93 -94v-2h-48z" />
    <glyph glyph-name="uni020E" unicode="&#x20e;" horiz-adv-x="444" 
d="M223 -7q-86 0 -124 34.5t-40 115.5q-1 97 -1.5 178t0 161.5t1.5 174.5q2 81 40 115.5t124 34.5q84 0 122 -34.5t40 -115.5q2 -95 3 -175t0 -161t-3 -178q-2 -81 -40 -115.5t-122 -34.5zM223 68q41 0 57 15t17 56q2 74 3 137.5t1 123.5t-1 123t-3 138q-1 40 -17 55.5
t-57 15.5q-42 0 -58.5 -15.5t-16.5 -55.5q-2 -73 -3 -136t-1 -122.5t1 -123.5t3 -140q0 -41 16.5 -56t58.5 -15zM98 834q3 40 36.5 63.5t88.5 23.5t89 -23.5t36 -63.5h-59q0 19 -18 30t-48 11t-47.5 -11t-17.5 -30h-60z" />
    <glyph glyph-name="uni020F" unicode="&#x20f;" horiz-adv-x="427" 
d="M214 -8q-86 0 -121 34.5t-39 113.5q-2 39 -2.5 96t0 117t2.5 107q4 80 39.5 114t120.5 34q86 0 120.5 -34.5t38.5 -113.5q2 -44 2.5 -100.5t0 -114t-2.5 -105.5q-4 -79 -39 -113.5t-120 -34.5zM214 60q39 0 54 15t16 46q4 90 4 178t-4 181q-1 32 -17 46t-53 14
q-38 0 -54.5 -15t-17.5 -47q-3 -78 -3 -171.5t3 -184.5q2 -33 18 -47.5t54 -14.5zM90 658h59q0 37 15.5 52.5t53.5 15.5q37 0 52.5 -15.5t16.5 -52.5h58q-3 63 -33 90t-94 27q-65 0 -95 -27t-33 -90z" />
    <glyph glyph-name="uni0210" unicode="&#x210;" horiz-adv-x="414" 
d="M57 0v800h157q79 0 115 -32t38 -106q3 -67 3 -117t-3 -106q-3 -96 -67 -123l82 -316h-93l-74 302h-70v-302h-88zM145 381h68q35 0 50 12.5t16 41.5q3 64 3 115.5t-3 115.5q-1 30 -15.5 42.5t-49.5 12.5h-69v-340zM128 835l-101 62v2h51l101 -62v-2h-51zM133 897v2h51
l102 -62v-2h-51z" />
    <glyph glyph-name="uni0211" unicode="&#x211;" horiz-adv-x="308" 
d="M51 0v600h91v-61h18q9 35 30.5 49t58.5 14q10 0 20 -0.5t19 -1.5v-69h-38q-46 0 -72.5 -14.5t-35.5 -50.5v-466h-91zM78 643l-93 95v1h48l93 -94v-2h-48zM90 738v1h48l93 -94v-2h-48z" />
    <glyph glyph-name="uni0212" unicode="&#x212;" horiz-adv-x="414" 
d="M57 0v800h157q79 0 115 -32t38 -106q3 -67 3 -117t-3 -106q-3 -96 -67 -123l82 -316h-93l-74 302h-70v-302h-88zM145 381h68q35 0 50 12.5t16 41.5q3 64 3 115.5t-3 115.5q-1 30 -15.5 42.5t-49.5 12.5h-69v-340zM80 834q3 40 36.5 63.5t88.5 23.5t89 -23.5t36 -63.5h-59
q0 19 -18 30t-48 11t-47.5 -11t-17.5 -30h-60z" />
    <glyph glyph-name="uni0213" unicode="&#x213;" horiz-adv-x="308" 
d="M51 0v600h91v-61h18q9 35 30.5 49t58.5 14q10 0 20 -0.5t19 -1.5v-69h-38q-46 0 -72.5 -14.5t-35.5 -50.5v-466h-91zM38 658h59q0 37 15.5 52.5t53.5 15.5q37 0 52.5 -15.5t16.5 -52.5h58q-3 63 -33 90t-94 27q-65 0 -95 -27t-33 -90z" />
    <glyph glyph-name="uni0214" unicode="&#x214;" horiz-adv-x="440" 
d="M220 -7q-86 0 -123.5 33.5t-38.5 110.5q-2 167 -2 331.5t2 331.5h88q-2 -167 -1.5 -335.5t1.5 -335.5q0 -32 17 -46t57 -14t57 14t17 46q0 167 1 335.5t-1 335.5h88q2 -167 2 -331.5t-2 -331.5q-1 -77 -38.5 -110.5t-123.5 -33.5zM143 835l-101 62v2h51l101 -62v-2h-51z
M148 897v2h51l102 -62v-2h-51z" />
    <glyph glyph-name="uni0215" unicode="&#x215;" horiz-adv-x="429" 
d="M169 -8q-56 0 -85.5 31t-29.5 102v475h89l1 -483q0 -30 13 -44t43 -14q28 0 53 15t35 42v484h90v-600h-90v57h-15q-18 -34 -44 -49.5t-60 -15.5zM131 643l-93 95v1h48l93 -94v-2h-48zM143 738v1h48l93 -94v-2h-48z" />
    <glyph glyph-name="uni0216" unicode="&#x216;" horiz-adv-x="440" 
d="M220 -7q-86 0 -123.5 33.5t-38.5 110.5q-2 167 -2 331.5t2 331.5h88q-2 -167 -1.5 -335.5t1.5 -335.5q0 -32 17 -46t57 -14t57 14t17 46q0 167 1 335.5t-1 335.5h88q2 -167 2 -331.5t-2 -331.5q-1 -77 -38.5 -110.5t-123.5 -33.5zM95 834q3 40 36.5 63.5t88.5 23.5
t89 -23.5t36 -63.5h-59q0 19 -18 30t-48 11t-47.5 -11t-17.5 -30h-60z" />
    <glyph glyph-name="uni0217" unicode="&#x217;" horiz-adv-x="429" 
d="M169 -8q-56 0 -85.5 31t-29.5 102v475h89l1 -483q0 -30 13 -44t43 -14q28 0 53 15t35 42v484h90v-600h-90v57h-15q-18 -34 -44 -49.5t-60 -15.5zM92 658h59q0 37 15.5 52.5t53.5 15.5q37 0 52.5 -15.5t16.5 -52.5h58q-3 63 -33 90t-94 27q-65 0 -95 -27t-33 -90z" />
    <glyph glyph-name="uni0218" unicode="&#x218;" horiz-adv-x="442" 
d="M223 -7q-85 0 -123 33.5t-40 112.5q-2 40 -1.5 75t2.5 76h85q-2 -43 -2.5 -83t2.5 -81q1 -32 18.5 -45t57.5 -13q38 0 54.5 13t19.5 45q2 32 2 69.5t-2 69.5q-2 38 -16.5 57.5t-47.5 27.5l-61 15q-63 15 -87 53.5t-26 113.5q-1 31 -0.5 63.5t0.5 66.5q3 78 40.5 111.5
t123.5 33.5q82 0 119 -33.5t40 -111.5q1 -30 0.5 -66.5t-1.5 -75.5h-85q1 44 1.5 81t-1.5 73q-1 32 -18 45t-56 13q-38 0 -55 -13t-19 -45q-3 -37 -2.5 -71t2.5 -71q1 -41 12 -60.5t38 -26.5l56 -12q72 -17 100.5 -55.5t30.5 -112.5q2 -30 1.5 -63.5t-1.5 -62.5
q-3 -79 -40.5 -112.5t-120.5 -33.5zM169 -111v66h99v-68l-29 -48h-47l26 50h-49z" />
    <glyph glyph-name="uni0219" unicode="&#x219;" horiz-adv-x="395" 
d="M194 -8q-79 0 -111 32t-35 105q-1 23 -0.5 43.5t1.5 40.5h80q-2 -32 -1.5 -54.5t0.5 -38.5q1 -34 16.5 -47t49.5 -13q37 0 53.5 13.5t17.5 46.5q1 34 0 63q-1 32 -10 48.5t-36 24.5l-57 16q-61 17 -87.5 49t-27.5 98q-1 29 0 51q1 74 34.5 106t117.5 32q78 0 111 -31.5
t35 -104.5v-23.5t-0.5 -32t-1.5 -27.5h-82q1 23 1 50v43q-1 32 -14.5 45t-48.5 13q-36 0 -49.5 -12.5t-15.5 -45.5q0 -9 -0.5 -22.5t-0.5 -31.5q1 -34 9 -54.5t39 -28.5l54 -14q58 -15 86 -47.5t28 -97.5v-29.5t-1 -30.5q-2 -71 -36 -102.5t-118 -31.5zM150 -138v82h113v-72
l-43 -76h-55l35 66h-50z" />
    <glyph glyph-name="uni021A" unicode="&#x21a;" horiz-adv-x="398" 
d="M155 0v721h-124v79h336v-79h-124v-721h-88zM147 -111v66h99v-68l-29 -48h-47l26 50h-49z" />
    <glyph glyph-name="uni021B" unicode="&#x21b;" horiz-adv-x="333" 
d="M251 -8q-86 0 -121 31.5t-35 106.5l-1 401h-48v69h51v170h92l-3 -170h105v-69h-108l1 -411q0 -35 13.5 -47.5t54.5 -12.5q15 0 25.5 0.5t25.5 2.5v-66q-23 -5 -52 -5zM156 -138v82h113v-72l-43 -76h-55l35 66h-50z" />
    <glyph glyph-name="uni022A" unicode="&#x22a;" horiz-adv-x="444" 
d="M223 -7q-86 0 -124 34.5t-40 115.5q-1 97 -1.5 178t0 161.5t1.5 174.5q2 81 40 115.5t124 34.5q84 0 122 -34.5t40 -115.5q2 -95 3 -175t0 -161t-3 -178q-2 -81 -40 -115.5t-122 -34.5zM223 68q41 0 57 15t17 56q2 74 3 137.5t1 123.5t-1 123t-3 138q-1 40 -17 55.5
t-57 15.5q-42 0 -58.5 -15.5t-16.5 -55.5q-2 -73 -3 -136t-1 -122.5t1 -123.5t3 -140q0 -41 16.5 -56t58.5 -15zM243 849v65h89v-65h-89zM114 849v65h89v-65h-89zM77 956v47h290v-47h-290z" />
    <glyph glyph-name="uni022B" unicode="&#x22b;" horiz-adv-x="427" 
d="M214 -8q-86 0 -121 34.5t-39 113.5q-2 39 -2.5 96t0 117t2.5 107q4 80 39.5 114t120.5 34q86 0 120.5 -34.5t38.5 -113.5q2 -44 2.5 -100.5t0 -114t-2.5 -105.5q-4 -79 -39 -113.5t-120 -34.5zM214 60q39 0 54 15t16 46q4 90 4 178t-4 181q-1 32 -17 46t-53 14
q-38 0 -54.5 -15t-17.5 -47q-3 -78 -3 -171.5t3 -184.5q2 -33 18 -47.5t54 -14.5zM234 663v81h89v-81h-89zM105 663v81h89v-81h-89zM58 793v51h311v-51h-311z" />
    <glyph glyph-name="uni022C" unicode="&#x22c;" horiz-adv-x="444" 
d="M223 -7q-86 0 -124 34.5t-40 115.5q-1 97 -1.5 178t0 161.5t1.5 174.5q2 81 40 115.5t124 34.5q84 0 122 -34.5t40 -115.5q2 -95 3 -175t0 -161t-3 -178q-2 -81 -40 -115.5t-122 -34.5zM223 68q41 0 57 15t17 56q2 74 3 137.5t1 123.5t-1 123t-3 138q-1 40 -17 55.5
t-57 15.5q-42 0 -58.5 -15.5t-16.5 -55.5q-2 -73 -3 -136t-1 -122.5t1 -123.5t3 -140q0 -41 16.5 -56t58.5 -15zM91 843q3 38 26.5 56t61.5 13q24 -2 38 -9.5t26.5 -14.5t29.5 -7q39 -3 39 31h41q-1 -80 -81 -74q-24 1 -39.5 8t-28.5 14.5t-29 9.5q-39 7 -42 -27h-42z
M75 947v47h290v-47h-290z" />
    <glyph glyph-name="uni022D" unicode="&#x22d;" horiz-adv-x="427" 
d="M214 -8q-86 0 -121 34.5t-39 113.5q-2 39 -2.5 96t0 117t2.5 107q4 80 39.5 114t120.5 34q86 0 120.5 -34.5t38.5 -113.5q2 -44 2.5 -100.5t0 -114t-2.5 -105.5q-4 -79 -39 -113.5t-120 -34.5zM214 60q39 0 54 15t16 46q4 90 4 178t-4 181q-1 32 -17 46t-53 14
q-38 0 -54.5 -15t-17.5 -47q-3 -78 -3 -171.5t3 -184.5q2 -33 18 -47.5t54 -14.5zM78 657q4 47 29 67.5t61 17.5q25 -1 40.5 -11t29 -20t30.5 -11q18 -1 29.5 9t11.5 26h41q-1 -43 -24.5 -63.5t-59.5 -19.5q-24 1 -40 10.5t-30 19.5t-31 12q-17 1 -30.5 -7.5t-16.5 -29.5
h-40zM56 797v51h311v-51h-311z" />
    <glyph glyph-name="uni0230" unicode="&#x230;" horiz-adv-x="444" 
d="M223 -7q-86 0 -124 34.5t-40 115.5q-1 97 -1.5 178t0 161.5t1.5 174.5q2 81 40 115.5t124 34.5q84 0 122 -34.5t40 -115.5q2 -95 3 -175t0 -161t-3 -178q-2 -81 -40 -115.5t-122 -34.5zM223 68q41 0 57 15t17 56q2 74 3 137.5t1 123.5t-1 123t-3 138q-1 40 -17 55.5
t-57 15.5q-42 0 -58.5 -15.5t-16.5 -55.5q-2 -73 -3 -136t-1 -122.5t1 -123.5t3 -140q0 -41 16.5 -56t58.5 -15zM173 842v66h100v-66h-100zM77 950v47h290v-47h-290z" />
    <glyph glyph-name="uni0231" unicode="&#x231;" horiz-adv-x="427" 
d="M214 -8q-86 0 -121 34.5t-39 113.5q-2 39 -2.5 96t0 117t2.5 107q4 80 39.5 114t120.5 34q86 0 120.5 -34.5t38.5 -113.5q2 -44 2.5 -100.5t0 -114t-2.5 -105.5q-4 -79 -39 -113.5t-120 -34.5zM214 60q39 0 54 15t16 46q4 90 4 178t-4 181q-1 32 -17 46t-53 14
q-38 0 -54.5 -15t-17.5 -47q-3 -78 -3 -171.5t3 -184.5q2 -33 18 -47.5t54 -14.5zM164 663v81h99v-81h-99zM58 802v51h311v-51h-311z" />
    <glyph glyph-name="uni0232" unicode="&#x232;" horiz-adv-x="403" 
d="M157 0v275h-26l-100 525h91l36 -222l28 -229h30l28 229l37 222h90l-100 -525h-26v-275h-88zM57 842v47h290v-47h-290z" />
    <glyph glyph-name="uni0233" unicode="&#x233;" horiz-adv-x="377" 
d="M113 0l-91 600h92l35 -287l26 -246h22l30 246l33 287h92l-101 -669q-7 -46 -23.5 -76t-50 -45t-91.5 -15q-32 0 -68 5v69q12 -2 31.5 -3.5t35.5 -1.5q42 0 57 13.5t20 47.5l10 75h-59zM34 659v51h311v-51h-311z" />
    <glyph glyph-name="uni0237" unicode="&#x237;" horiz-adv-x="214" 
d="M-68 -201v67q13 -1 32.5 -1.5t38.5 -0.5q37 0 52.5 13t15.5 44v679h91v-670q-1 -73 -38.5 -105t-119.5 -32q-15 0 -35.5 1.5t-36.5 4.5z" />
    <glyph glyph-name="uni0259" unicode="&#x259;" horiz-adv-x="407" 
d="M131 387h-88q-1 16 -1.5 42t0.5 42q4 73 38.5 105t114.5 32q84 0 119.5 -32.5t39.5 -104.5q1 -46 2 -107.5t0.5 -123.5t-2.5 -110q-4 -74 -41 -106t-117 -32t-115 32t-39 103q0 11 -0.5 42.5t0 71.5t1.5 76h224q0 40 -1 81l-2 82q0 34 -16 46.5t-52 12.5q-35 0 -49.5 -13
t-16.5 -46v-40t1 -53zM196 61q38 0 53 14t15 43q1 33 1.5 65.5t0.5 67.5h-136q-1 -42 -1 -80.5t1 -52.5q3 -32 18.5 -44.5t47.5 -12.5z" />
    <glyph glyph-name="uni02B9" unicode="&#x2b9;" horiz-adv-x="188" 
d="M52 691v109h85v-109l-19 -117h-47z" />
    <glyph glyph-name="uni02BA" unicode="&#x2ba;" horiz-adv-x="337" 
d="M69 574l-17 117v109h80v-109l-17 -117h-46zM205 691v109h81v-109l-17 -117h-46z" />
    <glyph glyph-name="uni02BB" unicode="&#x2bb;" horiz-adv-x="216" 
d="M51 662v73l43 75h55l-34 -66h49v-82h-113z" />
    <glyph glyph-name="uni02BC" unicode="&#x2bc;" horiz-adv-x="188" 
d="M52 691v109h85v-109l-19 -117h-47z" />
    <glyph glyph-name="uni02BE" unicode="&#x2be;" horiz-adv-x="210" 
d="M46 684v55q39 -3 68 -13.5t29 -25.5t-30 -25.5t-65 -13.5v22z" />
    <glyph glyph-name="uni02BF" unicode="&#x2bf;" horiz-adv-x="210" 
d="M46 700q0 30 16 54t43 38t60 12v-55q-25 3 -43.5 -12t-18.5 -37t18.5 -36.5t40.5 -11.5v-56q-30 -2 -56.5 12t-43 38t-16.5 54z" />
    <glyph glyph-name="circumflex" unicode="&#x2c6;" horiz-adv-x="316" 
d="M51 643l78 120h58l77 -120h-62l-44 72l-44 -72h-63z" />
    <glyph glyph-name="caron" unicode="&#x2c7;" horiz-adv-x="316" 
d="M51 773h62l45 -73l45 73h62l-77 -120h-59z" />
    <glyph glyph-name="uni02C8" unicode="&#x2c8;" horiz-adv-x="184" 
d="M51 428v372h81v-372h-81z" />
    <glyph glyph-name="uni02C9" unicode="&#x2c9;" horiz-adv-x="413" 
d="M51 659v51h311v-51h-311z" />
    <glyph glyph-name="uni02CA" unicode="&#x2ca;" horiz-adv-x="293" 
d="M242 800h-80l-111 -226h52z" />
    <glyph glyph-name="uni02CB" unicode="&#x2cb;" horiz-adv-x="293" 
d="M51 800h80l111 -226h-52z" />
    <glyph glyph-name="uni02CC" unicode="&#x2cc;" horiz-adv-x="184" 
d="M51 -200v388h81v-388h-81z" />
    <glyph glyph-name="breve" unicode="&#x2d8;" horiz-adv-x="357" 
d="M51 767h59q0 -37 15.5 -52.5t53.5 -15.5q37 0 52.5 15.5t16.5 52.5h58q-3 -63 -33 -90t-94 -27q-65 0 -95 27t-33 90z" />
    <glyph glyph-name="dotaccent" unicode="&#x2d9;" horiz-adv-x="202" 
d="M51 663v81h99v-81h-99z" />
    <glyph glyph-name="ring" unicode="&#x2da;" horiz-adv-x="333" 
d="M167 601q-32 0 -58.5 15t-42 40.5t-15.5 55.5t16 55.5t42 40.5t58 15q31 0 57 -15t42 -40.5t16 -55.5t-16 -55.5t-42 -40.5t-57 -15zM105 712q0 -24 18.5 -41t43.5 -17q24 0 42.5 17t18.5 41t-18.5 40t-42.5 16q-25 0 -43.5 -16t-18.5 -40z" />
    <glyph glyph-name="ogonek" unicode="&#x2db;" horiz-adv-x="235" 
d="M51 -51q1 17 15 27t32 14l1 22h42l6 -12q-51 -20 -51 -45q0 -9 7.5 -15t26.5 -6q9 0 22.5 1.5l22.5 2.5l8 -34q-13 -3 -30 -4.5t-28 -1.5q-36 0 -56 13t-18 38z" />
    <glyph glyph-name="tilde" unicode="&#x2dc;" horiz-adv-x="374" 
d="M51 657q4 47 29 67.5t61 17.5q25 -1 40.5 -11t29 -20t30.5 -11q18 -1 29.5 9t11.5 26h41q-1 -43 -24.5 -63.5t-59.5 -19.5q-24 1 -40 10.5t-30 19.5t-31 12q-17 1 -30.5 -7.5t-16.5 -29.5h-40z" />
    <glyph glyph-name="hungarumlaut" unicode="&#x2dd;" horiz-adv-x="376" 
d="M215 643h-47v2l109 127h48v-1zM51 643v2l110 127h47v-1l-109 -128h-48z" />
    <glyph glyph-name="gravecomb" unicode="&#x300;" 
d="M51 773h65l90 -120h-65z" />
    <glyph glyph-name="acutecomb" unicode="&#x301;" 
d="M44 643l86 120h69l-89 -120h-66z" />
    <glyph glyph-name="uni0302" unicode="&#x302;" 
d="M51 643l78 120h58l77 -120h-62l-44 72l-44 -72h-63z" />
    <glyph glyph-name="tildecomb" unicode="&#x303;" 
d="M51 657q4 47 29 67.5t61 17.5q25 -1 40.5 -11t29 -20t30.5 -11q18 -1 29.5 9t11.5 26h41q-1 -43 -24.5 -63.5t-59.5 -19.5q-24 1 -40 10.5t-30 19.5t-31 12q-17 1 -30.5 -7.5t-16.5 -29.5h-40z" />
    <glyph glyph-name="uni0304" unicode="&#x304;" 
d="M51 659v51h311v-51h-311z" />
    <glyph glyph-name="uni0306" unicode="&#x306;" 
d="M51 767h59q0 -37 15.5 -52.5t53.5 -15.5q37 0 52.5 15.5t16.5 52.5h58q-3 -63 -33 -90t-94 -27q-65 0 -95 27t-33 90z" />
    <glyph glyph-name="uni0307" unicode="&#x307;" 
d="M51 663v81h99v-81h-99z" />
    <glyph glyph-name="uni0308" unicode="&#x308;" 
d="M180 663v81h89v-81h-89zM51 663v81h89v-81h-89z" />
    <glyph glyph-name="hookabovecomb" unicode="&#x309;" 
d="M51 739q28 5 60 5q71 0 71 -52q0 -26 -15.5 -39.5t-55.5 -12.5v-28h-42v57l4 4h38q12 0 20 4.5t8 14.5q0 17 -28 17q-13 0 -27.5 -1t-23.5 -2z" />
    <glyph glyph-name="uni030A" unicode="&#x30a;" 
d="M167 601q-32 0 -58.5 15t-42 40.5t-15.5 55.5t16 55.5t42 40.5t58 15q31 0 57 -15t42 -40.5t16 -55.5t-16 -55.5t-42 -40.5t-57 -15zM105 712q0 -24 18.5 -41t43.5 -17q24 0 42.5 17t18.5 41t-18.5 40t-42.5 16q-25 0 -43.5 -16t-18.5 -40z" />
    <glyph glyph-name="uni030B" unicode="&#x30b;" 
d="M215 643h-47v2l109 127h48v-1zM51 643v2l110 127h47v-1l-109 -128h-48z" />
    <glyph glyph-name="uni030C" unicode="&#x30c;" 
d="M48 773h62l45 -73l45 73h62l-77 -120h-59z" />
    <glyph glyph-name="uni030F" unicode="&#x30f;" 
d="M154 643l-93 95v1h48l93 -94v-2h-48zM166 738v1h48l93 -94v-2h-48z" />
    <glyph glyph-name="uni0311" unicode="&#x311;" 
d="M51 658h59q0 37 15.5 52.5t53.5 15.5q37 0 52.5 -15.5t16.5 -52.5h58q-3 63 -33 90t-94 27q-65 0 -95 -27t-33 -90z" />
    <glyph glyph-name="uni0312" unicode="&#x312;" 
d="M51 662v73l43 75h55l-34 -66h49v-82h-113z" />
    <glyph glyph-name="uni031B" unicode="&#x31b;" 
d="M78 503q-15 0 -28 2v46q15 -1 28 -1q37 1 51 15.5t16 50.5q1 17 1 40.5t-1 38.5h52q1 -16 1 -39.5t-1 -39.5q-4 -61 -31 -87t-88 -26z" />
    <glyph glyph-name="dotbelowcomb" unicode="&#x323;" 
d="M51 -158v81h100v-81h-100z" />
    <glyph glyph-name="uni0324" unicode="&#x324;" 
d="M180 -112v81h89v-81h-89zM51 -112v81h89v-81h-89z" />
    <glyph glyph-name="uni0326" unicode="&#x326;" 
d="M51 -138v82h113v-72l-43 -76h-55l35 66h-50z" />
    <glyph glyph-name="uni0327" unicode="&#x327;" 
d="M115 -138q-13 0 -30 1t-31 4l9 34q21 -3 52 -2q28 0 28 16q0 11 -8 15.5t-20 4.5h-62l-4 4v68h47v-38h19q30 0 51 -12t21 -42q0 -52 -72 -53z" />
    <glyph glyph-name="uni0328" unicode="&#x328;" 
d="M52 -51q1 17 15 27t32 14l1 22h42l6 -12q-51 -20 -51 -45q0 -9 7.5 -15t26.5 -6q9 0 22.5 1.5l22.5 2.5l8 -34q-13 -3 -30 -4.5t-28 -1.5q-36 0 -56 13t-18 38z" />
    <glyph glyph-name="uni032E" unicode="&#x32e;" 
d="M51 -47h59q0 -37 15.5 -52.5t53.5 -15.5q37 0 52.5 15.5t16.5 52.5h58q-3 -63 -33 -90t-94 -27q-65 0 -95 27t-33 90z" />
    <glyph glyph-name="uni0331" unicode="&#x331;" 
d="M51 -94v51h311v-51h-311z" />
    <glyph glyph-name="uni0335" unicode="&#x335;" 
d="M51 353v47h223v-47h-223z" />
    <glyph glyph-name="pi" unicode="&#x3c0;" horiz-adv-x="593" 
d="M145 0v520h-85v79h456v-79h-93v-22q0 -91 -1 -185.5t1 -189.5q1 -34 12 -47t51 -13q13 0 23.5 1t23.5 2v-66q-21 -5 -48 -5q-57 0 -88.5 14t-45.5 44t-16 78q-1 38 -2 69.5t-1 68t0.5 88.5t0.5 129v34h-99v-520h-89z" />
    <glyph glyph-name="uni1E08" unicode="&#x1e08;" horiz-adv-x="435" 
d="M223 -8q-85 0 -124 34t-40 112q-2 95 -2.5 178.5t0 166.5t2.5 179q1 76 40.5 110.5t122.5 34.5t122.5 -35t42.5 -111q2 -37 1.5 -70.5t-1.5 -71.5h-88q1 39 1 73t-1 73q-1 38 -18.5 52.5t-58.5 14.5q-40 0 -57 -14.5t-18 -52.5q-2 -76 -2.5 -140.5t-0.5 -125t0.5 -125
t2.5 -139.5q1 -39 18 -53.5t58 -14.5q42 0 60 14.5t20 53.5q1 33 1 67t-2 88h89q1 -45 1.5 -81t-1.5 -71q-3 -78 -42.5 -112t-125.5 -34zM265 -132q-13 0 -30 1t-31 4l9 34q21 -3 52 -2q28 0 28 16q0 11 -8 15.5t-20 4.5h-62l-4 4v68h47v-38h19q30 0 51 -12t21 -42
q0 -52 -72 -53zM197 840v3l102 68h75v-2l-113 -69h-64z" />
    <glyph glyph-name="uni1E09" unicode="&#x1e09;" horiz-adv-x="406" 
d="M53 129q-1 45 -2 106.5t-0.5 124t2.5 110.5q4 74 40.5 106t116.5 32t116.5 -31.5t38.5 -103.5v-43.5t-1 -40.5h-88q1 22 1 48v45q-1 32 -16 45t-51 13t-51.5 -13t-15.5 -45q-3 -93 -3 -180.5t3 -181.5q0 -33 16 -46.5t52 -13.5q35 0 50 13.5t16 46.5v41.5t-1 51.5h88
q1 -17 1 -42v-42q-4 -73 -39.5 -105t-114.5 -32q-83 0 -118.5 32t-39.5 105zM250 -132q-13 0 -30 1t-31 4l9 34q21 -3 52 -2q28 0 28 16q0 11 -8 15.5t-20 4.5h-62l-4 4v68h47v-38h19q30 0 51 -12t21 -42q0 -52 -72 -53zM180 653l86 120h69l-89 -120h-66z" />
    <glyph glyph-name="uni1E0C" unicode="&#x1e0c;" horiz-adv-x="434" 
d="M57 0v800h158q84 0 121 -33t39 -109q1 -92 1.5 -175t0 -166t-1.5 -175q-2 -76 -38 -109t-117 -33h-163zM145 79h75q36 0 51 13t16 43q2 98 2.5 181.5t0 167t-2.5 182.5q-1 29 -17 42t-55 13h-70v-642zM155 -111v66h99v-66h-99z" />
    <glyph glyph-name="uni1E0D" unicode="&#x1e0d;" horiz-adv-x="418" 
d="M277 800h90v-800h-90v57h-16q-18 -32 -41 -48.5t-63 -16.5q-57 0 -84 31t-30 101q-2 52 -2.5 115.5t0 126t2.5 110.5q2 72 31.5 102t84.5 30q40 0 62.5 -16t40.5 -49h15v257zM189 59q29 0 53 13.5t35 43.5v368q-11 30 -34.5 43.5t-52.5 13.5q-30 0 -43 -13.5t-14 -43.5
q-2 -60 -3 -125.5t-0.5 -127t2.5 -111.5q1 -34 15 -47.5t42 -13.5zM149 -158v81h100v-81h-100z" />
    <glyph glyph-name="uni1E0E" unicode="&#x1e0e;" horiz-adv-x="434" 
d="M57 0v800h158q84 0 121 -33t39 -109q1 -92 1.5 -175t0 -166t-1.5 -175q-2 -76 -38 -109t-117 -33h-163zM145 79h75q36 0 51 13t16 43q2 98 2.5 181.5t0 167t-2.5 182.5q-1 29 -17 42t-55 13h-70v-642zM68 -95v47h290v-47h-290z" />
    <glyph glyph-name="uni1E0F" unicode="&#x1e0f;" horiz-adv-x="418" 
d="M277 800h90v-800h-90v57h-16q-18 -32 -41 -48.5t-63 -16.5q-57 0 -84 31t-30 101q-2 52 -2.5 115.5t0 126t2.5 110.5q2 72 31.5 102t84.5 30q40 0 62.5 -16t40.5 -49h15v257zM189 59q29 0 53 13.5t35 43.5v368q-11 30 -34.5 43.5t-52.5 13.5q-30 0 -43 -13.5t-14 -43.5
q-2 -60 -3 -125.5t-0.5 -127t2.5 -111.5q1 -34 15 -47.5t42 -13.5zM48 -94v51h311v-51h-311z" />
    <glyph glyph-name="uni1E14" unicode="&#x1e14;" horiz-adv-x="371" 
d="M57 0v800h278v-79h-190v-278h180v-79h-180v-285h190v-79h-278zM49 841v47h290v-47h-290zM51 999v2h75l102 -68v-3h-64z" />
    <glyph glyph-name="uni1E15" unicode="&#x1e15;" horiz-adv-x="407" 
d="M276 213h88q1 -16 1.5 -42t-0.5 -42q-4 -73 -38.5 -105t-114.5 -32q-84 0 -119.5 32.5t-39.5 104.5q-1 46 -2 107.5t-0.5 123.5t2.5 110q4 74 41 106t117 32t115 -32t39 -103q0 -11 0.5 -42.5t0 -71.5t-1.5 -76h-224q0 -40 1 -81l2 -82q0 -34 16 -46.5t52 -12.5
q35 0 49.5 13t16.5 46v40t-1 53zM211 539q-38 0 -53 -14t-15 -43q-1 -33 -1.5 -65.5t-0.5 -67.5h136q1 42 1 80.5t-1 52.5q-3 32 -18.5 44.5t-47.5 12.5zM53 659v51h311v-51h-311zM87 883h65l90 -120h-65z" />
    <glyph glyph-name="uni1E16" unicode="&#x1e16;" horiz-adv-x="371" 
d="M57 0v800h278v-79h-190v-278h180v-79h-180v-285h190v-79h-278zM49 841v47h290v-47h-290zM170 930v3l102 68h75v-2l-113 -69h-64z" />
    <glyph glyph-name="uni1E17" unicode="&#x1e17;" horiz-adv-x="407" 
d="M276 213h88q1 -16 1.5 -42t-0.5 -42q-4 -73 -38.5 -105t-114.5 -32q-84 0 -119.5 32.5t-39.5 104.5q-1 46 -2 107.5t-0.5 123.5t2.5 110q4 74 41 106t117 32t115 -32t39 -103q0 -11 0.5 -42.5t0 -71.5t-1.5 -76h-224q0 -40 1 -81l2 -82q0 -34 16 -46.5t52 -12.5
q35 0 49.5 13t16.5 46v40t-1 53zM211 539q-38 0 -53 -14t-15 -43q-1 -33 -1.5 -65.5t-0.5 -67.5h136q1 42 1 80.5t-1 52.5q-3 32 -18.5 44.5t-47.5 12.5zM53 659v51h311v-51h-311zM179 763l86 120h69l-89 -120h-66z" />
    <glyph glyph-name="uni1E1C" unicode="&#x1e1c;" horiz-adv-x="371" 
d="M57 0v800h278v-79h-190v-278h180v-79h-180v-285h190v-79h-278zM251 -133q-13 0 -30 1t-31 4l9 34q21 -3 52 -2q28 0 28 16q0 11 -8 15.5t-20 4.5h-62l-4 4v68h47v-38h19q30 0 51 -12t21 -42q0 -52 -72 -53zM69 918h60q0 -19 17.5 -30t47.5 -11t48 11t18 30h59
q-2 -40 -36 -63.5t-89 -23.5q-54 0 -88 23.5t-37 63.5z" />
    <glyph glyph-name="uni1E1D" unicode="&#x1e1d;" horiz-adv-x="407" 
d="M276 213h88q1 -16 1.5 -42t-0.5 -42q-4 -73 -38.5 -105t-114.5 -32q-84 0 -119.5 32.5t-39.5 104.5q-1 46 -2 107.5t-0.5 123.5t2.5 110q4 74 41 106t117 32t115 -32t39 -103q0 -11 0.5 -42.5t0 -71.5t-1.5 -76h-224q0 -40 1 -81l2 -82q0 -34 16 -46.5t52 -12.5
q35 0 49.5 13t16.5 46v40t-1 53zM211 539q-38 0 -53 -14t-15 -43q-1 -33 -1.5 -65.5t-0.5 -67.5h136q1 42 1 80.5t-1 52.5q-3 32 -18.5 44.5t-47.5 12.5zM254 -132q-13 0 -30 1t-31 4l9 34q21 -3 52 -2q28 0 28 16q0 11 -8 15.5t-20 4.5h-62l-4 4v68h47v-38h19q30 0 51 -12
t21 -42q0 -52 -72 -53zM81 767h59q0 -37 15.5 -52.5t53.5 -15.5q37 0 52.5 15.5t16.5 52.5h58q-3 -63 -33 -90t-94 -27q-65 0 -95 27t-33 90z" />
    <glyph glyph-name="uni1E20" unicode="&#x1e20;" horiz-adv-x="429" 
d="M225 -7q-89 0 -126.5 33.5t-39.5 112.5q-5 261 0 519q3 80 40.5 114.5t124.5 34.5q85 0 122.5 -33.5t41.5 -111.5q2 -71 0 -142h-89q2 41 2 75t-2 75q-1 35 -16.5 48.5t-58.5 13.5q-44 0 -59.5 -13.5t-17.5 -48.5q-2 -98 -3 -184t0 -172t3 -183q2 -36 18 -49.5t60 -13.5
q45 0 61.5 13.5t18.5 49.5q2 67 0 133h-77v80h163q1 -61 1 -110.5t-1 -94.5q-3 -79 -41 -112.5t-125 -33.5zM77 842v47h290v-47h-290z" />
    <glyph glyph-name="uni1E21" unicode="&#x1e21;" horiz-adv-x="436" 
d="M216 -173q-75 0 -119 22t-49 64q-1 6 -1.5 13t0.5 13q2 28 22 43.5t47 19.5v14q-54 13 -57 54q-1 6 -1 11t1 10q1 20 17 35.5t40 18.5v15q-32 14 -47 44t-18 77q-2 50 -2 94t2 95q5 74 41 106t117 32q107 0 137 -61h15q2 25 20.5 39t48.5 14v-69h-11q-25 0 -39.5 -16.5
t-14.5 -51.5q1 -53 1 -97t-2 -85q-4 -73 -39.5 -105.5t-115.5 -32.5q-4 0 -7.5 0.5t-6.5 0.5q-36 0 -50 -10t-14 -27v-5q0 -19 22 -25t68 -7q83 -3 125.5 -27t48.5 -79q2 -16 0 -32q-6 -60 -56 -82.5t-123 -22.5zM209 212q32 0 49.5 13t19.5 47q2 49 1.5 99t-2.5 109
q-1 32 -17 45.5t-51 13.5q-37 0 -54 -14t-18 -47q-1 -59 -1.5 -107t1.5 -98q2 -34 20 -47.5t52 -13.5zM218 -106q89 0 98 44q4 12 0 25q-8 37 -99 41q-46 2 -67 -9t-22 -35q-2 -11 0 -24q2 -22 23 -32t67 -10zM53 659v51h311v-51h-311z" />
    <glyph glyph-name="uni1E24" unicode="&#x1e24;" horiz-adv-x="435" 
d="M57 0v800h88v-357h145v357h88v-800h-88v364h-145v-364h-88zM168 -111v66h99v-66h-99z" />
    <glyph glyph-name="uni1E25" unicode="&#x1e25;" horiz-adv-x="419" 
d="M51 0v800h90v-257h18q18 33 40 49t64 16q57 0 84 -31.5t28 -100.5l1 -476h-89l-1 483q-1 30 -14 44t-43 14q-66 0 -88 -57v-484h-90zM145 -158v81h100v-81h-100z" />
    <glyph glyph-name="uni1E2A" unicode="&#x1e2a;" horiz-adv-x="435" 
d="M57 0v800h88v-357h145v357h88v-800h-88v364h-145v-364h-88zM92 -50h56q1 -39 69 -39q34 0 51 11t18 28h56q-2 -37 -36.5 -59.5t-88.5 -22.5q-52 0 -87.5 22t-37.5 60z" />
    <glyph glyph-name="uni1E2B" unicode="&#x1e2b;" horiz-adv-x="419" 
d="M51 0v800h90v-257h18q18 33 40 49t64 16q57 0 84 -31.5t28 -100.5l1 -476h-89l-1 483q-1 30 -14 44t-43 14q-66 0 -88 -57v-484h-90zM89 -47h59q0 -37 15.5 -52.5t53.5 -15.5q37 0 52.5 15.5t16.5 52.5h58q-3 -63 -33 -90t-94 -27q-65 0 -95 27t-33 90z" />
    <glyph glyph-name="uni1E2E" unicode="&#x1e2e;" horiz-adv-x="202" 
d="M57 0v800h88v-800h-88zM121 849v65h89v-65h-89zM-8 849v65h89v-65h-89zM77 954v3l102 68h75v-2l-113 -69h-64z" />
    <glyph glyph-name="uni1E2F" unicode="&#x1e2f;" horiz-adv-x="191" 
d="M51 0v600h88v-600h-88zM116 663v81h89v-81h-89zM-13 663v81h89v-81h-89zM66 787l86 120h69l-89 -120h-66z" />
    <glyph glyph-name="uni1E36" unicode="&#x1e36;" horiz-adv-x="363" 
d="M57 0v800h88v-721h187v-79h-275zM136 -111v66h99v-66h-99z" />
    <glyph glyph-name="uni1E37" unicode="&#x1e37;" horiz-adv-x="191" 
d="M51 0v800h88v-800h-88zM45 -158v81h100v-81h-100z" />
    <glyph glyph-name="uni1E3A" unicode="&#x1e3a;" horiz-adv-x="363" 
d="M57 0v800h88v-721h187v-79h-275zM49 -95v47h290v-47h-290z" />
    <glyph glyph-name="uni1E3B" unicode="&#x1e3b;" horiz-adv-x="191" 
d="M51 0v800h88v-800h-88zM-55 -94v51h311v-51h-311z" />
    <glyph glyph-name="uni1E42" unicode="&#x1e42;" horiz-adv-x="683" 
d="M57 0v800h191l46 -325l33 -393h29l33 393l46 325h187l3 -800h-89v233l9 488h-44l-50 -491l-38 -227h-144l-36 227l-55 491h-42l12 -485v-236h-91zM292 -111v66h99v-66h-99z" />
    <glyph glyph-name="uni1E43" unicode="&#x1e43;" horiz-adv-x="642" 
d="M51 0v600h89v-57h17q17 32 38 48.5t62 16.5q39 0 65 -16.5t37 -52.5h15q17 31 41.5 50t65.5 19q53 0 80.5 -31t28.5 -101v-476h-89v483q0 31 -14 44.5t-41 13.5q-55 0 -79 -55v-486h-89v483q-1 58 -55 58q-62 0 -83 -57v-484h-89zM272 -158v81h100v-81h-100z" />
    <glyph glyph-name="uni1E44" unicode="&#x1e44;" horiz-adv-x="521" 
d="M57 0v800h177l47 -254l69 -467h43l-12 431l-6 290h89v-800h-183l-50 284l-59 437h-44l11 -417l6 -304h-88zM219 842v66h100v-66h-100z" />
    <glyph glyph-name="uni1E45" unicode="&#x1e45;" horiz-adv-x="429" 
d="M51 0v600h89v-57h19q17 32 41 48.5t63 16.5q57 0 85 -31.5t28 -100.5v-476h-88l-1 483q0 30 -14 44t-44 14q-28 0 -53.5 -15t-35.5 -42v-484h-89zM165 663v81h99v-81h-99z" />
    <glyph glyph-name="uni1E46" unicode="&#x1e46;" horiz-adv-x="521" 
d="M57 0v800h177l47 -254l69 -467h43l-12 431l-6 290h89v-800h-183l-50 284l-59 437h-44l11 -417l6 -304h-88zM214 -111v66h99v-66h-99z" />
    <glyph glyph-name="uni1E47" unicode="&#x1e47;" horiz-adv-x="429" 
d="M51 0v600h89v-57h19q17 32 41 48.5t63 16.5q57 0 85 -31.5t28 -100.5v-476h-88l-1 483q0 30 -14 44t-44 14q-28 0 -53.5 -15t-35.5 -42v-484h-89zM165 -158v81h100v-81h-100z" />
    <glyph glyph-name="uni1E48" unicode="&#x1e48;" horiz-adv-x="521" 
d="M57 0v800h177l47 -254l69 -467h43l-12 431l-6 290h89v-800h-183l-50 284l-59 437h-44l11 -417l6 -304h-88zM128 -95v47h290v-47h-290z" />
    <glyph glyph-name="uni1E49" unicode="&#x1e49;" horiz-adv-x="429" 
d="M51 0v600h89v-57h19q17 32 41 48.5t63 16.5q57 0 85 -31.5t28 -100.5v-476h-88l-1 483q0 30 -14 44t-44 14q-28 0 -53.5 -15t-35.5 -42v-484h-89zM64 -94v51h311v-51h-311z" />
    <glyph glyph-name="uni1E4C" unicode="&#x1e4c;" horiz-adv-x="444" 
d="M223 -7q-86 0 -124 34.5t-40 115.5q-1 97 -1.5 178t0 161.5t1.5 174.5q2 81 40 115.5t124 34.5q84 0 122 -34.5t40 -115.5q2 -95 3 -175t0 -161t-3 -178q-2 -81 -40 -115.5t-122 -34.5zM223 68q41 0 57 15t17 56q2 74 3 137.5t1 123.5t-1 123t-3 138q-1 40 -17 55.5
t-57 15.5q-42 0 -58.5 -15.5t-16.5 -55.5q-2 -73 -3 -136t-1 -122.5t1 -123.5t3 -140q0 -41 16.5 -56t58.5 -15zM91 843q3 38 26.5 56t61.5 13q24 -2 38 -9.5t26.5 -14.5t29.5 -7q39 -3 39 31h41q-1 -80 -81 -74q-24 1 -39.5 8t-28.5 14.5t-29 9.5q-39 7 -42 -27h-42z
M197 945v3l102 68h75v-2l-113 -69h-64z" />
    <glyph glyph-name="uni1E4D" unicode="&#x1e4d;" horiz-adv-x="427" 
d="M214 -8q-86 0 -121 34.5t-39 113.5q-2 39 -2.5 96t0 117t2.5 107q4 80 39.5 114t120.5 34q86 0 120.5 -34.5t38.5 -113.5q2 -44 2.5 -100.5t0 -114t-2.5 -105.5q-4 -79 -39 -113.5t-120 -34.5zM214 60q39 0 54 15t16 46q4 90 4 178t-4 181q-1 32 -17 46t-53 14
q-38 0 -54.5 -15t-17.5 -47q-3 -78 -3 -171.5t3 -184.5q2 -33 18 -47.5t54 -14.5zM78 657q4 47 29 67.5t61 17.5q25 -1 40.5 -11t29 -20t30.5 -11q18 -1 29.5 9t11.5 26h41q-1 -43 -24.5 -63.5t-59.5 -19.5q-24 1 -40 10.5t-30 19.5t-31 12q-17 1 -30.5 -7.5t-16.5 -29.5
h-40zM182 792l86 120h69l-89 -120h-66z" />
    <glyph glyph-name="uni1E4E" unicode="&#x1e4e;" horiz-adv-x="444" 
d="M223 -7q-86 0 -124 34.5t-40 115.5q-1 97 -1.5 178t0 161.5t1.5 174.5q2 81 40 115.5t124 34.5q84 0 122 -34.5t40 -115.5q2 -95 3 -175t0 -161t-3 -178q-2 -81 -40 -115.5t-122 -34.5zM223 68q41 0 57 15t17 56q2 74 3 137.5t1 123.5t-1 123t-3 138q-1 40 -17 55.5
t-57 15.5q-42 0 -58.5 -15.5t-16.5 -55.5q-2 -73 -3 -136t-1 -122.5t1 -123.5t3 -140q0 -41 16.5 -56t58.5 -15zM91 843q3 38 26.5 56t61.5 13q24 -2 38 -9.5t26.5 -14.5t29.5 -7q39 -3 39 31h41q-1 -80 -81 -74q-24 1 -39.5 8t-28.5 14.5t-29 9.5q-39 7 -42 -27h-42z
M241 954v65h89v-65h-89zM112 954v65h89v-65h-89z" />
    <glyph glyph-name="uni1E4F" unicode="&#x1e4f;" horiz-adv-x="427" 
d="M214 -8q-86 0 -121 34.5t-39 113.5q-2 39 -2.5 96t0 117t2.5 107q4 80 39.5 114t120.5 34q86 0 120.5 -34.5t38.5 -113.5q2 -44 2.5 -100.5t0 -114t-2.5 -105.5q-4 -79 -39 -113.5t-120 -34.5zM214 60q39 0 54 15t16 46q4 90 4 178t-4 181q-1 32 -17 46t-53 14
q-38 0 -54.5 -15t-17.5 -47q-3 -78 -3 -171.5t3 -184.5q2 -33 18 -47.5t54 -14.5zM78 657q4 47 29 67.5t61 17.5q25 -1 40.5 -11t29 -20t30.5 -11q18 -1 29.5 9t11.5 26h41q-1 -43 -24.5 -63.5t-59.5 -19.5q-24 1 -40 10.5t-30 19.5t-31 12q-17 1 -30.5 -7.5t-16.5 -29.5
h-40zM232 801v81h89v-81h-89zM103 801v81h89v-81h-89z" />
    <glyph glyph-name="uni1E50" unicode="&#x1e50;" horiz-adv-x="444" 
d="M223 -7q-86 0 -124 34.5t-40 115.5q-1 97 -1.5 178t0 161.5t1.5 174.5q2 81 40 115.5t124 34.5q84 0 122 -34.5t40 -115.5q2 -95 3 -175t0 -161t-3 -178q-2 -81 -40 -115.5t-122 -34.5zM223 68q41 0 57 15t17 56q2 74 3 137.5t1 123.5t-1 123t-3 138q-1 40 -17 55.5
t-57 15.5q-42 0 -58.5 -15.5t-16.5 -55.5q-2 -73 -3 -136t-1 -122.5t1 -123.5t3 -140q0 -41 16.5 -56t58.5 -15zM77 842v47h290v-47h-290zM80 1000v2h75l102 -68v-3h-64z" />
    <glyph glyph-name="uni1E51" unicode="&#x1e51;" horiz-adv-x="427" 
d="M214 -8q-86 0 -121 34.5t-39 113.5q-2 39 -2.5 96t0 117t2.5 107q4 80 39.5 114t120.5 34q86 0 120.5 -34.5t38.5 -113.5q2 -44 2.5 -100.5t0 -114t-2.5 -105.5q-4 -79 -39 -113.5t-120 -34.5zM214 60q39 0 54 15t16 46q4 90 4 178t-4 181q-1 32 -17 46t-53 14
q-38 0 -54.5 -15t-17.5 -47q-3 -78 -3 -171.5t3 -184.5q2 -33 18 -47.5t54 -14.5zM58 659v51h311v-51h-311zM92 883h65l90 -120h-65z" />
    <glyph glyph-name="uni1E52" unicode="&#x1e52;" horiz-adv-x="444" 
d="M223 -7q-86 0 -124 34.5t-40 115.5q-1 97 -1.5 178t0 161.5t1.5 174.5q2 81 40 115.5t124 34.5q84 0 122 -34.5t40 -115.5q2 -95 3 -175t0 -161t-3 -178q-2 -81 -40 -115.5t-122 -34.5zM223 68q41 0 57 15t17 56q2 74 3 137.5t1 123.5t-1 123t-3 138q-1 40 -17 55.5
t-57 15.5q-42 0 -58.5 -15.5t-16.5 -55.5q-2 -73 -3 -136t-1 -122.5t1 -123.5t3 -140q0 -41 16.5 -56t58.5 -15zM77 842v47h290v-47h-290zM199 931v3l102 68h75v-2l-113 -69h-64z" />
    <glyph glyph-name="uni1E53" unicode="&#x1e53;" horiz-adv-x="427" 
d="M214 -8q-86 0 -121 34.5t-39 113.5q-2 39 -2.5 96t0 117t2.5 107q4 80 39.5 114t120.5 34q86 0 120.5 -34.5t38.5 -113.5q2 -44 2.5 -100.5t0 -114t-2.5 -105.5q-4 -79 -39 -113.5t-120 -34.5zM214 60q39 0 54 15t16 46q4 90 4 178t-4 181q-1 32 -17 46t-53 14
q-38 0 -54.5 -15t-17.5 -47q-3 -78 -3 -171.5t3 -184.5q2 -33 18 -47.5t54 -14.5zM58 659v51h311v-51h-311zM184 763l86 120h69l-89 -120h-66z" />
    <glyph glyph-name="uni1E5A" unicode="&#x1e5a;" horiz-adv-x="414" 
d="M57 0v800h157q79 0 115 -32t38 -106q3 -67 3 -117t-3 -106q-3 -96 -67 -123l82 -316h-93l-74 302h-70v-302h-88zM145 381h68q35 0 50 12.5t16 41.5q3 64 3 115.5t-3 115.5q-1 30 -15.5 42.5t-49.5 12.5h-69v-340zM165 -111v66h99v-66h-99z" />
    <glyph glyph-name="uni1E5B" unicode="&#x1e5b;" horiz-adv-x="308" 
d="M51 0v600h91v-61h18q9 35 30.5 49t58.5 14q10 0 20 -0.5t19 -1.5v-69h-38q-46 0 -72.5 -14.5t-35.5 -50.5v-466h-91zM106 -158v81h100v-81h-100z" />
    <glyph glyph-name="uni1E5E" unicode="&#x1e5e;" horiz-adv-x="414" 
d="M57 0v800h157q79 0 115 -32t38 -106q3 -67 3 -117t-3 -106q-3 -96 -67 -123l82 -316h-93l-74 302h-70v-302h-88zM145 381h68q35 0 50 12.5t16 41.5q3 64 3 115.5t-3 115.5q-1 30 -15.5 42.5t-49.5 12.5h-69v-340zM78 -95v47h290v-47h-290z" />
    <glyph glyph-name="uni1E5F" unicode="&#x1e5f;" horiz-adv-x="308" 
d="M51 0v600h91v-61h18q9 35 30.5 49t58.5 14q10 0 20 -0.5t19 -1.5v-69h-38q-46 0 -72.5 -14.5t-35.5 -50.5v-466h-91zM5 -94v51h311v-51h-311z" />
    <glyph glyph-name="uni1E60" unicode="&#x1e60;" horiz-adv-x="442" 
d="M223 -7q-85 0 -123 33.5t-40 112.5q-2 40 -1.5 75t2.5 76h85q-2 -43 -2.5 -83t2.5 -81q1 -32 18.5 -45t57.5 -13q38 0 54.5 13t19.5 45q2 32 2 69.5t-2 69.5q-2 38 -16.5 57.5t-47.5 27.5l-61 15q-63 15 -87 53.5t-26 113.5q-1 31 -0.5 63.5t0.5 66.5q3 78 40.5 111.5
t123.5 33.5q82 0 119 -33.5t40 -111.5q1 -30 0.5 -66.5t-1.5 -75.5h-85q1 44 1.5 81t-1.5 73q-1 32 -18 45t-56 13q-38 0 -55 -13t-19 -45q-3 -37 -2.5 -71t2.5 -71q1 -41 12 -60.5t38 -26.5l56 -12q72 -17 100.5 -55.5t30.5 -112.5q2 -30 1.5 -63.5t-1.5 -62.5
q-3 -79 -40.5 -112.5t-120.5 -33.5zM171 842v66h100v-66h-100z" />
    <glyph glyph-name="uni1E61" unicode="&#x1e61;" horiz-adv-x="395" 
d="M194 -8q-79 0 -111 32t-35 105q-1 23 -0.5 43.5t1.5 40.5h80q-2 -32 -1.5 -54.5t0.5 -38.5q1 -34 16.5 -47t49.5 -13q37 0 53.5 13.5t17.5 46.5q1 34 0 63q-1 32 -10 48.5t-36 24.5l-57 16q-61 17 -87.5 49t-27.5 98q-1 29 0 51q1 74 34.5 106t117.5 32q78 0 111 -31.5
t35 -104.5v-23.5t-0.5 -32t-1.5 -27.5h-82q1 23 1 50v43q-1 32 -14.5 45t-48.5 13q-36 0 -49.5 -12.5t-15.5 -45.5q0 -9 -0.5 -22.5t-0.5 -31.5q1 -34 9 -54.5t39 -28.5l54 -14q58 -15 86 -47.5t28 -97.5v-29.5t-1 -30.5q-2 -71 -36 -102.5t-118 -31.5zM147 663v81h99v-81
h-99z" />
    <glyph glyph-name="uni1E62" unicode="&#x1e62;" horiz-adv-x="442" 
d="M223 -7q-85 0 -123 33.5t-40 112.5q-2 40 -1.5 75t2.5 76h85q-2 -43 -2.5 -83t2.5 -81q1 -32 18.5 -45t57.5 -13q38 0 54.5 13t19.5 45q2 32 2 69.5t-2 69.5q-2 38 -16.5 57.5t-47.5 27.5l-61 15q-63 15 -87 53.5t-26 113.5q-1 31 -0.5 63.5t0.5 66.5q3 78 40.5 111.5
t123.5 33.5q82 0 119 -33.5t40 -111.5q1 -30 0.5 -66.5t-1.5 -75.5h-85q1 44 1.5 81t-1.5 73q-1 32 -18 45t-56 13q-38 0 -55 -13t-19 -45q-3 -37 -2.5 -71t2.5 -71q1 -41 12 -60.5t38 -26.5l56 -12q72 -17 100.5 -55.5t30.5 -112.5q2 -30 1.5 -63.5t-1.5 -62.5
q-3 -79 -40.5 -112.5t-120.5 -33.5zM171 -111v66h99v-66h-99z" />
    <glyph glyph-name="uni1E63" unicode="&#x1e63;" horiz-adv-x="395" 
d="M194 -8q-79 0 -111 32t-35 105q-1 23 -0.5 43.5t1.5 40.5h80q-2 -32 -1.5 -54.5t0.5 -38.5q1 -34 16.5 -47t49.5 -13q37 0 53.5 13.5t17.5 46.5q1 34 0 63q-1 32 -10 48.5t-36 24.5l-57 16q-61 17 -87.5 49t-27.5 98q-1 29 0 51q1 74 34.5 106t117.5 32q78 0 111 -31.5
t35 -104.5v-23.5t-0.5 -32t-1.5 -27.5h-82q1 23 1 50v43q-1 32 -14.5 45t-48.5 13q-36 0 -49.5 -12.5t-15.5 -45.5q0 -9 -0.5 -22.5t-0.5 -31.5q1 -34 9 -54.5t39 -28.5l54 -14q58 -15 86 -47.5t28 -97.5v-29.5t-1 -30.5q-2 -71 -36 -102.5t-118 -31.5zM147 -158v81h100v-81
h-100z" />
    <glyph glyph-name="uni1E64" unicode="&#x1e64;" horiz-adv-x="442" 
d="M223 -7q-85 0 -123 33.5t-40 112.5q-2 40 -1.5 75t2.5 76h85q-2 -43 -2.5 -83t2.5 -81q1 -32 18.5 -45t57.5 -13q38 0 54.5 13t19.5 45q2 32 2 69.5t-2 69.5q-2 38 -16.5 57.5t-47.5 27.5l-61 15q-63 15 -87 53.5t-26 113.5q-1 31 -0.5 63.5t0.5 66.5q3 78 40.5 111.5
t123.5 33.5q82 0 119 -33.5t40 -111.5q1 -30 0.5 -66.5t-1.5 -75.5h-85q1 44 1.5 81t-1.5 73q-1 32 -18 45t-56 13q-38 0 -55 -13t-19 -45q-3 -37 -2.5 -71t2.5 -71q1 -41 12 -60.5t38 -26.5l56 -12q72 -17 100.5 -55.5t30.5 -112.5q2 -30 1.5 -63.5t-1.5 -62.5
q-3 -79 -40.5 -112.5t-120.5 -33.5zM197 840v3l102 68h75v-2l-113 -69h-64zM186 946v66h100v-66h-100z" />
    <glyph glyph-name="uni1E65" unicode="&#x1e65;" horiz-adv-x="395" 
d="M194 -8q-79 0 -111 32t-35 105q-1 23 -0.5 43.5t1.5 40.5h80q-2 -32 -1.5 -54.5t0.5 -38.5q1 -34 16.5 -47t49.5 -13q37 0 53.5 13.5t17.5 46.5q1 34 0 63q-1 32 -10 48.5t-36 24.5l-57 16q-61 17 -87.5 49t-27.5 98q-1 29 0 51q1 74 34.5 106t117.5 32q78 0 111 -31.5
t35 -104.5v-23.5t-0.5 -32t-1.5 -27.5h-82q1 23 1 50v43q-1 32 -14.5 45t-48.5 13q-36 0 -49.5 -12.5t-15.5 -45.5q0 -9 -0.5 -22.5t-0.5 -31.5q1 -34 9 -54.5t39 -28.5l54 -14q58 -15 86 -47.5t28 -97.5v-29.5t-1 -30.5q-2 -71 -36 -102.5t-118 -31.5zM167 653l86 120h69
l-89 -120h-66zM219 864v81h99v-81h-99z" />
    <glyph glyph-name="uni1E66" unicode="&#x1e66;" horiz-adv-x="442" 
d="M223 -7q-85 0 -123 33.5t-40 112.5q-2 40 -1.5 75t2.5 76h85q-2 -43 -2.5 -83t2.5 -81q1 -32 18.5 -45t57.5 -13q38 0 54.5 13t19.5 45q2 32 2 69.5t-2 69.5q-2 38 -16.5 57.5t-47.5 27.5l-61 15q-63 15 -87 53.5t-26 113.5q-1 31 -0.5 63.5t0.5 66.5q3 78 40.5 111.5
t123.5 33.5q82 0 119 -33.5t40 -111.5q1 -30 0.5 -66.5t-1.5 -75.5h-85q1 44 1.5 81t-1.5 73q-1 32 -18 45t-56 13q-38 0 -55 -13t-19 -45q-3 -37 -2.5 -71t2.5 -71q1 -41 12 -60.5t38 -26.5l56 -12q72 -17 100.5 -55.5t30.5 -112.5q2 -30 1.5 -63.5t-1.5 -62.5
q-3 -79 -40.5 -112.5t-120.5 -33.5zM92 914h71l56 -47l56 47h70l-93 -75h-67zM171 960v66h100v-66h-100z" />
    <glyph glyph-name="uni1E67" unicode="&#x1e67;" horiz-adv-x="395" 
d="M194 -8q-79 0 -111 32t-35 105q-1 23 -0.5 43.5t1.5 40.5h80q-2 -32 -1.5 -54.5t0.5 -38.5q1 -34 16.5 -47t49.5 -13q37 0 53.5 13.5t17.5 46.5q1 34 0 63q-1 32 -10 48.5t-36 24.5l-57 16q-61 17 -87.5 49t-27.5 98q-1 29 0 51q1 74 34.5 106t117.5 32q78 0 111 -31.5
t35 -104.5v-23.5t-0.5 -32t-1.5 -27.5h-82q1 23 1 50v43q-1 32 -14.5 45t-48.5 13q-36 0 -49.5 -12.5t-15.5 -45.5q0 -9 -0.5 -22.5t-0.5 -31.5q1 -34 9 -54.5t39 -28.5l54 -14q58 -15 86 -47.5t28 -97.5v-29.5t-1 -30.5q-2 -71 -36 -102.5t-118 -31.5zM89 773h62l45 -73
l45 73h62l-77 -120h-59zM147 853v81h99v-81h-99z" />
    <glyph glyph-name="uni1E68" unicode="&#x1e68;" horiz-adv-x="442" 
d="M223 -7q-85 0 -123 33.5t-40 112.5q-2 40 -1.5 75t2.5 76h85q-2 -43 -2.5 -83t2.5 -81q1 -32 18.5 -45t57.5 -13q38 0 54.5 13t19.5 45q2 32 2 69.5t-2 69.5q-2 38 -16.5 57.5t-47.5 27.5l-61 15q-63 15 -87 53.5t-26 113.5q-1 31 -0.5 63.5t0.5 66.5q3 78 40.5 111.5
t123.5 33.5q82 0 119 -33.5t40 -111.5q1 -30 0.5 -66.5t-1.5 -75.5h-85q1 44 1.5 81t-1.5 73q-1 32 -18 45t-56 13q-38 0 -55 -13t-19 -45q-3 -37 -2.5 -71t2.5 -71q1 -41 12 -60.5t38 -26.5l56 -12q72 -17 100.5 -55.5t30.5 -112.5q2 -30 1.5 -63.5t-1.5 -62.5
q-3 -79 -40.5 -112.5t-120.5 -33.5zM171 -111v66h99v-66h-99zM171 842v66h100v-66h-100z" />
    <glyph glyph-name="uni1E69" unicode="&#x1e69;" horiz-adv-x="395" 
d="M194 -8q-79 0 -111 32t-35 105q-1 23 -0.5 43.5t1.5 40.5h80q-2 -32 -1.5 -54.5t0.5 -38.5q1 -34 16.5 -47t49.5 -13q37 0 53.5 13.5t17.5 46.5q1 34 0 63q-1 32 -10 48.5t-36 24.5l-57 16q-61 17 -87.5 49t-27.5 98q-1 29 0 51q1 74 34.5 106t117.5 32q78 0 111 -31.5
t35 -104.5v-23.5t-0.5 -32t-1.5 -27.5h-82q1 23 1 50v43q-1 32 -14.5 45t-48.5 13q-36 0 -49.5 -12.5t-15.5 -45.5q0 -9 -0.5 -22.5t-0.5 -31.5q1 -34 9 -54.5t39 -28.5l54 -14q58 -15 86 -47.5t28 -97.5v-29.5t-1 -30.5q-2 -71 -36 -102.5t-118 -31.5zM147 -158v81h100v-81
h-100zM147 663v81h99v-81h-99z" />
    <glyph glyph-name="uni1E6C" unicode="&#x1e6c;" horiz-adv-x="398" 
d="M155 0v721h-124v79h336v-79h-124v-721h-88zM149 -111v66h99v-66h-99z" />
    <glyph glyph-name="uni1E6D" unicode="&#x1e6d;" horiz-adv-x="333" 
d="M251 -8q-86 0 -121 31.5t-35 106.5l-1 401h-48v69h51v170h92l-3 -170h105v-69h-108l1 -411q0 -35 13.5 -47.5t54.5 -12.5q15 0 25.5 0.5t25.5 2.5v-66q-23 -5 -52 -5zM152 -158v81h100v-81h-100z" />
    <glyph glyph-name="uni1E6E" unicode="&#x1e6e;" horiz-adv-x="398" 
d="M155 0v721h-124v79h336v-79h-124v-721h-88zM62 -95v47h290v-47h-290z" />
    <glyph glyph-name="uni1E6F" unicode="&#x1e6f;" horiz-adv-x="333" 
d="M251 -8q-86 0 -121 31.5t-35 106.5l-1 401h-48v69h51v170h92l-3 -170h105v-69h-108l1 -411q0 -35 13.5 -47.5t54.5 -12.5q15 0 25.5 0.5t25.5 2.5v-66q-23 -5 -52 -5zM52 -94v51h311v-51h-311z" />
    <glyph glyph-name="uni1E78" unicode="&#x1e78;" horiz-adv-x="440" 
d="M220 -7q-86 0 -123.5 33.5t-38.5 110.5q-2 167 -2 331.5t2 331.5h88q-2 -167 -1.5 -335.5t1.5 -335.5q0 -32 17 -46t57 -14t57 14t17 46q0 167 1 335.5t-1 335.5h88q2 -167 2 -331.5t-2 -331.5q-1 -77 -38.5 -110.5t-123.5 -33.5zM88 843q3 38 26.5 56t61.5 13
q24 -2 38 -9.5t26.5 -14.5t29.5 -7q39 -3 39 31h41q-1 -80 -81 -74q-24 1 -39.5 8t-28.5 14.5t-29 9.5q-39 7 -42 -27h-42zM194 945v3l102 68h75v-2l-113 -69h-64z" />
    <glyph glyph-name="uni1E79" unicode="&#x1e79;" horiz-adv-x="429" 
d="M169 -8q-56 0 -85.5 31t-29.5 102v475h89l1 -483q0 -30 13 -44t43 -14q28 0 53 15t35 42v484h90v-600h-90v57h-15q-18 -34 -44 -49.5t-60 -15.5zM79 657q4 47 29 67.5t61 17.5q25 -1 40.5 -11t29 -20t30.5 -11q18 -1 29.5 9t11.5 26h41q-1 -43 -24.5 -63.5t-59.5 -19.5
q-24 1 -40 10.5t-30 19.5t-31 12q-17 1 -30.5 -7.5t-16.5 -29.5h-40zM183 792l86 120h69l-89 -120h-66z" />
    <glyph glyph-name="uni1E7A" unicode="&#x1e7a;" horiz-adv-x="440" 
d="M220 -7q-86 0 -123.5 33.5t-38.5 110.5q-2 167 -2 331.5t2 331.5h88q-2 -167 -1.5 -335.5t1.5 -335.5q0 -32 17 -46t57 -14t57 14t17 46q0 167 1 335.5t-1 335.5h88q2 -167 2 -331.5t-2 -331.5q-1 -77 -38.5 -110.5t-123.5 -33.5zM75 842v47h290v-47h-290zM240 940v65h89
v-65h-89zM111 940v65h89v-65h-89z" />
    <glyph glyph-name="uni1E7B" unicode="&#x1e7b;" horiz-adv-x="429" 
d="M169 -8q-56 0 -85.5 31t-29.5 102v475h89l1 -483q0 -30 13 -44t43 -14q28 0 53 15t35 42v484h90v-600h-90v57h-15q-18 -34 -44 -49.5t-60 -15.5zM59 659v51h311v-51h-311zM235 773v81h89v-81h-89zM106 773v81h89v-81h-89z" />
    <glyph glyph-name="Wgrave" unicode="&#x1e80;" horiz-adv-x="689" 
d="M94 0l-57 800h89l18 -309l20 -412h40l23 412l38 304h158l38 -304l22 -412h40l21 412l19 309h89l-58 -800h-179l-25 257l-26 461h-39l-27 -461l-26 -257h-178zM193 909v2h75l102 -68v-3h-64z" />
    <glyph glyph-name="wgrave" unicode="&#x1e81;" horiz-adv-x="621" 
d="M105 0l-74 600h90l31 -303l17 -230h20l18 230l31 301h146l30 -301l16 -230h21l18 230l31 303h89l-74 -600h-150l-23 231l-22 300h-20l-22 -299l-23 -232h-150zM189 773h65l90 -120h-65z" />
    <glyph glyph-name="Wacute" unicode="&#x1e82;" horiz-adv-x="689" 
d="M94 0l-57 800h89l18 -309l20 -412h40l23 412l38 304h158l38 -304l22 -412h40l21 412l19 309h89l-58 -800h-179l-25 257l-26 461h-39l-27 -461l-26 -257h-178zM312 840v3l102 68h75v-2l-113 -69h-64z" />
    <glyph glyph-name="wacute" unicode="&#x1e83;" horiz-adv-x="621" 
d="M105 0l-74 600h90l31 -303l17 -230h20l18 230l31 301h146l30 -301l16 -230h21l18 230l31 303h89l-74 -600h-150l-23 231l-22 300h-20l-22 -299l-23 -232h-150zM281 653l86 120h69l-89 -120h-66z" />
    <glyph glyph-name="Wdieresis" unicode="&#x1e84;" horiz-adv-x="689" 
d="M94 0l-57 800h89l18 -309l20 -412h40l23 412l38 304h158l38 -304l22 -412h40l21 412l19 309h89l-58 -800h-179l-25 257l-26 461h-39l-27 -461l-26 -257h-178zM356 849v65h89v-65h-89zM227 849v65h89v-65h-89z" />
    <glyph glyph-name="wdieresis" unicode="&#x1e85;" horiz-adv-x="621" 
d="M105 0l-74 600h90l31 -303l17 -230h20l18 230l31 301h146l30 -301l16 -230h21l18 230l31 303h89l-74 -600h-150l-23 231l-22 300h-20l-22 -299l-23 -232h-150zM331 663v81h89v-81h-89zM202 663v81h89v-81h-89z" />
    <glyph glyph-name="uni1E8E" unicode="&#x1e8e;" horiz-adv-x="403" 
d="M157 0v275h-26l-100 525h91l36 -222l28 -229h30l28 229l37 222h90l-100 -525h-26v-275h-88zM152 842v66h100v-66h-100z" />
    <glyph glyph-name="uni1E8F" unicode="&#x1e8f;" horiz-adv-x="377" 
d="M113 0l-91 600h92l35 -287l26 -246h22l30 246l33 287h92l-101 -669q-7 -46 -23.5 -76t-50 -45t-91.5 -15q-32 0 -68 5v69q12 -2 31.5 -3.5t35.5 -1.5q42 0 57 13.5t20 47.5l10 75h-59zM140 663v81h99v-81h-99z" />
    <glyph glyph-name="uni1E92" unicode="&#x1e92;" horiz-adv-x="362" 
d="M31 0v73l206 648h-194v79h288v-76l-210 -645h192v-79h-282zM120 -111v66h99v-66h-99z" />
    <glyph glyph-name="uni1E93" unicode="&#x1e93;" horiz-adv-x="346" 
d="M26 0v57l198 476l-194 -1v67l290 1v-59l-201 -474h196v-67h-289zM118 -158v81h100v-81h-100z" />
    <glyph glyph-name="uni1E97" unicode="&#x1e97;" horiz-adv-x="333" 
d="M251 -8q-86 0 -121 31.5t-35 106.5l-1 401h-48v69h51v170h92l-3 -170h105v-69h-108l1 -411q0 -35 13.5 -47.5t54.5 -12.5q15 0 25.5 0.5t25.5 2.5v-66q-23 -5 -52 -5zM182 832v81h89v-81h-89zM53 832v81h89v-81h-89z" />
    <glyph glyph-name="uni1E9E" unicode="&#x1e9e;" horiz-adv-x="415" 
d="M40 0v662q0 74 36 106.5t117 32.5h173v-68l-97 -301q101 -24 106 -148q1 -38 0.5 -65t-1.5 -67q-3 -79 -38.5 -115.5t-118.5 -36.5h-56v75h56q37 0 52 16t17 48q2 40 2 72.5t-2 72.5q-2 36 -14 54t-45 18h-44l-1 72l88 298h-77q-35 0 -50 -12t-15 -40v-674h-88z" />
    <glyph glyph-name="uni1EA0" unicode="&#x1ea0;" horiz-adv-x="416" 
d="M31 0l89 800h175l89 -800h-90l-20 219h-132l-20 -219h-91zM149 298h117l-15 170l-21 253h-44l-21 -253zM158 -111v66h99v-66h-99z" />
    <glyph glyph-name="uni1EA1" unicode="&#x1ea1;" horiz-adv-x="401" 
d="M153 -7q-58 0 -87 29.5t-34 92.5q-1 12 -1 24.5v24.5q4 55 30.5 92t94.5 68q24 12 51 22.5t55 19.5v113q0 32 -15.5 46t-49.5 14q-30 0 -47 -12t-19 -43q0 -13 -0.5 -32.5t0 -37t0.5 -25.5h-85q-2 39 -1 84q3 70 37 102.5t118 32.5q85 0 117 -34.5t32 -112.5l-1 -461h-88
v57h-13q-14 -31 -34.5 -47.5t-59.5 -16.5zM182 59q56 0 78 54l1 185q-21 -7 -41.5 -15.5t-45.5 -23.5q-33 -18 -43 -42t-11 -54v-23t1 -19q2 -29 18 -45.5t43 -16.5zM147 -158v81h100v-81h-100z" />
    <glyph glyph-name="uni1EA2" unicode="&#x1ea2;" horiz-adv-x="416" 
d="M31 0l89 800h175l89 -800h-90l-20 219h-132l-20 -219h-91zM149 298h117l-15 170l-21 253h-44l-21 -253zM150 939q14 3 29.5 4.5t29.5 1.5q72 0 72 -54q0 -28 -20.5 -44t-81.5 -12v34h31q29 0 29 22q0 18 -29 18q-17 0 -30.5 -0.5t-20.5 -1.5z" />
    <glyph glyph-name="uni1EA3" unicode="&#x1ea3;" horiz-adv-x="401" 
d="M153 -7q-58 0 -87 29.5t-34 92.5q-1 12 -1 24.5v24.5q4 55 30.5 92t94.5 68q24 12 51 22.5t55 19.5v113q0 32 -15.5 46t-49.5 14q-30 0 -47 -12t-19 -43q0 -13 -0.5 -32.5t0 -37t0.5 -25.5h-85q-2 39 -1 84q3 70 37 102.5t118 32.5q85 0 117 -34.5t32 -112.5l-1 -461h-88
v57h-13q-14 -31 -34.5 -47.5t-59.5 -16.5zM182 59q56 0 78 54l1 185q-21 -7 -41.5 -15.5t-45.5 -23.5q-33 -18 -43 -42t-11 -54v-23t1 -19q2 -29 18 -45.5t43 -16.5zM161 769q28 5 60 5q71 0 71 -52q0 -26 -15.5 -39.5t-55.5 -12.5v-28h-42v57l4 4h38q12 0 20 4.5t8 14.5
q0 17 -28 17q-13 0 -27.5 -1t-23.5 -2z" />
    <glyph glyph-name="uni1EA4" unicode="&#x1ea4;" horiz-adv-x="416" 
d="M31 0l89 800h175l89 -800h-90l-20 219h-132l-20 -219h-91zM149 298h117l-15 170l-21 253h-44l-21 -253zM78 835l93 76h67l93 -76h-70l-56 47l-56 -47h-71zM182 953v3l102 68h75v-2l-113 -69h-64z" />
    <glyph glyph-name="uni1EA5" unicode="&#x1ea5;" horiz-adv-x="401" 
d="M153 -7q-58 0 -87 29.5t-34 92.5q-1 12 -1 24.5v24.5q4 55 30.5 92t94.5 68q24 12 51 22.5t55 19.5v113q0 32 -15.5 46t-49.5 14q-30 0 -47 -12t-19 -43q0 -13 -0.5 -32.5t0 -37t0.5 -25.5h-85q-2 39 -1 84q3 70 37 102.5t118 32.5q85 0 117 -34.5t32 -112.5l-1 -461h-88
v57h-13q-14 -31 -34.5 -47.5t-59.5 -16.5zM182 59q56 0 78 54l1 185q-21 -7 -41.5 -15.5t-45.5 -23.5q-33 -18 -43 -42t-11 -54v-23t1 -19q2 -29 18 -45.5t43 -16.5zM91 643l78 120h58l77 -120h-62l-44 72l-44 -72h-63zM176 786v3l102 68h75v-2l-113 -69h-64z" />
    <glyph glyph-name="uni1EA6" unicode="&#x1ea6;" horiz-adv-x="416" 
d="M31 0l89 800h175l89 -800h-90l-20 219h-132l-20 -219h-91zM149 298h117l-15 170l-21 253h-44l-21 -253zM78 835l93 76h67l93 -76h-70l-56 47l-56 -47h-71zM57 1020v2h75l102 -68v-3h-64z" />
    <glyph glyph-name="uni1EA7" unicode="&#x1ea7;" horiz-adv-x="401" 
d="M153 -7q-58 0 -87 29.5t-34 92.5q-1 12 -1 24.5v24.5q4 55 30.5 92t94.5 68q24 12 51 22.5t55 19.5v113q0 32 -15.5 46t-49.5 14q-30 0 -47 -12t-19 -43q0 -13 -0.5 -32.5t0 -37t0.5 -25.5h-85q-2 39 -1 84q3 70 37 102.5t118 32.5q85 0 117 -34.5t32 -112.5l-1 -461h-88
v57h-13q-14 -31 -34.5 -47.5t-59.5 -16.5zM182 59q56 0 78 54l1 185q-21 -7 -41.5 -15.5t-45.5 -23.5q-33 -18 -43 -42t-11 -54v-23t1 -19q2 -29 18 -45.5t43 -16.5zM91 643l78 120h58l77 -120h-62l-44 72l-44 -72h-63zM48 855v2h75l102 -68v-3h-64z" />
    <glyph glyph-name="uni1EA8" unicode="&#x1ea8;" horiz-adv-x="416" 
d="M31 0l89 800h175l89 -800h-90l-20 219h-132l-20 -219h-91zM149 298h117l-15 170l-21 253h-44l-21 -253zM78 835l93 76h67l93 -76h-70l-56 47l-56 -47h-71zM247 1020q14 3 29.5 4.5t29.5 1.5q72 0 72 -54q0 -28 -20.5 -44t-81.5 -12v34h31q29 0 29 22q0 18 -29 18
q-17 0 -30.5 -0.5t-20.5 -1.5z" />
    <glyph glyph-name="uni1EA9" unicode="&#x1ea9;" horiz-adv-x="401" 
d="M153 -7q-58 0 -87 29.5t-34 92.5q-1 12 -1 24.5v24.5q4 55 30.5 92t94.5 68q24 12 51 22.5t55 19.5v113q0 32 -15.5 46t-49.5 14q-30 0 -47 -12t-19 -43q0 -13 -0.5 -32.5t0 -37t0.5 -25.5h-85q-2 39 -1 84q3 70 37 102.5t118 32.5q85 0 117 -34.5t32 -112.5l-1 -461h-88
v57h-13q-14 -31 -34.5 -47.5t-59.5 -16.5zM182 59q56 0 78 54l1 185q-21 -7 -41.5 -15.5t-45.5 -23.5q-33 -18 -43 -42t-11 -54v-23t1 -19q2 -29 18 -45.5t43 -16.5zM317 750v-16h-36v45l3 4h32q21 0 21 19q0 16 -21 16q-12 0 -23.5 -0.5t-19.5 -1.5l-8 33q12 3 25.5 4.5
t25.5 1.5q60 0 60 -53q0 -26 -13 -39.5t-46 -12.5zM91 643l78 120h58l77 -120h-62l-44 72l-44 -72h-63z" />
    <glyph glyph-name="uni1EAA" unicode="&#x1eaa;" horiz-adv-x="416" 
d="M31 0l89 800h175l89 -800h-90l-20 219h-132l-20 -219h-91zM149 298h117l-15 170l-21 253h-44l-21 -253zM79 835l93 76h67l93 -76h-70l-56 47l-56 -47h-71zM75 956q3 38 26.5 56t61.5 13q24 -2 38 -9.5t26.5 -14.5t29.5 -7q39 -3 39 31h41q-1 -80 -81 -74q-24 1 -39.5 8
t-28.5 14.5t-29 9.5q-39 7 -42 -27h-42z" />
    <glyph glyph-name="uni1EAB" unicode="&#x1eab;" horiz-adv-x="401" 
d="M153 -7q-58 0 -87 29.5t-34 92.5q-1 12 -1 24.5v24.5q4 55 30.5 92t94.5 68q24 12 51 22.5t55 19.5v113q0 32 -15.5 46t-49.5 14q-30 0 -47 -12t-19 -43q0 -13 -0.5 -32.5t0 -37t0.5 -25.5h-85q-2 39 -1 84q3 70 37 102.5t118 32.5q85 0 117 -34.5t32 -112.5l-1 -461h-88
v57h-13q-14 -31 -34.5 -47.5t-59.5 -16.5zM182 59q56 0 78 54l1 185q-21 -7 -41.5 -15.5t-45.5 -23.5q-33 -18 -43 -42t-11 -54v-23t1 -19q2 -29 18 -45.5t43 -16.5zM91 643l78 120h58l77 -120h-62l-44 72l-44 -72h-63zM68 789q3 38 26.5 56t61.5 13q24 -2 38 -9.5
t26.5 -14.5t29.5 -7q39 -3 39 31h41q-1 -80 -81 -74q-24 1 -39.5 8t-28.5 14.5t-29 9.5q-39 7 -42 -27h-42z" />
    <glyph glyph-name="uni1EAC" unicode="&#x1eac;" horiz-adv-x="416" 
d="M31 0l89 800h175l89 -800h-90l-20 219h-132l-20 -219h-91zM149 298h117l-15 170l-21 253h-44l-21 -253zM158 -111v66h99v-66h-99zM78 835l93 76h67l93 -76h-70l-56 47l-56 -47h-71z" />
    <glyph glyph-name="uni1EAD" unicode="&#x1ead;" horiz-adv-x="401" 
d="M153 -7q-58 0 -87 29.5t-34 92.5q-1 12 -1 24.5v24.5q4 55 30.5 92t94.5 68q24 12 51 22.5t55 19.5v113q0 32 -15.5 46t-49.5 14q-30 0 -47 -12t-19 -43q0 -13 -0.5 -32.5t0 -37t0.5 -25.5h-85q-2 39 -1 84q3 70 37 102.5t118 32.5q85 0 117 -34.5t32 -112.5l-1 -461h-88
v57h-13q-14 -31 -34.5 -47.5t-59.5 -16.5zM182 59q56 0 78 54l1 185q-21 -7 -41.5 -15.5t-45.5 -23.5q-33 -18 -43 -42t-11 -54v-23t1 -19q2 -29 18 -45.5t43 -16.5zM147 -158v81h100v-81h-100zM91 643l78 120h58l77 -120h-62l-44 72l-44 -72h-63z" />
    <glyph glyph-name="uni1EAE" unicode="&#x1eae;" horiz-adv-x="416" 
d="M31 0l89 800h175l89 -800h-90l-20 219h-132l-20 -219h-91zM149 298h117l-15 170l-21 253h-44l-21 -253zM83 919h60q0 -19 17.5 -30t47.5 -11t48 11t18 30h59q-2 -40 -36 -63.5t-89 -23.5q-54 0 -88 23.5t-37 63.5zM184 961v3l102 68h75v-2l-113 -69h-64z" />
    <glyph glyph-name="uni1EAF" unicode="&#x1eaf;" horiz-adv-x="401" 
d="M153 -7q-58 0 -87 29.5t-34 92.5q-1 12 -1 24.5v24.5q4 55 30.5 92t94.5 68q24 12 51 22.5t55 19.5v113q0 32 -15.5 46t-49.5 14q-30 0 -47 -12t-19 -43q0 -13 -0.5 -32.5t0 -37t0.5 -25.5h-85q-2 39 -1 84q3 70 37 102.5t118 32.5q85 0 117 -34.5t32 -112.5l-1 -461h-88
v57h-13q-14 -31 -34.5 -47.5t-59.5 -16.5zM182 59q56 0 78 54l1 185q-21 -7 -41.5 -15.5t-45.5 -23.5q-33 -18 -43 -42t-11 -54v-23t1 -19q2 -29 18 -45.5t43 -16.5zM73 767h59q0 -37 15.5 -52.5t53.5 -15.5q37 0 52.5 15.5t16.5 52.5h58q-3 -63 -33 -90t-94 -27
q-65 0 -95 27t-33 90zM162 789v3l102 68h75v-2l-113 -69h-64z" />
    <glyph glyph-name="uni1EB0" unicode="&#x1eb0;" horiz-adv-x="416" 
d="M31 0l89 800h175l89 -800h-90l-20 219h-132l-20 -219h-91zM149 298h117l-15 170l-21 253h-44l-21 -253zM83 919h60q0 -19 17.5 -30t47.5 -11t48 11t18 30h59q-2 -40 -36 -63.5t-89 -23.5q-54 0 -88 23.5t-37 63.5zM59 1030v2h75l102 -68v-3h-64z" />
    <glyph glyph-name="uni1EB1" unicode="&#x1eb1;" horiz-adv-x="401" 
d="M153 -7q-58 0 -87 29.5t-34 92.5q-1 12 -1 24.5v24.5q4 55 30.5 92t94.5 68q24 12 51 22.5t55 19.5v113q0 32 -15.5 46t-49.5 14q-30 0 -47 -12t-19 -43q0 -13 -0.5 -32.5t0 -37t0.5 -25.5h-85q-2 39 -1 84q3 70 37 102.5t118 32.5q85 0 117 -34.5t32 -112.5l-1 -461h-88
v57h-13q-14 -31 -34.5 -47.5t-59.5 -16.5zM182 59q56 0 78 54l1 185q-21 -7 -41.5 -15.5t-45.5 -23.5q-33 -18 -43 -42t-11 -54v-23t1 -19q2 -29 18 -45.5t43 -16.5zM72 767h59q0 -37 15.5 -52.5t53.5 -15.5q37 0 52.5 15.5t16.5 52.5h58q-3 -63 -33 -90t-94 -27
q-65 0 -95 27t-33 90zM57 858v2h75l102 -68v-3h-64z" />
    <glyph glyph-name="uni1EB2" unicode="&#x1eb2;" horiz-adv-x="416" 
d="M31 0l89 800h175l89 -800h-90l-20 219h-132l-20 -219h-91zM149 298h117l-15 170l-21 253h-44l-21 -253zM83 919h60q0 -19 17.5 -30t47.5 -11t48 11t18 30h59q-2 -40 -36 -63.5t-89 -23.5q-54 0 -88 23.5t-37 63.5zM152 1046q14 3 29.5 4.5t29.5 1.5q72 0 72 -54
q0 -28 -20.5 -44t-81.5 -12v34h31q29 0 29 22q0 18 -29 18q-17 0 -30.5 -0.5t-20.5 -1.5z" />
    <glyph glyph-name="uni1EB3" unicode="&#x1eb3;" horiz-adv-x="401" 
d="M153 -7q-58 0 -87 29.5t-34 92.5q-1 12 -1 24.5v24.5q4 55 30.5 92t94.5 68q24 12 51 22.5t55 19.5v113q0 32 -15.5 46t-49.5 14q-30 0 -47 -12t-19 -43q0 -13 -0.5 -32.5t0 -37t0.5 -25.5h-85q-2 39 -1 84q3 70 37 102.5t118 32.5q85 0 117 -34.5t32 -112.5l-1 -461h-88
v57h-13q-14 -31 -34.5 -47.5t-59.5 -16.5zM182 59q56 0 78 54l1 185q-21 -7 -41.5 -15.5t-45.5 -23.5q-33 -18 -43 -42t-11 -54v-23t1 -19q2 -29 18 -45.5t43 -16.5zM73 767h59q0 -37 15.5 -52.5t53.5 -15.5q37 0 52.5 15.5t16.5 52.5h58q-3 -63 -33 -90t-94 -27
q-65 0 -95 27t-33 90zM159 894q14 3 29.5 4.5t29.5 1.5q72 0 72 -54q0 -28 -20.5 -44t-81.5 -12v34h31q29 0 29 22q0 18 -29 18q-17 0 -30.5 -0.5t-20.5 -1.5z" />
    <glyph glyph-name="uni1EB4" unicode="&#x1eb4;" horiz-adv-x="416" 
d="M31 0l89 800h175l89 -800h-90l-20 219h-132l-20 -219h-91zM149 298h117l-15 170l-21 253h-44l-21 -253zM83 919h60q0 -19 17.5 -30t47.5 -11t48 11t18 30h59q-2 -40 -36 -63.5t-89 -23.5q-54 0 -88 23.5t-37 63.5zM76 964q3 38 26.5 56t61.5 13q24 -2 38 -9.5t26.5 -14.5
t29.5 -7q39 -3 39 31h41q-1 -80 -81 -74q-24 1 -39.5 8t-28.5 14.5t-29 9.5q-39 7 -42 -27h-42z" />
    <glyph glyph-name="uni1EB5" unicode="&#x1eb5;" horiz-adv-x="401" 
d="M153 -7q-58 0 -87 29.5t-34 92.5q-1 12 -1 24.5v24.5q4 55 30.5 92t94.5 68q24 12 51 22.5t55 19.5v113q0 32 -15.5 46t-49.5 14q-30 0 -47 -12t-19 -43q0 -13 -0.5 -32.5t0 -37t0.5 -25.5h-85q-2 39 -1 84q3 70 37 102.5t118 32.5q85 0 117 -34.5t32 -112.5l-1 -461h-88
v57h-13q-14 -31 -34.5 -47.5t-59.5 -16.5zM182 59q56 0 78 54l1 185q-21 -7 -41.5 -15.5t-45.5 -23.5q-33 -18 -43 -42t-11 -54v-23t1 -19q2 -29 18 -45.5t43 -16.5zM73 767h59q0 -37 15.5 -52.5t53.5 -15.5q37 0 52.5 15.5t16.5 52.5h58q-3 -63 -33 -90t-94 -27
q-65 0 -95 27t-33 90zM71 800q3 38 26.5 56t61.5 13q24 -2 38 -9.5t26.5 -14.5t29.5 -7q39 -3 39 31h41q-1 -80 -81 -74q-24 1 -39.5 8t-28.5 14.5t-29 9.5q-39 7 -42 -27h-42z" />
    <glyph glyph-name="uni1EB6" unicode="&#x1eb6;" horiz-adv-x="416" 
d="M31 0l89 800h175l89 -800h-90l-20 219h-132l-20 -219h-91zM149 298h117l-15 170l-21 253h-44l-21 -253zM158 -111v66h99v-66h-99zM83 919h60q0 -19 17.5 -30t47.5 -11t48 11t18 30h59q-2 -40 -36 -63.5t-89 -23.5q-54 0 -88 23.5t-37 63.5z" />
    <glyph glyph-name="uni1EB7" unicode="&#x1eb7;" horiz-adv-x="401" 
d="M153 -7q-58 0 -87 29.5t-34 92.5q-1 12 -1 24.5v24.5q4 55 30.5 92t94.5 68q24 12 51 22.5t55 19.5v113q0 32 -15.5 46t-49.5 14q-30 0 -47 -12t-19 -43q0 -13 -0.5 -32.5t0 -37t0.5 -25.5h-85q-2 39 -1 84q3 70 37 102.5t118 32.5q85 0 117 -34.5t32 -112.5l-1 -461h-88
v57h-13q-14 -31 -34.5 -47.5t-59.5 -16.5zM182 59q56 0 78 54l1 185q-21 -7 -41.5 -15.5t-45.5 -23.5q-33 -18 -43 -42t-11 -54v-23t1 -19q2 -29 18 -45.5t43 -16.5zM147 -158v81h100v-81h-100zM73 767h59q0 -37 15.5 -52.5t53.5 -15.5q37 0 52.5 15.5t16.5 52.5h58
q-3 -63 -33 -90t-94 -27q-65 0 -95 27t-33 90z" />
    <glyph glyph-name="uni1EB8" unicode="&#x1eb8;" horiz-adv-x="371" 
d="M57 0v800h278v-79h-190v-278h180v-79h-180v-285h190v-79h-278zM156 -112v66h99v-66h-99z" />
    <glyph glyph-name="uni1EB9" unicode="&#x1eb9;" horiz-adv-x="407" 
d="M276 213h88q1 -16 1.5 -42t-0.5 -42q-4 -73 -38.5 -105t-114.5 -32q-84 0 -119.5 32.5t-39.5 104.5q-1 46 -2 107.5t-0.5 123.5t2.5 110q4 74 41 106t117 32t115 -32t39 -103q0 -11 0.5 -42.5t0 -71.5t-1.5 -76h-224q0 -40 1 -81l2 -82q0 -34 16 -46.5t52 -12.5
q35 0 49.5 13t16.5 46v40t-1 53zM211 539q-38 0 -53 -14t-15 -43q-1 -33 -1.5 -65.5t-0.5 -67.5h136q1 42 1 80.5t-1 52.5q-3 32 -18.5 44.5t-47.5 12.5zM153 -158v81h100v-81h-100z" />
    <glyph glyph-name="uni1EBA" unicode="&#x1eba;" horiz-adv-x="371" 
d="M57 0v800h278v-79h-190v-278h180v-79h-180v-285h190v-79h-278zM136 938q14 3 29.5 4.5t29.5 1.5q72 0 72 -54q0 -28 -20.5 -44t-81.5 -12v34h31q29 0 29 22q0 18 -29 18q-17 0 -30.5 -0.5t-20.5 -1.5z" />
    <glyph glyph-name="uni1EBB" unicode="&#x1ebb;" horiz-adv-x="407" 
d="M276 213h88q1 -16 1.5 -42t-0.5 -42q-4 -73 -38.5 -105t-114.5 -32q-84 0 -119.5 32.5t-39.5 104.5q-1 46 -2 107.5t-0.5 123.5t2.5 110q4 74 41 106t117 32t115 -32t39 -103q0 -11 0.5 -42.5t0 -71.5t-1.5 -76h-224q0 -40 1 -81l2 -82q0 -34 16 -46.5t52 -12.5
q35 0 49.5 13t16.5 46v40t-1 53zM211 539q-38 0 -53 -14t-15 -43q-1 -33 -1.5 -65.5t-0.5 -67.5h136q1 42 1 80.5t-1 52.5q-3 32 -18.5 44.5t-47.5 12.5zM169 769q28 5 60 5q71 0 71 -52q0 -26 -15.5 -39.5t-55.5 -12.5v-28h-42v57l4 4h38q12 0 20 4.5t8 14.5q0 17 -28 17
q-13 0 -27.5 -1t-23.5 -2z" />
    <glyph glyph-name="uni1EBC" unicode="&#x1ebc;" horiz-adv-x="371" 
d="M57 0v800h278v-79h-190v-278h180v-79h-180v-285h190v-79h-278zM62 842q3 38 26.5 56t61.5 13q24 -2 38 -9.5t26.5 -14.5t29.5 -7q39 -3 39 31h41q-1 -80 -81 -74q-24 1 -39.5 8t-28.5 14.5t-29 9.5q-39 7 -42 -27h-42z" />
    <glyph glyph-name="uni1EBD" unicode="&#x1ebd;" horiz-adv-x="407" 
d="M276 213h88q1 -16 1.5 -42t-0.5 -42q-4 -73 -38.5 -105t-114.5 -32q-84 0 -119.5 32.5t-39.5 104.5q-1 46 -2 107.5t-0.5 123.5t2.5 110q4 74 41 106t117 32t115 -32t39 -103q0 -11 0.5 -42.5t0 -71.5t-1.5 -76h-224q0 -40 1 -81l2 -82q0 -34 16 -46.5t52 -12.5
q35 0 49.5 13t16.5 46v40t-1 53zM211 539q-38 0 -53 -14t-15 -43q-1 -33 -1.5 -65.5t-0.5 -67.5h136q1 42 1 80.5t-1 52.5q-3 32 -18.5 44.5t-47.5 12.5zM72 657q4 47 29 67.5t61 17.5q25 -1 40.5 -11t29 -20t30.5 -11q18 -1 29.5 9t11.5 26h41q-1 -43 -24.5 -63.5
t-59.5 -19.5q-24 1 -40 10.5t-30 19.5t-31 12q-17 1 -30.5 -7.5t-16.5 -29.5h-40z" />
    <glyph glyph-name="uni1EBE" unicode="&#x1ebe;" horiz-adv-x="371" 
d="M57 0v800h278v-79h-190v-278h180v-79h-180v-285h190v-79h-278zM65 834l93 76h67l93 -76h-70l-56 47l-56 -47h-71zM169 952v3l102 68h75v-2l-113 -69h-64z" />
    <glyph glyph-name="uni1EBF" unicode="&#x1ebf;" horiz-adv-x="407" 
d="M276 213h88q1 -16 1.5 -42t-0.5 -42q-4 -73 -38.5 -105t-114.5 -32q-84 0 -119.5 32.5t-39.5 104.5q-1 46 -2 107.5t-0.5 123.5t2.5 110q4 74 41 106t117 32t115 -32t39 -103q0 -11 0.5 -42.5t0 -71.5t-1.5 -76h-224q0 -40 1 -81l2 -82q0 -34 16 -46.5t52 -12.5
q35 0 49.5 13t16.5 46v40t-1 53zM211 539q-38 0 -53 -14t-15 -43q-1 -33 -1.5 -65.5t-0.5 -67.5h136q1 42 1 80.5t-1 52.5q-3 32 -18.5 44.5t-47.5 12.5zM99 643l78 120h58l77 -120h-62l-44 72l-44 -72h-63zM184 786v3l102 68h75v-2l-113 -69h-64z" />
    <glyph glyph-name="uni1EC0" unicode="&#x1ec0;" horiz-adv-x="371" 
d="M57 0v800h278v-79h-190v-278h180v-79h-180v-285h190v-79h-278zM65 833l93 76h67l93 -76h-70l-56 47l-56 -47h-71zM44 1018v2h75l102 -68v-3h-64z" />
    <glyph glyph-name="uni1EC1" unicode="&#x1ec1;" horiz-adv-x="407" 
d="M276 213h88q1 -16 1.5 -42t-0.5 -42q-4 -73 -38.5 -105t-114.5 -32q-84 0 -119.5 32.5t-39.5 104.5q-1 46 -2 107.5t-0.5 123.5t2.5 110q4 74 41 106t117 32t115 -32t39 -103q0 -11 0.5 -42.5t0 -71.5t-1.5 -76h-224q0 -40 1 -81l2 -82q0 -34 16 -46.5t52 -12.5
q35 0 49.5 13t16.5 46v40t-1 53zM211 539q-38 0 -53 -14t-15 -43q-1 -33 -1.5 -65.5t-0.5 -67.5h136q1 42 1 80.5t-1 52.5q-3 32 -18.5 44.5t-47.5 12.5zM99 643l78 120h58l77 -120h-62l-44 72l-44 -72h-63zM56 855v2h75l102 -68v-3h-64z" />
    <glyph glyph-name="uni1EC2" unicode="&#x1ec2;" horiz-adv-x="371" 
d="M57 0v800h278v-79h-190v-278h180v-79h-180v-285h190v-79h-278zM65 834l93 76h67l93 -76h-70l-56 47l-56 -47h-71zM234 1019q14 3 29.5 4.5t29.5 1.5q72 0 72 -54q0 -28 -20.5 -44t-81.5 -12v34h31q29 0 29 22q0 18 -29 18q-17 0 -30.5 -0.5t-20.5 -1.5z" />
    <glyph glyph-name="uni1EC3" unicode="&#x1ec3;" horiz-adv-x="407" 
d="M276 213h88q1 -16 1.5 -42t-0.5 -42q-4 -73 -38.5 -105t-114.5 -32q-84 0 -119.5 32.5t-39.5 104.5q-1 46 -2 107.5t-0.5 123.5t2.5 110q4 74 41 106t117 32t115 -32t39 -103q0 -11 0.5 -42.5t0 -71.5t-1.5 -76h-224q0 -40 1 -81l2 -82q0 -34 16 -46.5t52 -12.5
q35 0 49.5 13t16.5 46v40t-1 53zM211 539q-38 0 -53 -14t-15 -43q-1 -33 -1.5 -65.5t-0.5 -67.5h136q1 42 1 80.5t-1 52.5q-3 32 -18.5 44.5t-47.5 12.5zM325 750v-16h-36v45l3 4h32q21 0 21 19q0 16 -21 16q-12 0 -23.5 -0.5t-19.5 -1.5l-8 33q12 3 25.5 4.5t25.5 1.5
q60 0 60 -53q0 -26 -13 -39.5t-46 -12.5zM99 643l78 120h58l77 -120h-62l-44 72l-44 -72h-63z" />
    <glyph glyph-name="uni1EC4" unicode="&#x1ec4;" horiz-adv-x="371" 
d="M57 0v800h278v-79h-190v-278h180v-79h-180v-285h190v-79h-278zM65 834l93 76h67l93 -76h-70l-56 47l-56 -47h-71zM61 955q3 38 26.5 56t61.5 13q24 -2 38 -9.5t26.5 -14.5t29.5 -7q39 -3 39 31h41q-1 -80 -81 -74q-24 1 -39.5 8t-28.5 14.5t-29 9.5q-39 7 -42 -27h-42z
" />
    <glyph glyph-name="uni1EC5" unicode="&#x1ec5;" horiz-adv-x="407" 
d="M276 213h88q1 -16 1.5 -42t-0.5 -42q-4 -73 -38.5 -105t-114.5 -32q-84 0 -119.5 32.5t-39.5 104.5q-1 46 -2 107.5t-0.5 123.5t2.5 110q4 74 41 106t117 32t115 -32t39 -103q0 -11 0.5 -42.5t0 -71.5t-1.5 -76h-224q0 -40 1 -81l2 -82q0 -34 16 -46.5t52 -12.5
q35 0 49.5 13t16.5 46v40t-1 53zM211 539q-38 0 -53 -14t-15 -43q-1 -33 -1.5 -65.5t-0.5 -67.5h136q1 42 1 80.5t-1 52.5q-3 32 -18.5 44.5t-47.5 12.5zM100 643l78 120h58l77 -120h-62l-44 72l-44 -72h-63zM77 789q3 38 26.5 56t61.5 13q24 -2 38 -9.5t26.5 -14.5t29.5 -7
q39 -3 39 31h41q-1 -80 -81 -74q-24 1 -39.5 8t-28.5 14.5t-29 9.5q-39 7 -42 -27h-42z" />
    <glyph glyph-name="uni1EC6" unicode="&#x1ec6;" horiz-adv-x="371" 
d="M57 0v800h278v-79h-190v-278h180v-79h-180v-285h190v-79h-278zM156 -112v66h99v-66h-99zM65 834l93 76h67l93 -76h-70l-56 47l-56 -47h-71z" />
    <glyph glyph-name="uni1EC7" unicode="&#x1ec7;" horiz-adv-x="407" 
d="M276 213h88q1 -16 1.5 -42t-0.5 -42q-4 -73 -38.5 -105t-114.5 -32q-84 0 -119.5 32.5t-39.5 104.5q-1 46 -2 107.5t-0.5 123.5t2.5 110q4 74 41 106t117 32t115 -32t39 -103q0 -11 0.5 -42.5t0 -71.5t-1.5 -76h-224q0 -40 1 -81l2 -82q0 -34 16 -46.5t52 -12.5
q35 0 49.5 13t16.5 46v40t-1 53zM211 539q-38 0 -53 -14t-15 -43q-1 -33 -1.5 -65.5t-0.5 -67.5h136q1 42 1 80.5t-1 52.5q-3 32 -18.5 44.5t-47.5 12.5zM153 -158v81h100v-81h-100zM99 643l78 120h58l77 -120h-62l-44 72l-44 -72h-63z" />
    <glyph glyph-name="uni1EC8" unicode="&#x1ec8;" horiz-adv-x="202" 
d="M57 0v800h88v-800h-88zM43 939q14 3 29.5 4.5t29.5 1.5q72 0 72 -54q0 -28 -20.5 -44t-81.5 -12v34h31q29 0 29 22q0 18 -29 18q-17 0 -30.5 -0.5t-20.5 -1.5z" />
    <glyph glyph-name="uni1EC9" unicode="&#x1ec9;" horiz-adv-x="191" 
d="M51 0v600h88v-600h-88zM56 769q28 5 60 5q71 0 71 -52q0 -26 -15.5 -39.5t-55.5 -12.5v-28h-42v57l4 4h38q12 0 20 4.5t8 14.5q0 17 -28 17q-13 0 -27.5 -1t-23.5 -2z" />
    <glyph glyph-name="uni1ECA" unicode="&#x1eca;" horiz-adv-x="202" 
d="M57 0v800h88v-800h-88zM51 -111v66h99v-66h-99z" />
    <glyph glyph-name="uni1ECB" unicode="&#x1ecb;" horiz-adv-x="191" 
d="M40 716v84h111v-84h-111zM51 0v600h88v-600h-88zM45 -158v81h100v-81h-100z" />
    <glyph glyph-name="uni1ECC" unicode="&#x1ecc;" horiz-adv-x="444" 
d="M223 -7q-86 0 -124 34.5t-40 115.5q-1 97 -1.5 178t0 161.5t1.5 174.5q2 81 40 115.5t124 34.5q84 0 122 -34.5t40 -115.5q2 -95 3 -175t0 -161t-3 -178q-2 -81 -40 -115.5t-122 -34.5zM223 68q41 0 57 15t17 56q2 74 3 137.5t1 123.5t-1 123t-3 138q-1 40 -17 55.5
t-57 15.5q-42 0 -58.5 -15.5t-16.5 -55.5q-2 -73 -3 -136t-1 -122.5t1 -123.5t3 -140q0 -41 16.5 -56t58.5 -15zM173 -111v66h99v-66h-99z" />
    <glyph glyph-name="uni1ECD" unicode="&#x1ecd;" horiz-adv-x="427" 
d="M214 -8q-86 0 -121 34.5t-39 113.5q-2 39 -2.5 96t0 117t2.5 107q4 80 39.5 114t120.5 34q86 0 120.5 -34.5t38.5 -113.5q2 -44 2.5 -100.5t0 -114t-2.5 -105.5q-4 -79 -39 -113.5t-120 -34.5zM214 60q39 0 54 15t16 46q4 90 4 178t-4 181q-1 32 -17 46t-53 14
q-38 0 -54.5 -15t-17.5 -47q-3 -78 -3 -171.5t3 -184.5q2 -33 18 -47.5t54 -14.5zM164 -158v81h100v-81h-100z" />
    <glyph glyph-name="uni1ECE" unicode="&#x1ece;" horiz-adv-x="444" 
d="M223 -7q-86 0 -124 34.5t-40 115.5q-1 97 -1.5 178t0 161.5t1.5 174.5q2 81 40 115.5t124 34.5q84 0 122 -34.5t40 -115.5q2 -95 3 -175t0 -161t-3 -178q-2 -81 -40 -115.5t-122 -34.5zM223 68q41 0 57 15t17 56q2 74 3 137.5t1 123.5t-1 123t-3 138q-1 40 -17 55.5
t-57 15.5q-42 0 -58.5 -15.5t-16.5 -55.5q-2 -73 -3 -136t-1 -122.5t1 -123.5t3 -140q0 -41 16.5 -56t58.5 -15zM165 939q14 3 29.5 4.5t29.5 1.5q72 0 72 -54q0 -28 -20.5 -44t-81.5 -12v34h31q29 0 29 22q0 18 -29 18q-17 0 -30.5 -0.5t-20.5 -1.5z" />
    <glyph glyph-name="uni1ECF" unicode="&#x1ecf;" horiz-adv-x="427" 
d="M214 -8q-86 0 -121 34.5t-39 113.5q-2 39 -2.5 96t0 117t2.5 107q4 80 39.5 114t120.5 34q86 0 120.5 -34.5t38.5 -113.5q2 -44 2.5 -100.5t0 -114t-2.5 -105.5q-4 -79 -39 -113.5t-120 -34.5zM214 60q39 0 54 15t16 46q4 90 4 178t-4 181q-1 32 -17 46t-53 14
q-38 0 -54.5 -15t-17.5 -47q-3 -78 -3 -171.5t3 -184.5q2 -33 18 -47.5t54 -14.5zM174 769q28 5 60 5q71 0 71 -52q0 -26 -15.5 -39.5t-55.5 -12.5v-28h-42v57l4 4h38q12 0 20 4.5t8 14.5q0 17 -28 17q-13 0 -27.5 -1t-23.5 -2z" />
    <glyph glyph-name="uni1ED0" unicode="&#x1ed0;" horiz-adv-x="444" 
d="M223 -7q-86 0 -124 34.5t-40 115.5q-1 97 -1.5 178t0 161.5t1.5 174.5q2 81 40 115.5t124 34.5q84 0 122 -34.5t40 -115.5q2 -95 3 -175t0 -161t-3 -178q-2 -81 -40 -115.5t-122 -34.5zM223 68q41 0 57 15t17 56q2 74 3 137.5t1 123.5t-1 123t-3 138q-1 40 -17 55.5
t-57 15.5q-42 0 -58.5 -15.5t-16.5 -55.5q-2 -73 -3 -136t-1 -122.5t1 -123.5t3 -140q0 -41 16.5 -56t58.5 -15zM94 835l93 76h67l93 -76h-70l-56 47l-56 -47h-71zM198 953v3l102 68h75v-2l-113 -69h-64z" />
    <glyph glyph-name="uni1ED1" unicode="&#x1ed1;" horiz-adv-x="427" 
d="M214 -8q-86 0 -121 34.5t-39 113.5q-2 39 -2.5 96t0 117t2.5 107q4 80 39.5 114t120.5 34q86 0 120.5 -34.5t38.5 -113.5q2 -44 2.5 -100.5t0 -114t-2.5 -105.5q-4 -79 -39 -113.5t-120 -34.5zM214 60q39 0 54 15t16 46q4 90 4 178t-4 181q-1 32 -17 46t-53 14
q-38 0 -54.5 -15t-17.5 -47q-3 -78 -3 -171.5t3 -184.5q2 -33 18 -47.5t54 -14.5zM104 643l78 120h58l77 -120h-62l-44 72l-44 -72h-63zM189 786v3l102 68h75v-2l-113 -69h-64z" />
    <glyph glyph-name="uni1ED2" unicode="&#x1ed2;" horiz-adv-x="444" 
d="M223 -7q-86 0 -124 34.5t-40 115.5q-1 97 -1.5 178t0 161.5t1.5 174.5q2 81 40 115.5t124 34.5q84 0 122 -34.5t40 -115.5q2 -95 3 -175t0 -161t-3 -178q-2 -81 -40 -115.5t-122 -34.5zM223 68q41 0 57 15t17 56q2 74 3 137.5t1 123.5t-1 123t-3 138q-1 40 -17 55.5
t-57 15.5q-42 0 -58.5 -15.5t-16.5 -55.5q-2 -73 -3 -136t-1 -122.5t1 -123.5t3 -140q0 -41 16.5 -56t58.5 -15zM94 835l93 76h67l93 -76h-70l-56 47l-56 -47h-71zM73 1020v2h75l102 -68v-3h-64z" />
    <glyph glyph-name="uni1ED3" unicode="&#x1ed3;" horiz-adv-x="427" 
d="M214 -8q-86 0 -121 34.5t-39 113.5q-2 39 -2.5 96t0 117t2.5 107q4 80 39.5 114t120.5 34q86 0 120.5 -34.5t38.5 -113.5q2 -44 2.5 -100.5t0 -114t-2.5 -105.5q-4 -79 -39 -113.5t-120 -34.5zM214 60q39 0 54 15t16 46q4 90 4 178t-4 181q-1 32 -17 46t-53 14
q-38 0 -54.5 -15t-17.5 -47q-3 -78 -3 -171.5t3 -184.5q2 -33 18 -47.5t54 -14.5zM104 643l78 120h58l77 -120h-62l-44 72l-44 -72h-63zM61 855v2h75l102 -68v-3h-64z" />
    <glyph glyph-name="uni1ED4" unicode="&#x1ed4;" horiz-adv-x="444" 
d="M223 -7q-86 0 -124 34.5t-40 115.5q-1 97 -1.5 178t0 161.5t1.5 174.5q2 81 40 115.5t124 34.5q84 0 122 -34.5t40 -115.5q2 -95 3 -175t0 -161t-3 -178q-2 -81 -40 -115.5t-122 -34.5zM223 68q41 0 57 15t17 56q2 74 3 137.5t1 123.5t-1 123t-3 138q-1 40 -17 55.5
t-57 15.5q-42 0 -58.5 -15.5t-16.5 -55.5q-2 -73 -3 -136t-1 -122.5t1 -123.5t3 -140q0 -41 16.5 -56t58.5 -15zM94 835l93 76h67l93 -76h-70l-56 47l-56 -47h-71zM263 1020q14 3 29.5 4.5t29.5 1.5q72 0 72 -54q0 -28 -20.5 -44t-81.5 -12v34h31q29 0 29 22q0 18 -29 18
q-17 0 -30.5 -0.5t-20.5 -1.5z" />
    <glyph glyph-name="uni1ED5" unicode="&#x1ed5;" horiz-adv-x="427" 
d="M214 -8q-86 0 -121 34.5t-39 113.5q-2 39 -2.5 96t0 117t2.5 107q4 80 39.5 114t120.5 34q86 0 120.5 -34.5t38.5 -113.5q2 -44 2.5 -100.5t0 -114t-2.5 -105.5q-4 -79 -39 -113.5t-120 -34.5zM214 60q39 0 54 15t16 46q4 90 4 178t-4 181q-1 32 -17 46t-53 14
q-38 0 -54.5 -15t-17.5 -47q-3 -78 -3 -171.5t3 -184.5q2 -33 18 -47.5t54 -14.5zM330 750v-16h-36v45l3 4h32q21 0 21 19q0 16 -21 16q-12 0 -23.5 -0.5t-19.5 -1.5l-8 33q12 3 25.5 4.5t25.5 1.5q60 0 60 -53q0 -26 -13 -39.5t-46 -12.5zM104 643l78 120h58l77 -120h-62
l-44 72l-44 -72h-63z" />
    <glyph glyph-name="uni1ED6" unicode="&#x1ed6;" horiz-adv-x="444" 
d="M223 -7q-86 0 -124 34.5t-40 115.5q-1 97 -1.5 178t0 161.5t1.5 174.5q2 81 40 115.5t124 34.5q84 0 122 -34.5t40 -115.5q2 -95 3 -175t0 -161t-3 -178q-2 -81 -40 -115.5t-122 -34.5zM223 68q41 0 57 15t17 56q2 74 3 137.5t1 123.5t-1 123t-3 138q-1 40 -17 55.5
t-57 15.5q-42 0 -58.5 -15.5t-16.5 -55.5q-2 -73 -3 -136t-1 -122.5t1 -123.5t3 -140q0 -41 16.5 -56t58.5 -15zM94 835l93 76h67l93 -76h-70l-56 47l-56 -47h-71zM90 956q3 38 26.5 56t61.5 13q24 -2 38 -9.5t26.5 -14.5t29.5 -7q39 -3 39 31h41q-1 -80 -81 -74
q-24 1 -39.5 8t-28.5 14.5t-29 9.5q-39 7 -42 -27h-42z" />
    <glyph glyph-name="uni1ED7" unicode="&#x1ed7;" horiz-adv-x="427" 
d="M214 -8q-86 0 -121 34.5t-39 113.5q-2 39 -2.5 96t0 117t2.5 107q4 80 39.5 114t120.5 34q86 0 120.5 -34.5t38.5 -113.5q2 -44 2.5 -100.5t0 -114t-2.5 -105.5q-4 -79 -39 -113.5t-120 -34.5zM214 60q39 0 54 15t16 46q4 90 4 178t-4 181q-1 32 -17 46t-53 14
q-38 0 -54.5 -15t-17.5 -47q-3 -78 -3 -171.5t3 -184.5q2 -33 18 -47.5t54 -14.5zM104 643l78 120h58l77 -120h-62l-44 72l-44 -72h-63zM81 789q3 38 26.5 56t61.5 13q24 -2 38 -9.5t26.5 -14.5t29.5 -7q39 -3 39 31h41q-1 -80 -81 -74q-24 1 -39.5 8t-28.5 14.5t-29 9.5
q-39 7 -42 -27h-42z" />
    <glyph glyph-name="uni1ED8" unicode="&#x1ed8;" horiz-adv-x="444" 
d="M223 -7q-86 0 -124 34.5t-40 115.5q-1 97 -1.5 178t0 161.5t1.5 174.5q2 81 40 115.5t124 34.5q84 0 122 -34.5t40 -115.5q2 -95 3 -175t0 -161t-3 -178q-2 -81 -40 -115.5t-122 -34.5zM223 68q41 0 57 15t17 56q2 74 3 137.5t1 123.5t-1 123t-3 138q-1 40 -17 55.5
t-57 15.5q-42 0 -58.5 -15.5t-16.5 -55.5q-2 -73 -3 -136t-1 -122.5t1 -123.5t3 -140q0 -41 16.5 -56t58.5 -15zM173 -111v66h99v-66h-99zM94 835l93 76h67l93 -76h-70l-56 47l-56 -47h-71z" />
    <glyph glyph-name="uni1ED9" unicode="&#x1ed9;" horiz-adv-x="427" 
d="M214 -8q-86 0 -121 34.5t-39 113.5q-2 39 -2.5 96t0 117t2.5 107q4 80 39.5 114t120.5 34q86 0 120.5 -34.5t38.5 -113.5q2 -44 2.5 -100.5t0 -114t-2.5 -105.5q-4 -79 -39 -113.5t-120 -34.5zM214 60q39 0 54 15t16 46q4 90 4 178t-4 181q-1 32 -17 46t-53 14
q-38 0 -54.5 -15t-17.5 -47q-3 -78 -3 -171.5t3 -184.5q2 -33 18 -47.5t54 -14.5zM164 -158v81h100v-81h-100zM104 643l78 120h58l77 -120h-62l-44 72l-44 -72h-63z" />
    <glyph glyph-name="uni1EDA" unicode="&#x1eda;" horiz-adv-x="468" 
d="M223 -7q-86 0 -124 34.5t-40 115.5q-1 97 -1.5 178t0 161.5t1.5 174.5q2 81 40 115.5t124 34.5q84 0 122 -34.5t40 -115.5q2 -95 3 -175t0 -161t-3 -178q-2 -81 -40 -115.5t-122 -34.5zM223 68q41 0 57 15t17 56q2 74 3 137.5t1 123.5t-1 123t-3 138q-1 40 -17 55.5
t-57 15.5q-42 0 -58.5 -15.5t-16.5 -55.5q-2 -73 -3 -136t-1 -122.5t1 -123.5t3 -140q0 -41 16.5 -56t58.5 -15zM364 608q-15 0 -28 2v46q15 -1 28 -1q37 1 51 15.5t16 50.5q1 17 1 40.5t-1 38.5h52q1 -16 1 -39.5t-1 -39.5q-4 -61 -31 -87t-88 -26zM199 840v3l102 68h75v-2
l-113 -69h-64z" />
    <glyph glyph-name="uni1EDB" unicode="&#x1edb;" horiz-adv-x="451" 
d="M214 -8q-86 0 -121 34.5t-39 113.5q-2 39 -2.5 96t0 117t2.5 107q4 80 39.5 114t120.5 34q86 0 120.5 -34.5t38.5 -113.5q2 -44 2.5 -100.5t0 -114t-2.5 -105.5q-4 -79 -39 -113.5t-120 -34.5zM214 60q39 0 54 15t16 46q4 90 4 178t-4 181q-1 32 -17 46t-53 14
q-38 0 -54.5 -15t-17.5 -47q-3 -78 -3 -171.5t3 -184.5q2 -33 18 -47.5t54 -14.5zM360 408q-15 0 -28 2v46q15 -1 28 -1q37 1 51 15.5t16 50.5q1 17 1 40.5t-1 38.5h52q1 -16 1 -39.5t-1 -39.5q-4 -61 -31 -87t-88 -26zM184 653l86 120h69l-89 -120h-66z" />
    <glyph glyph-name="uni1EDC" unicode="&#x1edc;" horiz-adv-x="468" 
d="M223 -7q-86 0 -124 34.5t-40 115.5q-1 97 -1.5 178t0 161.5t1.5 174.5q2 81 40 115.5t124 34.5q84 0 122 -34.5t40 -115.5q2 -95 3 -175t0 -161t-3 -178q-2 -81 -40 -115.5t-122 -34.5zM223 68q41 0 57 15t17 56q2 74 3 137.5t1 123.5t-1 123t-3 138q-1 40 -17 55.5
t-57 15.5q-42 0 -58.5 -15.5t-16.5 -55.5q-2 -73 -3 -136t-1 -122.5t1 -123.5t3 -140q0 -41 16.5 -56t58.5 -15zM364 608q-15 0 -28 2v46q15 -1 28 -1q37 1 51 15.5t16 50.5q1 17 1 40.5t-1 38.5h52q1 -16 1 -39.5t-1 -39.5q-4 -61 -31 -87t-88 -26zM79 909v2h75l102 -68v-3
h-64z" />
    <glyph glyph-name="uni1EDD" unicode="&#x1edd;" horiz-adv-x="451" 
d="M214 -8q-86 0 -121 34.5t-39 113.5q-2 39 -2.5 96t0 117t2.5 107q4 80 39.5 114t120.5 34q86 0 120.5 -34.5t38.5 -113.5q2 -44 2.5 -100.5t0 -114t-2.5 -105.5q-4 -79 -39 -113.5t-120 -34.5zM214 60q39 0 54 15t16 46q4 90 4 178t-4 181q-1 32 -17 46t-53 14
q-38 0 -54.5 -15t-17.5 -47q-3 -78 -3 -171.5t3 -184.5q2 -33 18 -47.5t54 -14.5zM360 408q-15 0 -28 2v46q15 -1 28 -1q37 1 51 15.5t16 50.5q1 17 1 40.5t-1 38.5h52q1 -16 1 -39.5t-1 -39.5q-4 -61 -31 -87t-88 -26zM92 773h65l90 -120h-65z" />
    <glyph glyph-name="uni1EDE" unicode="&#x1ede;" horiz-adv-x="468" 
d="M223 -7q-86 0 -124 34.5t-40 115.5q-1 97 -1.5 178t0 161.5t1.5 174.5q2 81 40 115.5t124 34.5q84 0 122 -34.5t40 -115.5q2 -95 3 -175t0 -161t-3 -178q-2 -81 -40 -115.5t-122 -34.5zM223 68q41 0 57 15t17 56q2 74 3 137.5t1 123.5t-1 123t-3 138q-1 40 -17 55.5
t-57 15.5q-42 0 -58.5 -15.5t-16.5 -55.5q-2 -73 -3 -136t-1 -122.5t1 -123.5t3 -140q0 -41 16.5 -56t58.5 -15zM364 608q-15 0 -28 2v46q15 -1 28 -1q37 1 51 15.5t16 50.5q1 17 1 40.5t-1 38.5h52q1 -16 1 -39.5t-1 -39.5q-4 -61 -31 -87t-88 -26zM165 939q14 3 29.5 4.5
t29.5 1.5q72 0 72 -54q0 -28 -20.5 -44t-81.5 -12v34h31q29 0 29 22q0 18 -29 18q-17 0 -30.5 -0.5t-20.5 -1.5z" />
    <glyph glyph-name="uni1EDF" unicode="&#x1edf;" horiz-adv-x="451" 
d="M214 -8q-86 0 -121 34.5t-39 113.5q-2 39 -2.5 96t0 117t2.5 107q4 80 39.5 114t120.5 34q86 0 120.5 -34.5t38.5 -113.5q2 -44 2.5 -100.5t0 -114t-2.5 -105.5q-4 -79 -39 -113.5t-120 -34.5zM214 60q39 0 54 15t16 46q4 90 4 178t-4 181q-1 32 -17 46t-53 14
q-38 0 -54.5 -15t-17.5 -47q-3 -78 -3 -171.5t3 -184.5q2 -33 18 -47.5t54 -14.5zM360 408q-15 0 -28 2v46q15 -1 28 -1q37 1 51 15.5t16 50.5q1 17 1 40.5t-1 38.5h52q1 -16 1 -39.5t-1 -39.5q-4 -61 -31 -87t-88 -26zM175 769q28 5 60 5q71 0 71 -52q0 -26 -15.5 -39.5
t-55.5 -12.5v-28h-42v57l4 4h38q12 0 20 4.5t8 14.5q0 17 -28 17q-13 0 -27.5 -1t-23.5 -2z" />
    <glyph glyph-name="uni1EE0" unicode="&#x1ee0;" horiz-adv-x="468" 
d="M223 -7q-86 0 -124 34.5t-40 115.5q-1 97 -1.5 178t0 161.5t1.5 174.5q2 81 40 115.5t124 34.5q84 0 122 -34.5t40 -115.5q2 -95 3 -175t0 -161t-3 -178q-2 -81 -40 -115.5t-122 -34.5zM223 68q41 0 57 15t17 56q2 74 3 137.5t1 123.5t-1 123t-3 138q-1 40 -17 55.5
t-57 15.5q-42 0 -58.5 -15.5t-16.5 -55.5q-2 -73 -3 -136t-1 -122.5t1 -123.5t3 -140q0 -41 16.5 -56t58.5 -15zM364 608q-15 0 -28 2v46q15 -1 28 -1q37 1 51 15.5t16 50.5q1 17 1 40.5t-1 38.5h52q1 -16 1 -39.5t-1 -39.5q-4 -61 -31 -87t-88 -26zM91 843q3 38 26.5 56
t61.5 13q24 -2 38 -9.5t26.5 -14.5t29.5 -7q39 -3 39 31h41q-1 -80 -81 -74q-24 1 -39.5 8t-28.5 14.5t-29 9.5q-39 7 -42 -27h-42z" />
    <glyph glyph-name="uni1EE1" unicode="&#x1ee1;" horiz-adv-x="451" 
d="M214 -8q-86 0 -121 34.5t-39 113.5q-2 39 -2.5 96t0 117t2.5 107q4 80 39.5 114t120.5 34q86 0 120.5 -34.5t38.5 -113.5q2 -44 2.5 -100.5t0 -114t-2.5 -105.5q-4 -79 -39 -113.5t-120 -34.5zM214 60q39 0 54 15t16 46q4 90 4 178t-4 181q-1 32 -17 46t-53 14
q-38 0 -54.5 -15t-17.5 -47q-3 -78 -3 -171.5t3 -184.5q2 -33 18 -47.5t54 -14.5zM360 408q-15 0 -28 2v46q15 -1 28 -1q37 1 51 15.5t16 50.5q1 17 1 40.5t-1 38.5h52q1 -16 1 -39.5t-1 -39.5q-4 -61 -31 -87t-88 -26zM78 657q4 47 29 67.5t61 17.5q25 -1 40.5 -11t29 -20
t30.5 -11q18 -1 29.5 9t11.5 26h41q-1 -43 -24.5 -63.5t-59.5 -19.5q-24 1 -40 10.5t-30 19.5t-31 12q-17 1 -30.5 -7.5t-16.5 -29.5h-40z" />
    <glyph glyph-name="uni1EE2" unicode="&#x1ee2;" horiz-adv-x="468" 
d="M223 -7q-86 0 -124 34.5t-40 115.5q-1 97 -1.5 178t0 161.5t1.5 174.5q2 81 40 115.5t124 34.5q84 0 122 -34.5t40 -115.5q2 -95 3 -175t0 -161t-3 -178q-2 -81 -40 -115.5t-122 -34.5zM223 68q41 0 57 15t17 56q2 74 3 137.5t1 123.5t-1 123t-3 138q-1 40 -17 55.5
t-57 15.5q-42 0 -58.5 -15.5t-16.5 -55.5q-2 -73 -3 -136t-1 -122.5t1 -123.5t3 -140q0 -41 16.5 -56t58.5 -15zM364 608q-15 0 -28 2v46q15 -1 28 -1q37 1 51 15.5t16 50.5q1 17 1 40.5t-1 38.5h52q1 -16 1 -39.5t-1 -39.5q-4 -61 -31 -87t-88 -26zM173 -111v66h99v-66h-99
z" />
    <glyph glyph-name="uni1EE3" unicode="&#x1ee3;" horiz-adv-x="451" 
d="M214 -8q-86 0 -121 34.5t-39 113.5q-2 39 -2.5 96t0 117t2.5 107q4 80 39.5 114t120.5 34q86 0 120.5 -34.5t38.5 -113.5q2 -44 2.5 -100.5t0 -114t-2.5 -105.5q-4 -79 -39 -113.5t-120 -34.5zM214 60q39 0 54 15t16 46q4 90 4 178t-4 181q-1 32 -17 46t-53 14
q-38 0 -54.5 -15t-17.5 -47q-3 -78 -3 -171.5t3 -184.5q2 -33 18 -47.5t54 -14.5zM360 408q-15 0 -28 2v46q15 -1 28 -1q37 1 51 15.5t16 50.5q1 17 1 40.5t-1 38.5h52q1 -16 1 -39.5t-1 -39.5q-4 -61 -31 -87t-88 -26zM164 -158v81h100v-81h-100z" />
    <glyph glyph-name="uni1EE4" unicode="&#x1ee4;" horiz-adv-x="440" 
d="M220 -7q-86 0 -123.5 33.5t-38.5 110.5q-2 167 -2 331.5t2 331.5h88q-2 -167 -1.5 -335.5t1.5 -335.5q0 -32 17 -46t57 -14t57 14t17 46q0 167 1 335.5t-1 335.5h88q2 -167 2 -331.5t-2 -331.5q-1 -77 -38.5 -110.5t-123.5 -33.5zM170 -111v66h99v-66h-99z" />
    <glyph glyph-name="uni1EE5" unicode="&#x1ee5;" horiz-adv-x="429" 
d="M169 -8q-56 0 -85.5 31t-29.5 102v475h89l1 -483q0 -30 13 -44t43 -14q28 0 53 15t35 42v484h90v-600h-90v57h-15q-18 -34 -44 -49.5t-60 -15.5zM159 -158v81h100v-81h-100z" />
    <glyph glyph-name="uni1EE6" unicode="&#x1ee6;" horiz-adv-x="440" 
d="M220 -7q-86 0 -123.5 33.5t-38.5 110.5q-2 167 -2 331.5t2 331.5h88q-2 -167 -1.5 -335.5t1.5 -335.5q0 -32 17 -46t57 -14t57 14t17 46q0 167 1 335.5t-1 335.5h88q2 -167 2 -331.5t-2 -331.5q-1 -77 -38.5 -110.5t-123.5 -33.5zM162 939q14 3 29.5 4.5t29.5 1.5
q72 0 72 -54q0 -28 -20.5 -44t-81.5 -12v34h31q29 0 29 22q0 18 -29 18q-17 0 -30.5 -0.5t-20.5 -1.5z" />
    </font>
</defs>
</svg>
